<?xml version="1.0" standalone="no"?>
<!DOCTYPE svg PUBLIC "-//W3C//DTD SVG 20010904//EN"
 "http://www.w3.org/TR/2001/REC-SVG-20010904/DTD/svg10.dtd">
<svg version="1.0" xmlns="http://www.w3.org/2000/svg"
 width="700.000000pt" height="700.000000pt" viewBox="0 0 700.000000 700.000000"
 preserveAspectRatio="xMidYMid meet">
<metadata>
Created by potrace 1.14, written by Peter Selinger 2001-2017
</metadata>
<g transform="translate(0.000000,700.000000) scale(0.100000,-0.100000)"
fill="#000000" stroke="none">
<path d="M0 3500 l0 -3500 3500 0 3500 0 0 3500 0 3500 -3500 0 -3500 0 0
-3500z m3640 3165 c74 -179 137 -325 140 -325 3 1 93 131 200 290 107 160 197
290 200 290 3 0 36 -155 74 -345 38 -190 72 -345 75 -345 3 0 119 113 256 250
l250 250 5 -360 5 -360 293 196 c162 107 296 193 299 191 2 -3 -25 -157 -62
-342 -36 -186 -65 -341 -63 -345 2 -4 149 53 327 126 178 74 326 132 328 131
2 -2 -57 -150 -130 -328 -74 -178 -130 -325 -126 -327 4 -2 159 27 344 63 186
36 339 64 342 61 2 -2 -57 -96 -132 -208 -76 -111 -135 -195 -131 -185 30 90
5 147 -64 147 -60 0 -102 -43 -161 -167 l-50 -104 -82 74 c-203 182 -295 249
-421 307 -236 109 -559 170 -901 170 -183 0 -243 -12 -399 -79 -212 -91 -212
-91 -536 -96 -157 -2 -355 -11 -440 -19 -474 -47 -871 -163 -1325 -387 -248
-122 -346 -182 -520 -322 -151 -121 -171 -133 -390 -228 -54 -24 -113 -55
-129 -70 l-31 -27 39 -8 c44 -8 398 1 665 17 95 6 192 7 214 4 l40 -7 -34 -27
c-19 -14 -115 -94 -214 -176 -100 -83 -192 -159 -205 -168 -13 -9 -21 -19 -18
-23 4 -3 55 1 115 9 59 9 146 16 193 17 47 1 113 2 146 3 75 2 107 -19 102
-67 -3 -26 -18 -41 -108 -104 -58 -41 -140 -94 -182 -119 -43 -25 -78 -52 -78
-60 0 -27 63 -40 228 -47 180 -7 211 -16 231 -65 22 -51 -12 -82 -198 -180
-72 -39 -159 -91 -193 -118 -74 -56 -198 -176 -198 -190 0 -21 259 -59 444
-65 l68 -3 -292 -224 c-326 -250 -318 -238 -194 -261 86 -16 185 -7 316 29
181 51 193 50 163 -9 -38 -73 -192 -212 -445 -402 -146 -109 -291 -245 -368
-344 l-32 -41 -141 -27 c-78 -15 -143 -25 -146 -22 -2 2 84 136 191 298 l196
293 -360 5 -360 5 250 250 c137 137 250 253 250 256 0 3 -155 37 -345 75 -190
38 -345 71 -345 74 0 3 130 93 290 200 159 107 290 198 290 201 0 3 -146 66
-325 140 -179 74 -325 136 -325 139 0 3 146 65 325 139 179 74 325 137 325
140 0 3 -131 94 -290 201 -160 107 -290 197 -290 200 0 3 155 36 345 74 190
38 345 72 345 75 0 3 -113 119 -250 256 l-250 250 360 5 360 5 -196 293 c-107
162 -193 296 -190 299 2 3 156 -25 341 -62 186 -36 341 -65 345 -63 4 2 -53
149 -127 327 -73 178 -132 326 -130 328 2 2 150 -57 328 -130 178 -74 325
-131 327 -127 2 4 -27 159 -63 345 -37 185 -65 339 -62 341 3 3 137 -83 299
-190 l293 -196 5 360 5 360 250 -250 c137 -137 253 -250 256 -250 3 0 37 155
75 345 38 190 71 345 74 345 3 0 93 -130 200 -290 107 -159 197 -289 200 -290
3 0 66 146 140 325 74 179 137 325 140 325 3 0 66 -146 140 -325z m2842 -2078
c-138 -138 -252 -255 -252 -258 0 -4 155 -37 345 -75 190 -38 345 -71 345 -74
0 -4 -130 -94 -290 -201 -159 -107 -289 -196 -290 -199 0 -3 146 -66 325 -140
179 -74 325 -137 325 -140 0 -3 -146 -66 -325 -140 -179 -74 -325 -137 -325
-140 1 -3 131 -92 290 -199 160 -107 290 -197 290 -201 0 -3 -155 -36 -345
-74 -190 -38 -345 -72 -345 -75 0 -3 113 -119 250 -256 l250 -250 -360 -5
-360 -5 196 -293 c107 -162 193 -296 191 -298 -3 -3 -156 25 -342 61 -185 36
-340 65 -344 63 -4 -2 52 -149 126 -327 73 -178 132 -326 130 -328 -2 -1 -150
57 -328 131 -178 73 -325 130 -327 126 -2 -4 27 -159 63 -345 37 -185 65 -339
62 -341 -3 -3 -137 83 -299 190 l-293 196 -5 -360 -5 -360 -250 250 c-137 137
-253 250 -256 250 -3 0 -37 -155 -75 -345 -38 -190 -71 -345 -75 -345 -9 0
-99 138 -99 152 0 16 94 255 195 498 65 157 505 1190 510 1197 1 2 36 -4 79
-12 93 -18 191 -19 237 -3 92 31 146 93 155 175 7 62 -17 109 -70 138 -76 42
-96 95 -96 253 l0 115 131 296 c210 474 422 961 570 1311 l138 325 34 -3 c43
-4 91 34 108 85 12 36 0 122 -22 165 -5 10 -7 29 -3 43 l6 25 342 0 341 0
-253 -253z m-2314 179 c39 -21 107 -94 131 -143 12 -23 21 -61 21 -84 0 -36
-6 -47 -39 -78 -22 -20 -111 -79 -198 -130 -346 -204 -463 -301 -463 -386 0
-46 16 -57 183 -135 63 -29 94 -50 105 -70 9 -16 35 -37 57 -47 23 -10 83 -60
142 -120 77 -77 111 -119 138 -173 35 -70 164 -267 211 -323 13 -16 24 -34 24
-41 0 -7 -55 -41 -122 -75 -145 -75 -175 -77 -255 -18 -76 55 -216 206 -369
397 -78 96 -165 198 -195 226 -104 97 -345 242 -366 220 -7 -7 -12 -81 -17
-256 -2 -93 -9 -142 -24 -190 -35 -107 -62 -232 -62 -286 0 -28 7 -96 15 -151
19 -124 9 -166 -45 -197 -30 -18 -52 -21 -157 -21 -96 0 -125 3 -136 15 -62
65 -99 497 -63 725 29 181 36 341 21 460 -8 61 -18 155 -21 210 -4 66 -16 137
-36 210 -17 61 -32 134 -32 163 -1 64 13 78 119 117 39 14 90 39 114 55 50 34
121 41 157 15 27 -18 42 -92 49 -250 12 -223 50 -375 96 -375 38 0 105 47 146
102 129 177 324 341 538 452 60 31 112 68 155 110 93 90 121 102 178 72z
m-386 -2447 c110 -17 172 -43 292 -122 196 -129 288 -174 446 -216 47 -13 86
-24 88 -26 2 -1 -36 -75 -83 -164 -125 -233 -366 -748 -541 -1155 l-72 -168
-64 96 c-35 52 -65 96 -68 96 -3 0 -66 -146 -140 -325 -74 -179 -137 -325
-140 -325 -3 0 -66 146 -140 325 -74 179 -137 325 -140 325 -3 -1 -93 -131
-200 -290 -107 -160 -197 -290 -200 -290 -3 0 -36 155 -74 345 -38 190 -72
345 -75 345 -3 0 -119 -113 -256 -250 l-250 -250 -5 360 -5 360 -293 -196
c-162 -107 -296 -193 -299 -190 -3 2 25 156 62 341 36 186 65 341 63 345 -2 4
-149 -53 -327 -127 -178 -73 -326 -132 -328 -130 -2 3 133 338 251 621 l16 39
-37 -6 c-31 -4 -22 2 45 34 320 150 1017 384 1482 499 167 41 399 85 520 99
111 12 391 13 472 0z"/>
</g>
</svg>
