<?xml version="1.0" encoding="UTF-8"?><svg id="Layer_1" xmlns="http://www.w3.org/2000/svg" viewBox="0 0 50 50"><defs><style>.cls-1{fill:#fff;}</style></defs><g id="Artwork_2"><g><path class="cls-1" d="M25,6.55c6.01,0,6.72,.02,9.09,.13,2.19,.1,3.39,.47,4.18,.77,1.05,.41,1.8,.9,2.59,1.68,.79,.79,1.27,1.54,1.68,2.59,.31,.79,.67,1.98,.77,4.18,.11,2.37,.13,3.08,.13,9.09s-.02,6.72-.13,9.09c-.1,2.19-.47,3.39-.77,4.18-.41,1.05-.9,1.8-1.68,2.59s-1.54,1.27-2.59,1.68c-.79,.31-1.98,.67-4.18,.77-2.37,.11-3.08,.13-9.09,.13s-6.72-.02-9.09-.13c-2.19-.1-3.39-.47-4.18-.77-1.05-.41-1.8-.9-2.59-1.68-.79-.79-1.27-1.54-1.68-2.59-.31-.79-.67-1.98-.77-4.18-.11-2.37-.13-3.08-.13-9.09s.02-6.72,.13-9.09c.1-2.19,.47-3.39,.77-4.18,.41-1.05,.9-1.8,1.68-2.59s1.54-1.27,2.59-1.68c.79-.31,1.98-.67,4.18-.77,2.37-.11,3.08-.13,9.09-.13m0-4.05c-6.11,0-6.88,.03-9.28,.14-2.39,.11-4.03,.49-5.46,1.05-1.48,.57-2.73,1.34-3.99,2.6-1.25,1.25-2.02,2.51-2.6,3.99-.56,1.43-.94,3.07-1.05,5.46-.11,2.4-.14,3.17-.14,9.28s.03,6.88,.14,9.28c.11,2.39,.49,4.03,1.05,5.46,.57,1.48,1.34,2.73,2.6,3.99,1.25,1.25,2.51,2.02,3.99,2.6,1.43,.56,3.07,.94,5.46,1.05,2.4,.11,3.17,.14,9.28,.14s6.88-.03,9.28-.14c2.39-.11,4.03-.49,5.46-1.05,1.48-.57,2.73-1.34,3.99-2.6,1.25-1.25,2.02-2.51,2.6-3.99,.56-1.43,.94-3.07,1.05-5.46,.11-2.4,.14-3.17,.14-9.28s-.03-6.88-.14-9.28c-.11-2.39-.49-4.03-1.05-5.46-.57-1.48-1.34-2.73-2.6-3.99-1.25-1.25-2.51-2.02-3.99-2.6-1.43-.56-3.07-.94-5.46-1.05-2.4-.11-3.17-.14-9.28-.14h0Z"/><path class="cls-1" d="M25,13.45c-6.38,0-11.55,5.17-11.55,11.55s5.17,11.55,11.55,11.55,11.55-5.17,11.55-11.55-5.17-11.55-11.55-11.55Zm0,19.05c-4.14,0-7.5-3.36-7.5-7.5s3.36-7.5,7.5-7.5,7.5,3.36,7.5,7.5-3.36,7.5-7.5,7.5Z"/><circle class="cls-1" cx="37.01" cy="12.99" r="2.7"/></g></g></svg>