<?xml version="1.0" encoding="UTF-8"?><svg id="Layer_1" xmlns="http://www.w3.org/2000/svg" viewBox="0 0 800 800"><defs><style>.cls-1{stroke-width:6.32px;}.cls-1,.cls-2,.cls-3,.cls-4,.cls-5,.cls-6,.cls-7,.cls-8,.cls-9,.cls-10,.cls-11,.cls-12,.cls-13,.cls-14,.cls-15,.cls-16,.cls-17,.cls-18,.cls-19,.cls-20,.cls-21,.cls-22,.cls-23,.cls-24,.cls-25,.cls-26,.cls-27,.cls-28,.cls-29,.cls-30,.cls-31,.cls-32,.cls-33,.cls-34,.cls-35,.cls-36{stroke:#000;}.cls-1,.cls-2,.cls-3,.cls-4,.cls-5,.cls-6,.cls-7,.cls-8,.cls-10,.cls-11,.cls-12,.cls-13,.cls-14,.cls-15,.cls-16,.cls-17,.cls-18,.cls-19,.cls-20,.cls-21,.cls-22,.cls-23,.cls-24,.cls-25,.cls-29,.cls-30,.cls-31,.cls-33,.cls-34,.cls-36{stroke-miterlimit:10;}.cls-1,.cls-10,.cls-37{fill:#888;}.cls-2,.cls-6,.cls-15,.cls-38{fill:#bbb;}.cls-2,.cls-20{stroke-width:3.16px;}.cls-3,.cls-4,.cls-5,.cls-6,.cls-7,.cls-18{stroke-width:2.53px;}.cls-3,.cls-11,.cls-21,.cls-30{fill:#9f9f9f;}.cls-4,.cls-39,.cls-24{fill:#d5d5d5;}.cls-5,.cls-14{fill:#d9d9d9;}.cls-7,.cls-40,.cls-17{fill:#fff;}.cls-8{stroke-width:1.08px;}.cls-8,.cls-16,.cls-18,.cls-19,.cls-26,.cls-27,.cls-31,.cls-32,.cls-33{fill:none;}.cls-9,.cls-10,.cls-11,.cls-12,.cls-13,.cls-29{stroke-width:2.95px;}.cls-9,.cls-12,.cls-41{fill:#737373;}.cls-9,.cls-14,.cls-15,.cls-19,.cls-29{stroke-linecap:round;}.cls-9,.cls-26,.cls-27,.cls-28,.cls-32,.cls-35{stroke-linejoin:round;}.cls-13,.cls-42,.cls-23{fill:#b3b3b3;}.cls-14,.cls-15,.cls-19,.cls-21,.cls-22,.cls-23,.cls-24,.cls-25,.cls-28,.cls-31,.cls-36{stroke-width:2.11px;}.cls-43{fill:#020202;}.cls-44{fill:#eb6502;}.cls-45{fill:#ffec00;}.cls-46,.cls-22,.cls-34{fill:#c2c2c2;}.cls-47{fill:#d8d8d8;}.cls-48,.cls-25,.cls-29,.cls-35{fill:#dbdbdb;}.cls-49{fill:#adadad;}.cls-16,.cls-30{stroke-width:1.68px;}.cls-17{stroke-width:2.7px;}.cls-26{stroke-width:3.37px;}.cls-27{stroke-width:5.05px;}.cls-28{fill:#c9c9c9;}.cls-32,.cls-35{stroke-width:4.21px;}.cls-33{stroke-width:4.84px;}.cls-34{stroke-width:3.79px;}</style></defs><polygon class="cls-45" points="402.81 -2 434.67 74.56 480.85 5.69 497.15 86.99 555.88 28.45 556.01 111.38 625.04 65.41 608.99 146.77 685.65 115.16 654.04 191.82 735.4 175.77 689.43 244.8 772.36 244.93 713.82 303.66 795.12 319.96 726.25 366.14 802.81 398 726.25 429.86 795.12 476.04 713.82 492.34 772.36 551.07 689.43 551.2 735.4 620.23 654.04 604.18 685.65 680.84 608.99 649.23 625.04 730.59 556.01 684.62 555.88 767.55 497.15 709.01 480.85 790.31 434.67 721.43 402.81 798 370.95 721.43 324.77 790.31 308.47 709.01 249.74 767.55 249.61 684.62 180.58 730.59 196.63 649.23 119.97 680.84 151.58 604.18 70.22 620.23 116.19 551.2 33.26 551.07 91.8 492.34 10.5 476.04 79.38 429.86 2.81 398 79.38 366.14 10.5 319.96 91.8 303.66 33.26 244.93 116.19 244.8 70.22 175.77 151.58 191.82 119.97 115.16 196.63 146.77 180.58 65.41 249.61 111.38 249.74 28.45 308.47 86.99 324.77 5.69 370.95 74.56 402.81 -2"/><g><g><g><g><path class="cls-39" d="M177.57,465.81c-3.83-.19-9.44-.06-13.27-.25-1.07-.05-2.15-.11-3.16-.47-1.41-.51-2.54-1.56-3.63-2.59-1.88-1.78-4.55-3.12-6.43-4.9-2.36-2.23-6.22-5.19-7.86-8.01-1.99-3.43-.47-7.19-1.1-11.11-.07-.45-.19-.97-.59-1.19-.47-.26-1.04,.04-1.44,.39-1.84,1.61-2.25,4.26-3.4,6.41-.23,.44-.6,.92-1.1,.88-.29-.02-.54-.23-.76-.42l-10-8.8c-.83,.15-.57,1.41-.13,2.13,1.05,1.74,1.19,3.07,1.83,5.01,.22,.65,.94,2.16,.27,2.25-.23,.03-.46-.08-.67-.18-2.55-1.27-5.15-3.24-7.7-4.5-.49,.02-1.9,1.43-1.63,1.84,.27,.41,2.03,2.21,2.49,2.39,2.62,1.01,4.16,2.15,6.37,3.71-2.75,1.74-7.02-.32-9.33,1.98-.14,.14-.27,.3-.29,.49-.05,.45,.48,.72,.92,.84,2.15,.61,4.35,1.02,6.56,1.24,.48,.05,.99,.1,1.35,.41,.81,.7,.57,1.64-.27,2.3s-2.26,1.52-2.77,2.46c-.16,.29-.25,.66-.11,.96,.21,.46,.8,.57,1.3,.59,4.68,.18,9.27-2.69,13.85-1.72,3.44,.73,6.03,3.45,8.55,5.9,2.52,2.44,5.19,4.73,7.99,6.85,3.61,2.74,7.58,5.24,12.04,6.06,2.92,.53,5.92,.31,8.88,.09l7.63-.57"/><path d="M177.57,464.76c-3.82-.18-7.65-.09-11.47-.18-1.93-.05-4,.04-5.69-1.02-.79-.5-1.47-1.16-2.15-1.8-.74-.69-1.56-1.3-2.38-1.89-1.6-1.13-3.16-2.21-4.61-3.53s-2.86-2.5-4.23-3.82c-1.24-1.21-2.59-2.55-3.27-4.17-.78-1.86-.56-3.96-.47-5.92,.05-1.05,.08-2.11-.02-3.16-.09-.97-.18-2.17-1.07-2.77-1.85-1.25-3.7,1.13-4.46,2.57-.44,.83-.77,1.72-1.11,2.59-.14,.36-.28,.72-.43,1.07-.09,.2-.18,.4-.28,.6-.03,.07-.36,.53-.36,.6,.03,.19-.25-.34,.1,.05h.14l-.15-.09c-.14-.18-.36-.32-.53-.47l-1.39-1.22-2.69-2.36c-1.79-1.57-3.55-3.19-5.37-4.73-.87-.73-2.01-.22-2.34,.81-.25,.77,.01,1.65,.36,2.34,.41,.82,.82,1.57,1.09,2.45s.47,1.74,.77,2.58c.11,.3,.23,.59,.33,.89,.05,.15,.07,.33,.14,.47,.04,.09-.05,.03,0,.08,.03,.02,.73-.58,.68-.65-.1-.12-.46-.23-.61-.31-.23-.12-.45-.24-.67-.37-.49-.28-.97-.57-1.45-.86-.94-.58-1.86-1.17-2.8-1.74-.44-.27-.89-.53-1.35-.78-.5-.27-1.08-.69-1.67-.56-1.11,.25-2.74,1.84-2.39,3.08,.16,.54,.69,1.01,1.07,1.4,.44,.46,.9,.91,1.4,1.31,.62,.49,1.38,.7,2.09,1.04,.83,.4,1.63,.87,2.41,1.37s1.6,1.09,2.39,1.65v-1.82c-1.06,.64-2.32,.64-3.52,.64-1.28,0-2.61-.07-3.86,.28s-3.08,1.36-2.72,2.88c.17,.73,.84,1.16,1.5,1.38,.87,.3,1.8,.48,2.7,.67,.82,.17,1.64,.31,2.47,.43,.45,.06,.9,.12,1.35,.17,.28,.03,.82,0,1.08,.17,.41,.26-.02,.59-.27,.8-.56,.46-1.18,.84-1.73,1.31-1.06,.89-2.28,2.61-.96,3.86,1.14,1.08,3.3,.65,4.68,.44,3.13-.47,6.16-1.82,9.36-1.71s5.46,1.98,7.59,3.97c4.87,4.57,9.76,9.33,15.69,12.53,3.45,1.86,7.1,2.83,11.02,2.83,4.14,0,8.31-.5,12.44-.81,1.34-.1,1.35-2.21,0-2.11-3.54,.27-7.09,.61-10.64,.77-3.33,.15-6.55-.16-9.64-1.46-2.86-1.21-5.46-3-7.92-4.88-2.66-2.03-5.19-4.22-7.59-6.55-2.05-1.98-4.11-4.14-6.73-5.37-2.88-1.35-5.88-1.15-8.9-.44-1.54,.36-3.06,.81-4.62,1.09-.68,.12-1.36,.21-2.05,.23-.33,.01-.72,.05-1.05-.02-.04,0-.25-.08-.25-.08,.08,.3,.13,.34,.17,.13,.05-.09,.11-.18,.17-.27,.76-.99,2.05-1.43,2.84-2.38,1-1.2,.82-3-.65-3.75-.77-.39-1.7-.37-2.53-.47-.93-.12-1.86-.28-2.78-.47-.47-.1-.93-.2-1.4-.32-.4-.1-.89-.33-1.3-.35l-.04-.02c-.28-.21-.27-.04,.03,.5,.06,0,.23-.21,.28-.24,.22-.16,.47-.28,.73-.37,1.23-.42,2.6-.26,3.87-.27,1.47,0,2.96-.16,4.24-.93,.72-.43,.64-1.37,0-1.82-1.12-.79-2.24-1.6-3.43-2.3-.56-.33-1.14-.63-1.74-.9-.42-.19-1.14-.43-1.41-.63-.57-.41-1.28-1.2-1.83-1.81l-.06-.07c-.07-.08-.07-.09-.02-.02,.05,.07,.05,.07,0,0l.1,.53c.06,.09-.07,.02,.06-.08,.04-.03,.07-.09,.11-.15,.14-.17,.33-.36,.48-.48,.03-.02,.14-.09,.18-.12,.2-.11-.12,.02,.06-.01l-.81-.11c1.94,.98,3.73,2.21,5.59,3.33,.83,.5,1.75,1.15,2.69,1.42s1.87-.24,1.94-1.25c.05-.67-.23-1.31-.46-1.93-.3-.8-.51-1.63-.75-2.45-.26-.88-.56-1.75-.99-2.56-.17-.32-.39-.62-.5-.97,0,0-.1-.42-.08-.42,0,0-.2,.22-.23,.23l-1.02-.27,6.95,6.11c1.12,.99,2.21,2.08,3.41,2.97s2.5,.25,3.17-.95c1.08-1.95,1.39-4.51,3.09-6.07,.11-.1,.38-.28,.43-.31-.15,.08-.06-.13-.13,0-.01,.02,.08,.35,.08,.34,.13,.65,.15,1.32,.16,1.98,.01,1.32-.11,2.64-.13,3.96s.07,2.69,.49,3.96c.4,1.2,1.06,2.23,1.84,3.21,1.54,1.94,3.46,3.56,5.31,5.19,.84,.74,1.64,1.54,2.52,2.24,1.06,.84,2.19,1.59,3.29,2.36,1.04,.72,1.96,1.52,2.89,2.37s2,1.68,3.23,2.16c1.41,.55,3,.56,4.5,.62,1.37,.05,2.73,.07,4.1,.08,2.76,.02,5.53,0,8.29,.14,1.35,.07,1.35-2.04,0-2.11h0Z"/></g><g><path class="cls-39" d="M239.72,458.41c1.44-.6,3-1.1,4.54-.83,.76,.13,1.47,.45,2.17,.76,.67,.3,1.35,.6,1.86,1.12,.38,.38,1.11,1.03,1.34,1.52,.51,1.09,1.4,2.3,1.6,3.49,.28,1.58-.49,4.45-2.23,3.14"/><path d="M240.12,459.83c.85-.35,1.75-.71,2.68-.82,.87-.11,1.67,.09,2.48,.42,.61,.25,1.38,.56,1.85,.95,.28,.23,.55,.52,.8,.78,.28,.29,.32,.32,.49,.65,.38,.72,.83,1.42,1.15,2.16,.07,.17,.13,.35,.18,.54,.03,.13,.1,.55,.06,.19,.03,.29,.02,.57,0,.86,0,.35,.05-.19-.01,.12-.04,.17-.07,.33-.12,.5-.02,.08-.16,.42-.02,.1-.05,.1-.12,.2-.16,.3-.1,.26,.18-.18-.06,.06-.08,.07-.05,.04,.11-.09,.22-.08,.25-.09,.1-.05,.04,0,.57,.02,.3-.02,.18,.09,.19,.09,.03,0-.08-.05-.16-.1-.23-.15-.65-.46-1.64-.12-2.02,.53-.43,.74-.12,1.55,.53,2.02,1.34,.95,2.99,.52,3.81-.86,.69-1.16,.84-2.72,.57-4.03-.18-.88-.63-1.7-1.06-2.48s-.77-1.53-1.35-2.18c-.54-.61-1.16-1.21-1.84-1.64-.75-.48-1.62-.81-2.44-1.14-2.23-.88-4.47-.44-6.62,.44-.74,.3-1.26,.98-1.03,1.81,.19,.7,1.07,1.33,1.81,1.03h0Z"/></g><path class="cls-36" d="M308.82,315.53c-.96-.49-1.88-1.05-2.76-1.67-1.39-1-2.75-2.33-2.91-4.03-.16-1.7,1.6-3.54,3.16-2.83-.56-1.68-1.12-3.57-.34-5.16,1.12-2.28,4.19-2.57,6.73-2.56,.94,0,1.93,.02,2.77,.45,.84,.43,1.48,1.41,1.21,2.31-.7-1.87,.93-4.07,2.91-4.31,1.98-.24,3.92,1.16,4.74,2.98,.82,1.82,.68,3.95,.08,5.86,1.86-.28,3.84-.12,5.48,.81s2.85,2.72,2.74,4.6c-.11,1.88-1.77,3.63-3.65,3.54,1.5,.36,2.13,2.38,1.45,3.77-.67,1.39-2.22,2.16-3.74,2.42-3.96,.69-6.06-.1-9.56-2.08"/><path class="cls-22" d="M306.21,321.83c1.24-1.85,1.86-4.08,3.23-5.84s3.96-2.96,5.82-1.73c1.46,.96,1.81,2.94,1.78,4.68-.05,2.62-.65,5.23-1.78,7.6"/><path class="cls-36" d="M264.79,327.67c-2.48-.05-6.14-.55-8.62-.6-1.31-.03-2.65-.06-3.87-.54-1.22-.48-2.57-1.51-2.46-2.81,.07-.89,.75-2.17,.6-2.77-.52-2.15-4.78-1.63-5.02-3.83-.12-1.08,.74-2.09,1.77-2.45s2.16-.2,3.21,.1c-.53-2.44-.81-5.54,1.29-6.89,.85-.54,1.91-.63,2.92-.71,2.16-.16,4.94,.05,5.64,2.11,.76-1.71,2.02-3.18,3.59-4.2,.94-.61,2.01-1.06,3.13-1.07,1.74-.02,3.43,1.15,4.02,2.79,.6,1.63,.06,3.61-1.27,4.73,2.33-.39,5.06-.66,6.72,1.01,1.72,1.74,1.26,4.81-.33,6.66s-3.97,2.8-6.25,3.68"/><path class="cls-48" d="M440.52,406.57s12.27,5.34,25.5,6.03l1.37,6.45-13.4-1.13s-10.29-.01-16.12-1.75c0,0,1.43-6.11,2.65-9.59Z"/><path class="cls-48" d="M445.64,395.12s3.85-6.41,5.86-7.52c0,0,5.51,6.52,13.66,5.01,0,0-.97,7.76-.81,8.46l-18.71-5.95Z"/><g><path class="cls-39" d="M445.71,369.77c-3.18-.53-6.12-2.39-7.96-5.05-1.07-1.56-1.76-3.67-.83-5.31,.6-1.05,1.75-1.69,2.94-1.94s3.92-.22,5.12-.13"/><path d="M446.04,368.55c-1.85-.32-3.61-1.06-5.08-2.23s-2.81-2.72-3.16-4.56,.99-2.85,2.62-3.12c-.23,.04,.29-.03,.34-.03,.21-.02,.42-.03,.63-.04,.4-.02,.8-.03,1.2-.03,.8,0,1.6,0,2.4,.07,.68,.05,1.26-.62,1.26-1.26,0-.72-.58-1.21-1.26-1.26-3.07-.22-7.06-.39-9.01,2.46-1.17,1.72-.81,3.93,.03,5.7s2.21,3.17,3.72,4.3c1.65,1.24,3.61,2.1,5.64,2.45,.67,.12,1.36-.18,1.55-.88,.17-.61-.21-1.44-.88-1.55h0Z"/></g><g><path class="cls-39" d="M488.58,357.83c2.63-.4,6.51-.49,8.57,1.19,.43,.34,.98,1.88,1.04,2.43,.04,.39-.31,2.06-.48,2.41-2.29,4.83-7.63,6.61-12.93,6"/><path d="M488.91,359.04c1.71-.25,3.69-.34,5.43,.07,.36,.09,.73,.19,1.07,.33,.2,.08,.39,.19,.58,.3,.07,.04,.36,.25,.29,.18-.05-.05,.16,.28,.2,.37,.08,.15,.12,.26,.18,.42s.12,.33,.17,.5c.02,.09,.05,.17,.07,.26,.05,.2-.02,.29,.01,.03,0,.05-.03,.35-.01,.23,.02-.16-.02,.12-.03,.16-.02,.09-.03,.19-.05,.28-.07,.36-.23,.75-.26,1.11,0,.06-.11,.29,.05-.08-.05,.11-.11,.22-.16,.33-.1,.19-.2,.37-.31,.55-.23,.38-.48,.75-.77,1.09-1.14,1.33-2.64,2.3-4.3,2.85-2.04,.67-4.17,.79-6.3,.56-.68-.07-1.26,.63-1.26,1.26,0,.74,.58,1.19,1.26,1.26,4.43,.48,9.38-.63,12.39-4.15,1.29-1.5,2.27-3.36,2.29-5.39,0-.92-.43-1.98-.88-2.76-.56-.98-1.62-1.51-2.65-1.88-2.42-.88-5.18-.71-7.69-.34-.68,.1-1.05,.95-.88,1.55,.2,.72,.88,.98,1.55,.88h0Z"/></g><path class="cls-48" d="M464.19,431.24c.24,0,6.68,1.05,6.68,1.05l-.36,8.1-6.32-9.15Z"/><polygon class="cls-38" points="436.34 439.33 440.59 439.25 459.78 441.96 463.26 446.25 435.77 443.62 436.34 439.33"/><polygon class="cls-48" points="436.46 436.3 436.95 429.94 451.97 430.59 457.71 439.33 436.46 436.3"/><polygon class="cls-38" points="437.73 418.59 444.96 420.22 468.24 422.09 469.86 429.37 449.5 427.75 437.19 427.11 437.73 418.59"/><path class="cls-49" d="M558.62,295.9c11.85,7.15,16.91,21.4,28.23,29.36,7.87,5.54,24.02,10.48,23.71,20.1-.04,1.4-.51,2.94-1.31,4.56-1.58,3.21-34.03-2.78-37.55,.5,.26,4.24,27.11,17.54,23.64,19.65-6.96,4.24-7.01,6.6-22.13,1.57-10.61-3.53-21.16-9.29-26.8-4.45-2.89,2.47-3.09,7.37-4.56,13.57-8.4,35.32-12.97,71.8-17.79,107.79-1.49,11.13-3.77,23.96-9.03,33.88-3.12,5.88-12.97,11.82-11.97,18.97,1.36,9.71,4.39,25.58,3.64,36.66-.14,2.08-18.58-3.63-18.54-1.5,.15,9.52,1.71,14.06-1.81,22.66-14.14-.99-26.57-2.29-40.71-3.28-.12-10.37,0-24.6-10.08-27.05-2.62-.64-7.68,.73-10.36,1.01-22.08,2.34-33.93,11.26-66.24,7.02l-.95,19.13c-21.94-1.86-43.27-2.2-65.21-4.06-.03-8.22-7.05-16.95-14.66-20.05-7.62-3.1-16.19-2.8-24.32-1.57-30.63,4.63-58.04,24.96-87.72,33.82-29.68,8.86-72.75,10.11-88.56-19.7,3.48,3.69-.56-5.92,4.99-3.79,7.8,2.99,29.17,13.54,40.3,10.57,13-3.47,21.42-6.48,33.11-13.29,38.2-22.25,70.03-51.34,102.54-81.31,18.11-16.7,38.06-33.02,61.75-39.78,52.98-15.1,77.52,3.91,116.72,7.92,9.19,.94,14.34-1.27,22.99-4.5,17.88-6.69,28.66-24.76,34.56-42.91,7.33-22.55,13.34-47.04,14.91-70.69,1.39-21.01,2.94-48.76,29.68-51.97,6.79-.81,13.71-2.38,19.56,1.15Z"/><path class="cls-33" d="M235.09,518.8c9.23-7,20.73-17.84,29.19-26.14,27.93-27.41,66.67-45.81,105.62-42.08,17.78,1.71,34.81,7.84,52.35,11.17,17.55,3.33,41.79,5.74,57.57-13.37"/><path class="cls-24" d="M410.54,490.71c-.07,1.23-2.58,3-2.97,4.17-.29,.86,.06,1.83,.66,2.5s1.41,1.12,2.2,1.56l7.79,4.24c2.79,1.52,5.66,3.06,8.81,3.41,.7,.08,1.43,.09,2.08-.18s1.2-.88,1.21-1.58c0-.54-.28-1.03-.57-1.49l-5.21-8.45"/><path class="cls-3" d="M424.98,445.26c2.68,2.38,4.37,8.09,5.55,11.47,1.01,2.9,2.91,5.4,4.48,8.04,1.57,2.64,2.87,5.65,2.48,8.7-.41,3.17-2.54,5.79-3.96,8.65-2.18,4.39-2.68,9.39-3.15,14.27-7.54-.71-12.74-2.19-19.48-5.65,2.29-4.59,4.03-7.22,6.01-11.24,1.98-4.01,2.66-8.92,.69-12.94-3.03-6.2-11.47-8.19-17.8-10.94-4.43-1.92-8.14-7.4-9.07-12.7"/><g><path d="M312.07,493.41c.06,1.62,.51,6.38,.57,8,0,.19,.02,.39,.1,.57,.24,.53,.96,.58,1.54,.56,6.23-.19,12.48,.26,18.63,1.32,2.82-1.32-1.66-3.55-2.59-3.87-4.19-1.48-6.78-4.98-8.88-8.88"/><path d="M310.81,493.41c.11,2.64,.43,5.27,.57,7.91,.06,1.12,.52,2.04,1.67,2.36,1,.28,2.15,.1,3.17,.09,2.31-.02,4.62,.05,6.92,.2s4.54,.38,6.79,.7c.52,.07,1.04,.15,1.56,.24,.67,.11,1.41,.36,2.05,.05s1.27-.86,1.47-1.58c.69-2.45-2.85-4.03-4.63-4.7-3.7-1.41-6.05-4.87-7.86-8.2-.78-1.43-2.96-.16-2.18,1.28,1.86,3.43,4.24,6.81,7.78,8.66,.49,.25,.99,.47,1.5,.67,.14,.06,.29,.11,.44,.16,.27,.09-.25-.12-.01,0,.52,.25,1.03,.5,1.52,.81,.14,.09,.27,.18,.4,.27,.31,.22-.16-.15,.12,.09,.11,.1,.22,.2,.33,.3,.05,.05,.1,.1,.14,.16-.09-.13-.1-.13-.02-.02,.03,.05,.06,.1,.09,.16-.07-.17-.08-.19-.04-.06-.02-.2-.02-.24-.02-.1,.04-.21,.04-.24,0-.1,.1-.28,.23-.23,0-.11,.21-.11-.26,.12-.3,.14l.97-.13c-4.5-.77-9.05-1.24-13.62-1.37-1.13-.03-2.27-.04-3.4-.03-.57,0-1.13,.02-1.7,.03-.19,0-.38,.02-.57,0-.16-.01-.42-.12-.14,.05,.15,.09,.07,.16,.09-.05,.01-.11-.01-.24-.02-.35-.02-.29-.04-.58-.06-.87-.05-.72-.11-1.44-.16-2.15-.12-1.5-.26-2.99-.32-4.49-.07-1.62-2.6-1.63-2.53,0h0Z"/></g><path class="cls-11" d="M293.31,483.32c4.56-1.19,6.98-1.72,13.67-3.92,.97-.32,2.22-.69,2.95,0,.51,.49,.77,1.19,.97,1.87,.99,3.28,.58,7.51,1.1,10.89,.19,1.24,1.99,1.98,2.68,2.03,.94,.07,2.48,.09,2.9,0,1.74-.36,2.06,.17,3.84-1.38,1.66-1.44,.65-4.2,.94-6.37,.39-3.03,1.24-5.26,1.63-8.29,.08-.6-.1-1.47-.38-2.01-.29-.55-1.08-1.43-1.64-1.71l-14.75-7.25c-1.35-.66-2-1.26-3.5-1.35-1.72-.1-4.12,.5-5.7,1.17l-8.64,3.63c-2.9,1.22-10.04,4.34-9.42,8.55,.72,4.88,10.23,4.93,13.34,4.12Z"/><path class="cls-36" d="M230.55,414.19c-1.14-.23-2.86,.97-3.4,2s-.34,2.4,.49,3.21c.48,.47,1.13,.77,1.46,1.35,.55,.98-.09,2.16-.5,3.21-.88,2.24-.64,4.8,.16,7.07,.8,2.27,2.12,4.32,3.43,6.34,2.28-3.71,2.72-8.49,1.18-12.56-.38-1-.87-1.98-.92-3.05,1.05-.2,2.12-.41,3.05-.94s1.7-1.46,1.76-2.52c-.33-.1-.72,.01-.95,.27"/><path class="cls-25" d="M330.84,436.56c8.48,5.9,14.04,16.5,14.24,26.83,.02,.96-.34,1.85-.5,2.8-.18,1.12-.84,2.67-2.12,4.47-2.71,3.78-5.78,7.39-8.46,11.19-.33,.47-1.2-1.02-2.63-1.75-1.9-.97-4.2-1.51-6.18-.71,.18-5.1,5.27-9.09,5.23-14.19-.03-3.74-2.63-5.03-5.86-6.9-3.24-1.87-7.57-.78-10.91-2.46-3.34-1.68-6.84-8.57-7.54-12.24"/><path class="cls-21" d="M323.05,355.31c.35-.56,1.83-1.86,2.49-1.84s1.29,.41,1.61,.99c.22,.41,.29,.87,.34,1.33,.34,3.03,.16,6.12-.53,9.09-.12,.5-.25,1-.51,1.43-.63,1.06-1.89,1.55-3.07,1.88"/><path class="cls-23" d="M270.73,334.04c-2.69-1.75-5.67-4.01-5.75-7.21-.01-.55,.04-1.53,.44-1.89,.33-.3,.28-.25,.66-.48,1.81-1.13,4.59-.72,6.28,.09s4.85,2.49,5.51,4.27"/><path class="cls-12" d="M367.79,458.48c3.17,1.9,5.04,8.27,2.64,11.09-1.14,1.34-2.77,2.15-4.3,3.02-2.76,1.57-5.34,3.46-7.67,5.62-1.26,1.16-2.49,2.49-2.88,4.16-.84,3.63,2.53,6.75,5.53,8.97l6.52,4.8c1.67,1.23,4.32,2.34,5.51,.64,.83-1.19,.13-2.81-.57-4.08l-2.42-4.35c-.57-1.02-1.16-2.11-1.16-3.28-.02-3.17,4.06-4.04,6.8-5.65,2.42-1.42,4.58-2.76,6.84-4.6s3.76-4.41,3.87-7.32c.18-4.98-2.97-8.26-4.1-13.11"/><path class="cls-29" d="M337.93,336.91c-.36,.38-.91,.71-1.32,.93-1.12,.61-2.51,1.08-3.61,.45-1.48-.86-1.26-3.26,.02-4.39,1.28-1.13,3.43-1.86,5.13-2.01,1.11-.1,1.6-.1,2.65,.22,.98,.3,1.76,.87,2.02,1.36,.4,.75,.61,1.37,.66,2.22,.13,2.48,.07,5.28-1.73,6.99-.64,.61-1.45,1.01-2.24,1.41-2.12,1.05-4.6,2.12-6.76,1.17-1.23-.54-2.64-1.49-3.57-2.45-1.65-1.72-2.8-3.87-2.8-6.53,0-2.35,.65-5,2.28-6.68,.89-.92,2.05-1.52,3.2-2.05,2.68-1.24,5.55-2.23,8.51-2.25s6.03,1.03,7.93,3.3c.8,.96,1.37,2.1,1.86,3.25,.87,2.08,1.2,4,1.38,6.56,.16,2.25-1.91,6.38-3.79,7.62"/><path class="cls-29" d="M369.64,338.98c.36,.72,.97,1.65,2.37,1.94,1.09,.23,3.13,.3,3.66-1.86,.26-1.08-.45-2.43-1.23-3.22s-1.88-1.21-2.98-1.37c-2.72-.4-5.85,.9-6.75,3.49-.29,.83-.33,1.72-.3,2.59,.06,1.71,.49,3.55,1.81,4.64,1.35,1.12,3.25,1.18,5,1.17,2.22,0,4.54-.05,6.48-1.13,2.72-1.52,4.36-5.34,3.31-8.27-.42-1.18-.74-1.86-1.31-2.98-.89-1.75-3.23-3.68-5.18-4.29-.91-.29-2.98-.71-3.93-.69-2.73,.05-4.53,.3-7.04,1.7-.69,.38-1.47,1.05-2.02,1.61-1.1,1.11-1.96,2.52-2.24,4.06-.49,2.71-.18,8.18,.71,10.78"/><path class="cls-25" d="M380.45,372.75c.01,2.23,1.02,6.08,2.45,8.19,.84,1.24,1.96,2.75,3.07,3.75,1.11,1,1.86,1.05,3.9,1.04-1.05,2.94-2.76,5.02-5.24,6.91-1.12,.86-2.41,1.59-3.81,1.72-2.93,.28-6.3-2-8.37-4.1"/><path class="cls-25" d="M332.66,378.99c1.21,4.22-2.46,10.8-6.71,11.89,1.94,2.26,4.52,4.13,7.47,4.51,2.95,.38,6.88-1.71,7.97-4.48"/><path class="cls-34" d="M402.78,377.68c-3,1.57-5.76,5.02-6.94,8.19-1.18,3.17-1.57,6.58-1.95,9.94-.4,3.54-.8,7.11-.41,10.66,.11,.99,.28,1.97,.28,2.97,0,.91-.15,1.81-.3,2.7l-2.15,13.18c-.94,5.73-1.85,11.72-.04,17.23,.12,.37,.27,.76,.59,.98,.26,.18,.59,.23,.91,.27,11,1.33,22,2.66,33,3.99,.24-3.33,.89-6.48,1.1-10.07,.13-2.25,.4-4.64,.44-6.89,.12-7.53,3.43-14.73,3.59-22.25,.22-10.77-6.14-22.03-5.61-32.79"/><path class="cls-4" d="M387.28,346.71c-.97-.26-1.98-.4-2.99-.42-.7-.01-1.43,.05-2.03,.4-1.01,.6-1.39,1.88-1.46,3.06-.16,2.95,1.12,5.84,2.93,8.17,.73,.94,1.56,1.81,2.57,2.45,2.57,1.63,5.85,1.46,8.88,1.24"/><path class="cls-4" d="M431.73,340.58c.97-.46,3.08-.95,4.15-.97s2.22,.49,2.67,1.46c.19,.42,.25,.88,.29,1.34,.18,1.86,.2,3.78-.35,5.56-.55,1.79-1.75,3.45-3.48,4.18-1.48,.63-3.18,.53-4.73,.98"/><path class="cls-11" d="M477.81,314.09c.37-5.16,3.22-10.33,5.65-14.9l13.57-25.59c.81-1.52,1.61-3.04,2.22-4.65,.92-2.42,1.37-4.99,1.97-7.5,1.36-5.65,58.73-139.94,61.6-144.98,1.48-2.6,3.54-5.35,6.51-5.68,.89-.1,1.83,.04,2.59,.51,1.29,.78,1.91,2.33,2.11,3.82,.73,5.49-58.28,139.23-61.09,144.01-1.97,3.35-3.52,6.93-5.04,10.5-7.55,17.8-14.38,35.91-20.45,54.27"/><path class="cls-1" d="M313.01,596.53c7.08,0,42.57,.76,49.65,.77-1.03,5.01,1.2,10.05,3.38,14.67,1.31,2.78,2.66,5.63,4.89,7.74,2.05,1.94,4.69,3.11,7.27,4.25l12.51,5.51c3.12,1.38,6.32,2.8,8.73,5.22,2.41,2.41,4.76,4.16,2.79,9.3-4,2.91-8.74,2.34-12.62,2.33-11.67-.02-25.76-.89-37.44-.91"/><path class="cls-35" d="M488.77,636.81c13.03-.47,45.08-2.3,58.09-3.11,1.18-.07,2.41-.16,3.42-.78,2.26-1.39,2.27-4.87,.77-7.06-1.5-2.18-4.01-3.4-6.35-4.63-8.87-4.64-16.96-10.62-25.01-16.57-2.61-1.93-5.34-4.01-6.6-7-1.4-3.3-.75-7.06-.08-10.58l1.44-7.6c-8.79-.77-17.56-1.74-26.3-2.91"/><path d="M444.66,597.73c-.12-6.86-.62-13.88-3.46-20.12-.77-1.71-2.05-4.62-3.1-5.96-1.8-2.3-5.74-1.55-8.87-1.09-9.55,1.41-19.02,5.14-29.64,7.52l-1.21,.27c-3.8,.85-7.73,1.74-11.72,2.16-7.42,.81-14.7,.07-22.76-.89-1.47-.17-3.14-.37-4.77-.96s-3.01-1.48-4.35-2.35l-.56-.36c-1.01-.64-2.18-1.18-3.37-1.72-1.78-.82-3.62-1.67-5.12-2.88-1.91-1.56-2.08-2.65-1.75-4.66l.14-.9c.19-1.49,.35-2.97,.46-4.47,.49-6.38,.13-12.3-1.07-17.62-.54-2.43-1.28-4.82-1.92-6.83-2.36-7.35-5.2-14.65-8.44-21.71,0,0-1.62-5.48-1.27-6.76s2.45,.88,2.45,.88c3.32,7.21,8.86,18.79,11.27,26.3,.67,2.11,1.44,4.6,2.02,7.19,1.28,5.73,1.67,12.07,1.16,18.86-.12,1.57-.19,1.7-.23,3.39v1.85c0,.3,.51,.73,.67,.89,.14,.12,.24,.2,.41,.32,1.08,.78,3.01,2.08,4.62,2.82,1.31,.6,1.39,.6,2.59,1.37l1.76,.91c1.14,.49,1.53,.5,2.7,.92,1.18,.43,4.85,1.38,6.16,1.54,7.8,.93,11.74,.37,18.74-.39,3.76-.4,7.1-.84,10.78-1.67l6.47-1.39c10.72-2.39,18.03-4.88,27.68-6.31,3.8-.58,8.34,.1,10.78,3.08,1.72,2.1,2.68,4.75,3.65,6.89,3.08,6.75,4.19,14.26,4.32,21.69l-5.28,.18Z"/><path class="cls-27" d="M340.34,592.02c.82-3.47,1.48-5.62,2.72-8.97,1.53-4.13,2.86-11.38,3.39-15.75"/><path class="cls-32" d="M357.84,596.63c.79-1.21,.93-2.72,1.02-4.17,.35-5.23,.43-10.47,.24-15.71"/><path class="cls-26" d="M501.96,540.76l1.92,6.93c.58,2.11,1.17,4.22,1.49,6.38,.27,1.85,.35,3.72,.42,5.58,.22,5.41,.69,12.99,.91,18.4"/><path d="M129.43,613.28c-11.59,0-23.82-2.14-35.24-8.18-4.76-2.52-8.49-5.29-11.39-8.45-3.57-3.89-6.11-8.66-7.34-13.79-.45-2.55,.66-3.77,2.12-4.61,1.87-1.07,4.7-.84,6.89,.56,.87,.56,1.8,1.01,2.73,1.46,1.01,.5,2.02,1,2.99,1.59,8.78,5.46,21.14,10.28,35.88,7.48,13.77-2.62,26.84-11.46,38.66-18.99,4.43-2.83,8.73-6.01,13.1-9.3,18.92-14.22,37.74-29.1,55.94-44.22l7.69-.02c-18.25,15.16-40.93,32.82-59.91,47.08-4.44,3.34-10,7.1-14.56,10.01-12.26,7.81-26.27,15.75-40.56,18.47-15.81,3.01-28.77-.89-38.47-6.93-.84-.52-1.73-.95-2.61-1.39-1.07-.52-2.12-1.08-3.15-1.69-1.91-1.14-1.92-.45-1.87,.28,.98,4.39,2.91,7.6,6,10.97,2.57,2.81,7.18,6.12,11.5,8.4,21.47,11.36,43.59,5.99,60.59,1.21,14.76-4.15,29.16-9.57,42.97-15.88,5.99-2.74,13.06-5.22,19.23-7.83,14.35-6.07,31.37-12.03,48.71-10.48,11.6,1.06,20.45,6.3,23.68,14.01,.33,.79,.57,1.96,.84,3.32,.27,1.34,.83,4.12,1.34,4.71l-2.16,3.59c-1.88-1-2.54-3.6-3.32-7.46-.2-1-.43-2.12-.6-2.53-3.88-9.26-16.43-11.1-20.18-11.44-16.43-1.51-32.82,4.29-46.69,10.16-6.12,2.58-12.28,5.4-18.25,8.13-13.96,6.38-28.39,12.97-43.46,17.2-8.82,2.48-19.66,4.57-31.12,4.57Z"/><path d="M282.65,643.14c.47-3.74,1-8.43,.96-12.2-.08-7.52,1.27-14.55,1.68-22.07,.35-6.5-.02-13.22,.53-19.54,21.14,1.94,37.94,2.41,59.66,1.05-2.76,7.54-4.41,15.54-6.14,23.38-.56,2.52-.91,6.8-.43,9.34,.74,3.89,3.65,6.96,6.51,9.71,5.24,5.03,10.74,9.8,16.46,14.27,4.02,3.14,8.35,6.38,10.26,11.11,.6,1.49,.81,3.46-.44,4.46-.47,.37-1.07,.53-1.65,.67-2.74,.64-5.12,1.06-7.91,1.4-6.06,.73-7.87-.15-14.85-.34-2.07-.06-6.67-.47-9.31-.48-2.92,0-5.85,0-8.76-.27l-28.32-2.58c-4.79-.44-9.59-.8-14.38-1.31-2.55-.27-5.45-.5-5.85-3.53-.6-4.43,1.44-8.67,1.99-13.06Z"/><path class="cls-38" d="M291.4,624.64c.72-7.32,.96-13.1,.76-20.37-.08-3.01-.73-7.31-1.73-10.15,6.9-.68,13.76,1.17,20.63,2.16,8.61,1.24,17.35,1.14,26.05,1.04-2.24,5.54-3.27,11.49-4.19,17.39-.7,4.49-1.27,9.37,.96,13.33,2.2,3.9,5.41,6.7,8.44,10.01,1.72,1.87,4.16,3.39,5.84,5.29,4.24,4.82,11.3,6.16,13.86,12.05,.86,3.31-2.7,4.08-3.23,4.19-.49,.1-2.09,.08-3.38,.06-.48,0-2.27-.15-2.74-.23-17.64-2.96-34.43-2.26-52.05-5.32-2.95-.51-6.26-.88-9.08-1.92-3.09-1.14-1.64-4-1.34-7.03,.67-6.76,.55-13.76,1.21-20.53Z"/><path d="M491.51,597.84c.08,6.01-.7,10.34,.06,15.47,1.42,9.61,7.86,18.48,16.28,23.34,4.83,2.79,10.68,4.1,14.5,8.17,4.11,4.38,5.58,14.24-.05,16.32-8.6,.74-11.84,.59-20.45-.05-6.78-.51-13.55-1.02-20.33-1.56-4.46-.36-8.93-.74-13.39-1.11l-14.09-1.19c-2.39-.2-4.95-.48-6.76-2.05-1.57-1.37-2.27-3.52-2.42-5.6-.15-2.08,.18-4.16,.33-6.24,.31-4.53-.28-9.07-.87-13.57l-2.21-16.9-1.11-8.45c-.28-2.17-1.72-6.4-1.11-8.46,.42-1.41,.38-1.11,2.2-1.14,1.41-.02,2.82,0,4.24,0,2.82,.02,5.65,.08,8.47,.17,5.64,.18,11.28,.51,16.91,.98,6.41,.53,13.43,.99,19.8,1.89Z"/><path class="cls-37" d="M487.13,602.46c-1.11,11.07,2.74,21.17,9.26,29.51,.7,.9,3.11,3.11,4.03,3.78,1.36,.98,3.07,2.61,4.3,3.48,4.4,3.09,8.58,4.69,12.7,8.23,1.21,1.04,2.38,2.24,2.83,3.77,.45,1.53-.14,3.17-1.54,4.1-.8,.53-2.4,1.28-3.09,1.27-2.82-.03-4.29,0-7.07-.41-10.14-1.48-12.33-1.64-22.57-2.1-1.71-.08-10.18,.17-11.89,.27-3.8,.23-7.19-.2-10.99-.2-1.83,0-5.57-.36-7.22-.52-2.08-.21-2.67-.39-4.14-2.26-.6-.77-1.35-2.77-1.72-3.68-1.72-4.21-.57-8.53-.96-12.54-.27-2.88-.13-5.53-.38-8.41-.37-4.23,.04-8.64-.87-12.78-.69-3.13-2.73-10.83-2.32-14.15,.1-.81,8.46,.08,10.83,.29,4.42,.39,10.56,.63,14.93,1.4,4.97,.88,10.82,.64,15.87,.96Z"/><path d="M539.95,318.54c.21-.08,.42-.15,.63-.22,.12-.04,.24-.06,.35-.1-.49,.17-.22,.05-.09,.03,.2-.04,.39-.08,.59-.11,.06,0,.11-.02,.17-.02,.2-.03,.11-.02-.26,.03,.1,0,.19-.02,.29-.03,.2-.02,.39-.03,.59-.03,.04,0,.09,0,.13,0,.22,0,.11,0-.3,0,.1,0,.2,0,.31,0,.45,.01,.9,.04,1.35,.08s1.05,0,1.5-.17c.19-.07,.66-.27,.65-.56-.02-.31-.33-.51-.59-.63-.47-.21-.97-.28-1.47-.32-2.3-.18-4.58-.09-6.76,.72-.22,.08-.63,.26-.65,.56s.37,.53,.59,.63c.46,.2,.98,.31,1.47,.32s1.03,0,1.5-.17h0Z"/><path d="M538.19,310.73l5.4,2.97c.44,.24,.89,.44,1.39,.55,.33,.07,.87,.16,1.21,.03,.22-.08,.46-.22,.37-.5-.1-.31-.43-.57-.69-.72l-5.4-2.97c-.44-.24-.89-.44-1.39-.55-.33-.07-.87-.16-1.21-.03-.22,.08-.46,.22-.37,.5,.1,.31,.43,.57,.69,.72h0Z"/><path d="M540.42,304.43c1.7,1.27,3.38,2.58,5.02,3.93,.36,.3,.93,.5,1.38,.62s1.03,.22,1.5,.14c.24-.04,.7-.11,.75-.42s-.22-.55-.44-.73c-1.64-1.35-3.31-2.66-5.02-3.93-.4-.29-.91-.49-1.38-.62s-1.03-.22-1.5-.14c-.24,.04-.7,.11-.75,.42s.22,.56,.44,.73h0Z"/><path d="M547.71,298.7l1.78,7.02c.06,.23,.44,.45,.62,.54,.35,.18,.78,.31,1.17,.35,.33,.04,1.41,.11,1.26-.5l-1.78-7.02c-.06-.23-.44-.45-.62-.54-.35-.18-.78-.31-1.17-.35-.33-.04-1.41-.11-1.26,.5h0Z"/><path d="M558.7,306.83c.25-1.09,.43-2.2,.52-3.32s.13-2.31-.35-3.3c-.11-.22-.49-.37-.69-.43-.37-.12-.82-.18-1.21-.16-.31,.02-1.44,.12-1.16,.69,.04,.09,.08,.18,.12,.28,.02,.06,.04,.12,.06,.19-.02-.07,0,0,0,.03,.06,.26,.09,.52,.1,.79,.04,.59,.02,1.18-.03,1.77-.09,1.09-.26,2.17-.51,3.23-.05,.21,.3,.42,.43,.48,.32,.16,.74,.25,1.1,.27,.43,.03,1.49,.08,1.62-.5h0Z"/><g><path class="cls-40" d="M545.45,316.85c-.72-3.3,.03-7.05,2.49-9.35,2.46-2.31,6.73-2.67,9.18-.34,1.09,1.04,1.73,2.46,2.27,3.87,1.21,3.15,2.06,6.48,1.98,9.85-.08,3.37-1.15,6.79-3.42,9.3-.52,.57-1.1,1.1-1.79,1.42-.64,.3-1.35,.42-2.05,.44-2.78,.09-5.63-1.48-6.78-4.02-.49-1.09-.67-2.29-.84-3.48l-1.11-7.78"/><path d="M546.97,316.43c-.65-3.23,.28-7.31,3.55-8.77,1.37-.61,3.06-.72,4.44-.09,1.83,.84,2.59,2.96,3.23,4.73,1.43,4.01,2.24,8.39,.96,12.55-.55,1.79-1.57,3.86-3.13,4.99-1.41,1.03-3.53,.68-4.97-.12-2.03-1.12-2.64-2.98-2.97-5.17-.42-2.74-.79-5.49-1.18-8.23-.12-.85-1.19-1.3-1.94-1.1-.91,.24-1.22,1.1-1.1,1.94,.45,3.17,.72,6.43,1.41,9.56,.53,2.39,1.91,4.41,4.04,5.64,2.01,1.17,4.64,1.64,6.88,.9,2.5-.82,4.26-3.39,5.29-5.69,2.33-5.23,1.59-11.1-.32-16.34-.88-2.41-1.97-4.93-4.31-6.25-1.92-1.09-4.29-1.25-6.4-.66-5.57,1.57-7.58,7.73-6.53,12.93,.4,1.99,3.45,1.15,3.05-.84h0Z"/></g><path d="M558.08,318.46c-.12,.08-.25,.15-.38,.22-.09,.05-.29,.2-.39,.19,.16,0,.25-.1,.07-.03-.07,.02-.14,.05-.21,.07-.17,.06-.35,.11-.53,.15-.07,.02-.14,.03-.21,.04-.24,.05,.07,.03,.1,0-.04,.05-.36,.03-.43,.03-.14,0-.29,0-.43-.01-.25-.01,.09,.03,.1,.02-.03,.03-.23-.04-.27-.05-.13-.03-.27-.07-.4-.11-.36-.12,.28,.15-.06-.02-.11-.06-.22-.12-.33-.19-.05-.03-.1-.07-.16-.11-.16-.1,.26,.23,.06,.04-.09-.09-.19-.17-.27-.26-.04-.05-.08-.09-.13-.14-.18-.19,.06,.07,.07,.1-.05-.11-.14-.21-.2-.32-.03-.05-.06-.11-.09-.16-.16-.28,.1,.34,.02,.03-.03-.12-.07-.24-.1-.36-.04-.17,.06-.09,.01,.14,0-.04-.01-.15-.01-.19,0-.07,0-.14,0-.21,0-.26-.02,.07-.02,.08-.02-.02,.07-.21,.06-.22l-.07,.18c.07-.11,.07-.12,0-.01l-.06,.08s.07-.08,.11-.12c.04-.04,.08-.07,.11-.11,.19-.19-.03,.03-.07,.05,.05-.02,.12-.08,.17-.11,.11-.07,.23-.13,.35-.2,.23-.13-.05,.03-.1,.03,.09-.02,.2-.07,.29-.1,.13-.04,.26-.07,.39-.1,.2-.05,.02,.07-.12,0,.03,.01,.19-.02,.2-.02,.13,0,.27,0,.41,0,.06,0,.15,.02,.2,.01-.12,.02-.33-.06-.07,0,.13,.03,.26,.06,.39,.1,.38,.12-.26-.14,.07,.03,.11,.06,.22,.12,.33,.19,.05,.03,.1,.07,.15,.11,.16,.11-.26-.23-.06-.04,.11,.11,.22,.22,.33,.33,.12,.13-.02,.09-.07-.1,.02,.06,.1,.14,.13,.19,.08,.12,.14,.24,.21,.37,.12,.23-.04-.09-.05-.12,.01,.08,.07,.18,.09,.27,.02,.06,.03,.12,.05,.18s.05,.34,.02,.07,0,.17,0,.24c.01,.25,.01-.12,.03-.15-.02,.04-.07,.21-.07,.25,0-.04,.18-.35,.05-.15l.15-.18c-.29,.29,0,.19,.87-.29l.8,.22c-.13-.06-.05,0,.23,.18,.19,.26,.24,.32,.15,.19-.04-.07-.09-.14-.14-.22-.14-.21-.28-.41-.46-.59-.78-.79-1.8-.46-2.67-.07-.04,.02-.09,.04-.13,.06-.15,.07-.11,.05,.12-.05-.08,.01-.24,.06-.32,.1,.32-.14,.72,.02,.96,.24-.21-.19,.19,.33,0,0s.06,.3,0,.02c-.08-.42-.03,.26-.01,0,.04-.44-.06,.28,0,0,.05-.16,.03-.11-.06,.14,.09-.14,.05-.1-.1,.11,.53-.63,.67-1.62,0-2.23-.59-.54-1.67-.68-2.23,0-.49,.58-.79,1.25-.76,2.02s.32,1.51,.84,2.08c.59,.65,1.43,.85,2.28,.65,.3-.07,.59-.22,.87-.35,.06-.03,.12-.05,.17-.08,0,0-.32,.11-.16,.07,.43-.12,.51-.04-.35-.27l-.66-.18c.07,.07,.05,.05-.05-.08-.18-.23-.08-.11-.05-.06,.04,.07,.08,.13,.12,.19,.21,.31,.43,.6,.75,.8,.95,.6,2.05,.03,2.57-.84,.69-1.16,.44-2.62-.12-3.78-1.09-2.24-3.89-3.3-6.21-2.47-.67,.24-1.26,.57-1.8,1.03-.67,.57-1.01,1.34-1.11,2.2-.14,1.26,.4,2.48,1.21,3.42,1.93,2.26,5.35,2.13,7.69,.65,.7-.44,1.04-1.43,.57-2.16s-1.41-1.04-2.16-.57h0Z"/><path d="M602.09,331.51c-2.81-1.87-6.1-3.3-9.04-4.7-3.57-1.7-6.22-4.01-9.15-6.29-4.03-3.12-5.94-7.07-9.07-11.39-4.73-6.51-12-13.02-19.89-15.78-8.72-3.06-18.68-.61-27.75,4.76-7.15,4.23-11.71,9.89-15.36,17.23-3.98,8-4.01,20.75-4.03,30.06v1.91c-3.83,34.09-9.98,66.05-29.94,99.98l3.04,3.15c20.35-34.6,30.95-68.75,31.11-103.11v-1.92c.02-8.9,.05-21.08,3.74-28.5,3.38-6.78,7.17-12.01,13.25-15.61,7.93-4.7,18.11-7.33,25.61-4.71,6.64,2.33,11.87,7.4,16.42,13.66,3.3,4.55,6.66,10.14,11.16,13.63,3.3,2.55,6.16,4.3,9.77,6.02,2.94,1.4,5.71,2.72,8.26,4.42,5.33,3.55,9.29,8.69,7.19,14.21-.06,.16-.65,.75-.86,.76-6.83,.26-9.68-.44-13.32-1.05-3.64-.61-25.58-3.76-34.75-4.62-.98-.09-1.96-.19-2.91-.42-3.27-.79-5.2-2.98-6.95-5.67-1.01-1.55-1.79-1.4-1.85,.51-.05,1.68,.33,3.38,1.13,4.86,1.29,2.39,2.22,4.47,4.46,6.01,1.08,.74,2.3,1.26,3.51,1.76,9.47,3.96,15.28,10.3,24.74,14.26,5.6,2.34,7.98,3.47,13.61,4.84,.03,0-1.12,1.07-1.1,1.1-3.74,2.24-5.03,3.7-10.36,2.81-4.12-.69-12.08-3.72-16.74-5.96-1.93-.93-12.16-3.56-15.23-3.72-9.26-.48-10.28,8.04-12.29,17.02-8.36,37.34-13.52,75.75-18.06,113.41l-.29,2.41c-1.48,12.48-2.09,17.65-10,29.18l-1.59,2.32q-5.28,7.71-10.3,13.1l-2.95,3.18c-1.04,1.07-8,9.66-8.4,16.33-.08,7.02-.36,13.62-.63,19.99-.27,6.41-.55,13.03-.64,20.13l4.21,.05c.08-7.03,.36-13.62,.63-20,.27-6.4,.55-13.03,.63-20.02,.29-4.75,6.06-12.36,7.25-13.59l2.98-3.21c5.18-5.56,5.29-5.69,10.69-13.59l1.59-2.32c8.5-12.39,9.65-16.87,11.13-29.3l.26-6.8c4.53-37.56,11.68-69.96,18.23-109.38,1.32-7.97,1.95-15.58,9.07-15.21,1.79,.1,10.17,2.39,12.07,3.31,4.61,2.22,9.9,3.06,16.04,5.1,5.51,1.82,11.47-.49,16.96-6.35,1.09-1.16-23.74-17.83-21.71-18.55,6.3-2.24,32.81,2.12,33.84-.58,3.01-7.94-.92-14.82-7.44-19.16Z"/><g><path class="cls-39" d="M451.3,385.99c-.92-1.42-1.44-2.15-2.29-3.61-.81-1.39-1.02-3.05-1.2-4.65-1.57-13.55-2.88-27.14-3.92-40.74-.28-3.66-.54-7.39,.32-10.95,.76-3.14,2.36-6.02,4.33-8.58,1.5-1.95,3.25-3.75,5.38-4.97,3.7-2.11,8.2-2.28,12.42-1.73,6.48,.84,12.9,3.37,17.53,7.98,6.74,6.72,8.83,17.03,7.71,26.48-1.12,9.45-5.05,18.31-8.93,27l-2.83,6.34c-.65,1.46-1.3,2.92-2.14,4.28-2.98,4.86-8.32,8.19-14,8.73-5.67,.54-8.55-1.36-12.38-5.58"/><path d="M452.39,385.35c-.87-1.34-1.95-2.69-2.58-4.17s-.71-3.13-.88-4.69c-.44-3.86-.86-7.73-1.26-11.59-.8-7.73-1.51-15.47-2.14-23.22-.31-3.78-.77-7.61-.61-11.4,.15-3.5,1.17-6.73,3-9.71,1.67-2.72,3.84-5.4,6.65-7s6.22-1.96,9.44-1.78c6.2,.35,12.68,2.43,17.48,6.46s7.36,9.42,8.5,15.3c2.67,13.77-3.55,27.13-9.02,39.39-.8,1.8-1.6,3.6-2.41,5.4-.69,1.55-1.41,3.09-2.36,4.5-1.62,2.4-3.88,4.32-6.44,5.64s-5.43,1.99-8.3,1.9c-2.35-.07-4.44-.88-6.27-2.38-1.07-.88-2.04-1.89-2.98-2.91-1.1-1.2-2.88,.59-1.79,1.79,1.95,2.14,4.08,4.15,6.81,5.23s5.86,.97,8.68,.39c3.14-.64,6.06-2.1,8.55-4.1,2.65-2.13,4.5-4.89,5.9-7.96,1.68-3.64,3.29-7.32,4.9-10.99s3.04-7.04,4.31-10.66c2.36-6.7,3.95-13.81,3.49-20.95-.42-6.48-2.41-12.88-6.5-18-4.21-5.27-10.54-8.47-17.05-9.83-3.45-.72-7.03-1.05-10.54-.53s-6.83,2.22-9.39,4.84-4.51,5.62-5.8,8.93c-1.42,3.62-1.54,7.52-1.31,11.35,.48,8.06,1.28,16.11,2.06,24.14,.4,4.12,.83,8.23,1.28,12.34,.22,1.97,.44,3.95,.66,5.92,.21,1.86,.37,3.75,1.17,5.47,.68,1.47,1.7,2.81,2.58,4.17s3.07,.1,2.18-1.28h0Z"/></g><g><path d="M456.18,310.75c-.63-1.32-1.26-2.67-1.51-4.11-.25-1.44-.07-3.02,.8-4.2,1.48-2,3.55-2.61,6.03-2.7,1.46-.05,2.6,.88,3.18,1.3,.45,.32,1.05,.8,1.3,1.3,.65,1.32,.63,2.26,.83,3.71,.2,1.45-.12,3.06-1.18,4.07"/><path d="M457.55,309.96c-.78-1.65-1.6-3.35-1.37-5.14,.17-1.35,1.21-2.41,2.5-2.98,.17-.07,.03-.01,0,0,.08-.03,.15-.06,.23-.08,.18-.06,.37-.12,.56-.17,.16-.04,.33-.08,.5-.11,.11-.02,.23-.04,.34-.06,.04,0,.27-.03,.1-.02,.42-.05,.86-.09,1.29-.08,.21,0,.12,0,.33,.04,.09,.02,.17,.05,.26,.07,.05,.02,.36,.15,.19,.07,.52,.24,1.17,.69,1.53,.98,.63,.5,.82,.98,.99,1.81s.32,1.74,.3,2.67c-.01,.78-.22,1.47-.78,2.03-1.44,1.44,.79,3.67,2.23,2.23,.84-.84,1.4-1.93,1.59-3.1,.2-1.24,.02-2.43-.14-3.67s-.43-2.41-1.16-3.38c-.62-.82-1.53-1.46-2.4-1.99-1.94-1.2-4.37-1.1-6.48-.4s-4.06,2.31-4.82,4.51c-.99,2.87,.27,5.79,1.48,8.36,.36,.77,1.47,.97,2.16,.57,.79-.46,.93-1.39,.57-2.16h0Z"/></g><g><path class="cls-40" d="M452.84,348.09c-.94-2.69,1.2-4.98,3.9-5.73,2.69-.75,5.86,.72,6.9,3.32,.54,1.33,.53,2.81,.52,4.24,0,.89-.05,1.87-.68,2.5-.32,.32-.76,.5-1.2,.63-3.77,1.13-8.23-1.21-9.44-4.96"/><path d="M454.05,347.75c-.29-.89-.23-1.56,.25-2.32,.42-.67,1.2-1.25,1.99-1.59,1.7-.75,3.69-.45,5.06,.78,.8,.72,1.19,1.5,1.4,2.57,.12,.59,.13,1.21,.14,1.81s.04,1.2-.03,1.77c-.05,.4-.14,.72-.51,.91s-.99,.32-1.26,.35c-1.01,.13-1.84,.02-2.78-.27-1.92-.6-3.63-2.11-4.27-4.01-.22-.65-.87-1.07-1.55-.88-.63,.17-1.1,.9-.88,1.55,.89,2.66,3,4.65,5.61,5.62,1.17,.44,2.48,.64,3.73,.52,1.52-.14,3.24-.58,3.99-2.04,.36-.7,.45-1.49,.48-2.27,.03-.86,.03-1.74-.06-2.6-.16-1.6-.63-3.05-1.69-4.29-1.76-2.07-4.84-2.97-7.43-2.18-3.09,.93-5.73,3.85-4.62,7.23,.21,.65,.87,1.07,1.55,.88,.64-.17,1.1-.9,.88-1.55h0Z"/></g><g><path class="cls-40" d="M474.18,346.83c1.24-3.24,4.73-3.22,7.59-2.18,.71,.26,1.39,.63,1.89,1.19,1.04,1.15,1.11,2.95,.49,4.37-1.01,2.31-3.8,3.67-6.24,3.05-2.44-.62-4.73-4.03-3.73-6.42"/><path d="M475.4,347.17c-.07,.17,.11-.23,.1-.21,.04-.08,.08-.16,.13-.23,.07-.11,.13-.22,.21-.32-.11,.15,.01-.01,.03-.04,.13-.15,.27-.29,.42-.42,.26-.23-.18,.09,.12-.08,.1-.06,.19-.12,.3-.18,.08-.05,.17-.09,.26-.13,.19-.09-.27,.08,.07-.02,.19-.05,.37-.12,.56-.16,.1-.02,.19-.04,.29-.05,.22-.04-.3,.01,.08,0,.24-.01,.48-.03,.73-.02,.21,0,.41,.02,.62,.04,.04,0,.25,.03,.04,0,.13,.02,.25,.04,.37,.06,.44,.08,.87,.19,1.3,.33,.87,.28,1.66,.7,2.04,1.46,.71,1.43-.19,3.33-1.47,4.18-.19,.13-.39,.24-.59,.34-.24,.12-.2,.1-.46,.19-.45,.15-.82,.22-1.14,.24-.52,.03-.76,0-1.15-.1-.12-.03-.23-.07-.34-.11-.23-.08-.09-.04-.04-.01-.23-.11-.45-.23-.66-.37-.29-.2-.69-.57-1.01-.96-.18-.22-.49-.71-.67-1.1s.06,.2-.08-.19c-.04-.12-.08-.25-.12-.37-.03-.1-.05-.21-.08-.31-.01-.06-.03-.12-.04-.19,.02,.13,.01,.12,0-.04,0-.08-.01-.16-.01-.25,0-.05,.04-.53,0-.27,.04-.24,.11-.47,.2-.7,.25-.63-.28-1.39-.88-1.55-.72-.2-1.3,.25-1.55,.88-.92,2.32,.42,5.11,2.2,6.64,1.02,.87,2.15,1.39,3.49,1.51s2.61-.22,3.74-.82c2.41-1.29,3.88-4.02,3.28-6.74-.63-2.89-3.68-4-6.3-4.28-1.28-.14-2.57,.04-3.73,.59-1.31,.62-2.15,1.79-2.67,3.1-.25,.63,.28,1.39,.88,1.55,.72,.2,1.3-.25,1.55-.88h0Z"/></g><path d="M467.67,368.09c1.83-.36,3.65-.71,5.48-1.08,.75-.15,1.54-.44,1.78-1.26,.25-.87-.31-1.86-.57-2.67-1.11-3.42-1.91-6.94-2.35-10.51-.07-.56-.43-1.05-1.05-1.05-.52,0-1.12,.48-1.05,1.05,.27,2.22,.65,4.42,1.17,6.6,.26,1.08,.54,2.15,.86,3.22s.82,2.09,1,3.15v-.56c.28-.14,.3-.17,.06-.08-.13,.03-.27,.06-.4,.08-.24,.05-.48,.09-.71,.14l-1.55,.3-3.21,.63c-1.33,.26-.77,2.29,.56,2.03h0Z"/><g><path class="cls-40" d="M456.43,368.98c2.01,.97,4.28,1.56,6.29,2.53,.88,.42,2.03,.67,2.96,.99,2.94,1,6.14,.85,9.25,.68-1.5,.83-2.09,2.7-3.37,3.85-1.25,1.13-3.02,1.46-4.7,1.53-1.86,.08-3.85-.16-5.32-1.3-1.03-.8-1.7-1.97-2.35-3.1l-2.76-4.85"/><path d="M455.79,370.07c1.53,.73,3.14,1.26,4.73,1.87,.76,.29,1.48,.65,2.23,.95s1.47,.48,2.21,.71c1.62,.51,3.24,.83,4.94,.93s3.35,0,5.02-.08l-.64-2.35c-.86,.51-1.49,1.24-2.07,2.04-.49,.69-.92,1.44-1.56,2.01-1.32,1.17-3.45,1.24-5.12,1.15-.86-.05-1.77-.2-2.54-.6-.86-.44-1.47-1.13-1.99-1.93-1.27-1.96-2.34-4.07-3.5-6.1-.8-1.41-2.99-.14-2.18,1.28,1,1.77,1.99,3.54,3.01,5.3,.91,1.57,2.03,3.05,3.73,3.81s3.48,.88,5.26,.75,3.56-.57,4.96-1.74c1.27-1.07,1.82-2.93,3.26-3.78,1.04-.61,.65-2.42-.64-2.35-1.6,.09-3.2,.17-4.8,.09s-3.01-.39-4.49-.85c-.67-.21-1.36-.37-2.02-.63-.71-.28-1.39-.62-2.11-.9-1.48-.58-3-1.05-4.44-1.73-.62-.29-1.36-.17-1.73,.45-.32,.55-.17,1.44,.45,1.73h0Z"/></g><path d="M465.59,390.75c-2.03,6.09-1.42,12.83-.33,19.04,1.18,6.73,3.45,13.2,4.55,19.94,.64,3.91,.82,7.96,0,11.86-.17,.83,.24,1.71,1.1,1.94,.78,.22,1.77-.26,1.94-1.1,1.53-7.37-.02-14.82-1.87-21.98-1.6-6.2-3.25-12.41-3.52-18.85-.14-3.43,.07-6.76,1.16-10.01,.27-.81-.31-1.73-1.1-1.94-.86-.24-1.67,.29-1.94,1.1h0Z"/><path d="M446.63,462.22c-1.99-1.8-3.97-3.63-5.73-5.66-1.64-1.89-3.16-4.07-3.84-6.41-.16-.54-.26-1.09-.35-1.65-.02-.1-.03-.2-.04-.31,.05,.33-.02-.2-.03-.21-.04-.3-.07-.61-.09-.92-.11-1.25-.17-2.5-.19-3.75-.05-2.6,.03-5.21,.22-7.8,.2-2.76,.55-5.49,.72-8.25,.19-3.06,.43-6.07,.9-9.08,.84-5.4,2.06-10.76,4.05-15.86s5.17-10.38,9.26-14.45c1.44-1.44-.79-3.67-2.23-2.23-7.99,7.95-11.88,18.78-13.78,29.68-.54,3.11-.97,6.25-1.19,9.4s-.46,6.18-.75,9.27c-.48,5.11-.67,10.42,.14,15.5,.5,3.13,2.18,5.86,4.13,8.29s4.26,4.58,6.57,6.67c.63,.57,1.61,.62,2.23,0,.58-.58,.63-1.66,0-2.23h0Z"/><path d="M435.86,430.14c5.36-.05,10.7,.55,16.07,.61,2,.02,3.98,.03,5.97,.2,2.11,.18,4.21,.42,6.3,.7,1.9,.25,4,.55,6.06,.85,.84,.12,1.7-.21,1.94-1.1,.2-.74-.25-1.82-1.1-1.94-4.06-.58-8.13-1.18-12.21-1.57-1.92-.18-3.83-.29-5.75-.28-2.72,.01-5.45-.14-8.16-.3-3.03-.18-6.07-.35-9.11-.32-2.03,.02-2.04,3.18,0,3.16h0Z"/><path d="M435.28,439.48c8.22-.23,16.26,1.97,24.33,3.22,.84,.13,1.7-.21,1.94-1.1,.21-.75-.26-1.81-1.1-1.94-8.34-1.28-16.67-3.57-25.17-3.33-2.03,.06-2.04,3.22,0,3.16h0Z"/><path class="cls-20" d="M461.51,447.22c1.18,.18,2.39,.36,3.48,.86,.97,.45,1.8,1.13,2.63,1.8,4.57,3.72,7.09,5.7,11.66,9.43-4.49,3.5-8.24,6.56-13.86,7.45-3.69,.59-7.46,1.05-11.16,.53-7.96-1.12-15.03-7.1-17.45-14.77-.46-1.46-.76-2.97-1.08-4.47-.21-.96-.67-2.65-.67-3.69,0-.78,6.09-.17,7.72,.07,6.25,.93,12.49,1.86,18.74,2.78Z"/><path d="M480.59,352.63c1.1,0,2.16-.97,2.11-2.11s-.93-2.11-2.11-2.11c-1.1,0-2.16,.97-2.11,2.11s.93,2.11,2.11,2.11h0Z"/><path d="M461.07,352.61c1.1,0,2.16-.97,2.11-2.11s-.93-2.11-2.11-2.11c-1.1,0-2.16,.97-2.11,2.11s.93,2.11,2.11,2.11h0Z"/><g><path class="cls-39" d="M444.94,418.8c8.42,9.15,15.08,24.38,24.09,32.94,7.2,6.85,12.47,8.98,21.66,12.77,1.1,.45,4.33,1.58,5.2,.78,.47-.44,2.84-1.69,2.95-2.33,.43-2.47,.65-3.42-.14-5.8-.79-2.38-1.69-3.18-4.13-3.76-1.34-.32-3.6-.48-4.97-.47-8.02,.08-15.45-5.93-20.5-12.16-5.05-6.23-8.3-13.69-12.1-20.75"/><path d="M443.89,419.84c3.15,3.44,5.76,7.32,8.3,11.24,2.72,4.19,5.32,8.46,8.19,12.55,2.78,3.95,5.81,7.65,9.44,10.84,3.37,2.96,7.06,5.44,11.09,7.4,2.14,1.04,4.33,1.97,6.52,2.88,1.86,.77,3.72,1.66,5.7,2.08,.94,.2,2,.36,2.93,.03,.25-.09,.71-.29,.87-.52,.07-.1-.27,.17,.03-.02,.37-.24,.73-.48,1.1-.72,.74-.49,1.61-1.02,2.03-1.83,.28-.54,.32-1.24,.41-1.85s.18-1.2,.19-1.81c.03-1.19-.25-2.38-.64-3.51-.35-1.02-.8-2.01-1.55-2.81-1.48-1.59-3.89-1.95-5.94-2.16-2.31-.24-4.6-.06-6.86-.62-2.39-.59-4.6-1.66-6.66-2.99-9.13-5.89-14.08-15.75-18.89-25.11-.62-1.21-1.25-2.42-1.9-3.62-.9-1.67-3.44-.19-2.55,1.49,2.54,4.74,4.83,9.62,7.6,14.24s5.87,8.66,9.77,12.13,8.2,6.15,13.18,7c2.22,.38,4.6,.21,6.75,.49,.5,.07,1,.17,1.49,.3,.24,.06,.47,.13,.7,.21,.09,.03,.19,.07,.28,.1,.1,.04,.09,.04-.02,0,.06,.03,.12,.06,.18,.09,.17,.1,.34,.19,.5,.3-.24-.16,.1,.1,.18,.17s.14,.15,.21,.23c.15,.18-.16-.29,.04,.06,.12,.2,.24,.4,.34,.61,.15,.31,.29,.72,.44,1.19,.09,.29,.17,.58,.24,.88,.06,.28,.1,.47,.11,.63,.09,1.12-.21,1.87-.27,2.95-.03,.54,.06,0,.05,.03-.07,.14,.23-.17,.07-.09-.13,.06-.27,.25-.38,.35,.2-.17-.18,.12-.25,.18-.22,.15-.44,.3-.66,.44-.29,.19-.59,.38-.88,.58-.13,.09-.54,.31-.52,.4,0-.04,.23-.12,.32-.18-.04,.02-.34,.09-.11,.04,.18-.04-.31,0-.41,0-.09,0-.18-.01-.27-.02-.45-.04,.16,.03-.11-.02-.48-.09-.95-.2-1.42-.34-.81-.24-1.6-.55-2.38-.87-2.1-.87-4.21-1.73-6.28-2.67-3.76-1.71-7.4-3.77-10.6-6.35-3.53-2.86-6.62-6.14-9.32-9.79-5.72-7.73-10.16-16.34-16.21-23.83-.67-.84-1.37-1.65-2.1-2.44-.54-.59-1.54-.55-2.08,0-.58,.58-.54,1.5,0,2.08h0Z"/></g><path class="cls-4" d="M382.04,319.52c-.59,3.15-1.15,11.69-.29,14.78,.51,1.81,1.25,3.54,2.01,5.26,5.4,12.26,11.47,24.23,18.17,35.84,1.69,2.93,3.66,6.04,6.85,7.17,2.64,.94,5.56,.31,8.27-.41,2.42-.64,4.92-1.38,6.76-3.08,2.59-2.4,3.32-6.16,3.86-9.66,2.62-16.7,5.99-42.5,7.05-59.37"/><path class="cls-4" d="M424.05,414.92c.69,.87,1.45,1.76,2.48,2.19,.78,.32,1.46,.79,2.28,.99,2.77,.67,4.73,1.36,6.98,1.43,.02,3.48-.75,5.21-.73,8.69,0,.36,.73,.7,.43,.91-.13,.09-.3,.12-.46,.14-4.46,.66-9.04-1.03-12.64-3.75s-6.36-6.39-8.85-10.15c-1.81-2.74-3.52-5.56-4.84-8.56-1.04-2.37-1.78-5.33-.19-7.37,2.87-3.68,6.17-.1,7.42,2.58,2.13,4.59,5,8.93,8.14,12.89Z"/><path class="cls-18" d="M413.24,413.24c1.91-1.98,4.1-3.67,6.49-5.03"/><g><path class="cls-40" d="M395.69,346.26c-4.47-.45-6.11-3.93-6.22-7.09-.04-1.01,.07-2.05,.51-2.97,.58-1.2,1.68-2.07,2.87-2.65,1.88-.91,4.11-1.16,6.08-.49s3.65,2.29,4.19,4.3c.21,.77,.25,1.57,.27,2.36,.03,1.28-.01,2.62-.64,3.73-.65,1.16-1.86,1.92-3.13,2.3s-2.55,.65-3.94,.5"/><path d="M395.69,345.2c-2.04-.23-3.75-1.37-4.57-3.26s-1.02-4.77,.61-6.36c1.83-1.8,5.02-2.39,7.37-1.34,1.13,.51,2.08,1.37,2.66,2.46,.65,1.23,.66,2.74,.6,4.1-.06,1.55-.62,2.78-2.02,3.54s-3.11,1.01-4.64,.87c-.57-.05-1.05,.52-1.05,1.05,0,.61,.48,1,1.05,1.05,3.35,.31,7.67-1.13,8.54-4.76,.42-1.74,.38-3.94-.14-5.65-.48-1.57-1.51-2.88-2.83-3.83-2.9-2.09-7.14-1.82-10.01,.19-1.45,1.02-2.47,2.43-2.73,4.21-.21,1.41-.1,2.91,.31,4.28s1.14,2.68,2.22,3.64c1.31,1.17,2.92,1.72,4.65,1.92,.57,.06,1.05-.53,1.05-1.05,0-.62-.49-.99-1.05-1.05h0Z"/></g><g><path class="cls-40" d="M417.65,344.95c-1.68-.34-2.51-1.56-3.44-2.79-.93-1.23-1.38-2.79-1.39-4.33,0-.54,.04-1.08,.21-1.59,.31-.93,1-1.69,1.81-2.23,2.65-1.79,6.5-1.23,8.82,.96,2.32,2.19,3.4,4.58,2.69,7.7-.09,.39-.57,1.45-.89,1.69-.79,.59-2.22,1.06-3.23,1.14-1.31,.1-3.5-.15-4.59-.55"/><path d="M417.93,343.94c-1.17-.27-1.89-1.08-2.59-2.01-.83-1.1-1.37-2.29-1.45-3.67s.33-2.58,1.56-3.39c.94-.61,2.02-.89,3.13-.87,2.38,.03,4.42,1.39,5.75,3.31,.62,.9,1.08,1.92,1.17,3.02,.08,1.03,0,2.27-.64,3.13-.21,.28-.84,.53-1.3,.68-.59,.19-1.17,.32-1.79,.33-1.28,.03-2.63-.11-3.85-.54-1.28-.45-1.83,1.59-.56,2.03,1.37,.48,2.96,.64,4.41,.61s3.31-.46,4.44-1.47c1.04-.94,1.36-2.65,1.41-3.97,.06-1.47-.32-2.93-1.04-4.22-1.56-2.79-4.34-4.78-7.56-5.01s-6.79,1.6-7.2,5c-.25,2,.29,4.16,1.48,5.78,1.07,1.47,2.21,2.85,4.07,3.27,1.32,.3,1.88-1.73,.56-2.03h0Z"/></g><path d="M415.79,328.48c.07-.1,.16-.19,.25-.27-.12,.08-.09,.06,.08-.05-.07,.02-.66,.24-.2,.1,.28-.07,.24-.07-.11,.02,.14-.03,.28-.05,.42-.07-.44,.07,.13-.01,.27-.02,.08,0,.96-.02,.56-.03,.23,0,.47,.01,.7,.03,.27,.02,.55,.04,.82,.07,.11,.01,.26,.04,.52,.08,2.13,.37,4.18,1.07,6.21,1.79,1.08,.38,2.43,.24,3.47-.24,.47-.22,1.77-1.12,.66-1.52-2.86-1.01-5.73-1.97-8.76-2.29-1.63-.17-3.29-.11-4.9,.14s-3.4,.74-4.45,1.99c-.69,.82,.43,1.18,1.13,1.21,.97,.04,2.65-.12,3.34-.95h0Z"/><path d="M394.68,330.76c.07-1.78,1.77-2.71,3.19-3.14,1.04-.32,1.71-.41,2.81-.43,.17,0,.24,0,.03,0,.13,0,.25,.01,.38,.02,.21,.02,.56-.01,.75,.08l-.23-.04c.09,.02,.19,.03,.28,.05,.12,.02,.25,.05,.37,.08,.07,.02,.48,.12,.13,.03-.39-.11,.19,.07,.22,.07,.55,.18,1.2,.33,1.79,.29,.29-.02,.81-.1,.93-.44,.29-.86-1.58-1.6-2.07-1.76-2.84-.93-5.92-1.2-8.83-.41-1.89,.51-4.44,1.73-4.53,4-.04,.96,1.31,1.52,2.07,1.76,.56,.18,1.19,.35,1.79,.29,.25-.03,.91-.08,.93-.44h0Z"/><path d="M410.32,348.89c.77,1.12,1.04,2.55,1.61,3.77s1.21,2.27,2,3.3c1.6,2.09,3.6,3.84,5.92,5.1l-.48-1.19-.05,.13,.27-.46c.11-.13,.15,0,0-.04-.16-.04-.37,0-.54,0-.38,0-.77,0-1.15,.02-.74,.03-1.47,.1-2.21,.2-1.5,.2-2.96,.55-4.39,1.04-1.27,.44-.73,2.47,.56,2.03,1.66-.57,3.37-.96,5.12-1.11,.85-.07,1.69-.05,2.53-.07s1.56-.31,1.88-1.17c.16-.42-.1-.98-.48-1.19-2.1-1.14-3.97-2.72-5.39-4.66-.7-.96-1.31-1.99-1.8-3.07-.55-1.21-.8-2.57-1.57-3.69s-2.59-.06-1.82,1.06h0Z"/><g><path class="cls-40" d="M405.58,369.1c4.62,.49,10.47,.97,14.66-.95,.36-.16,.83-.32,1.1-.04,.07,.08,.11,.18,.15,.28,.68,2.06-.6,4.36-2.5,5.54s-4.27,1.43-6.54,1.41c-.78,0-1.58-.05-2.29-.34-1.26-.52-2.03-1.73-2.72-2.86l-1.59-2.63"/><path d="M405.58,370.4c2.66,.28,5.33,.52,8.01,.41,1.37-.05,2.74-.2,4.07-.47,.63-.13,1.26-.3,1.87-.51,.29-.1,.58-.22,.86-.33,.03-.01,.5-.2,.5-.22-.02-.07,.32,.37-.21-.04l-.47-.47c.67,1.01-.36,2.71-1.12,3.45-1.15,1.12-2.85,1.58-4.41,1.74-.89,.09-1.78,.11-2.67,.08-.76-.03-1.47-.16-2.06-.68s-1-1.21-1.4-1.88c-.53-.87-1.06-1.75-1.59-2.63-.87-1.43-3.11-.12-2.24,1.31,1.47,2.42,2.88,5.8,6,6.33,1.47,.25,3.03,.18,4.5-.01s3.09-.6,4.42-1.43c2.27-1.41,4.01-4.29,3.1-7-.27-.82-.94-1.4-1.83-1.39-.73,0-1.39,.42-2.06,.66-1.2,.42-2.45,.67-3.71,.79-3.18,.31-6.39,.03-9.55-.31-.7-.07-1.3,.65-1.3,1.3,0,.76,.6,1.22,1.3,1.3h0Z"/></g><path d="M395.93,341.67c4.07,0,4.07-6.32,0-6.32s-4.07,6.32,0,6.32h0Z"/><path d="M418.2,340.91c4.07,0,4.07-6.32,0-6.32s-4.07,6.32,0,6.32h0Z"/><path class="cls-2" d="M368.35,305.88l12.33,1.76,4.97-11.7c3.83,2.28,7.27,4.79,11.35,7.11,2.81-3.47,5-6.29,8.05-9.55l7.26,7.96c2.92-3.03,5.11-5.53,8.1-8.26,2.33,4.81,4.84,9.4,7.37,14.22l10.87-6.73c-1.62,6.19-3.12,12.7-4.77,19.51-8.49-1.72-16.43-2.2-25.08-2.58-4.32-.19-7.79,.4-12.05,1.24-2.21,.44-6.09,1.7-8.13,2.68-1.56,.75-7.46,3.18-7.46,3.18-1.94-2.15-5.23-6.58-6.6-8.92-1.99-3.4-4.4-6.5-6.23-9.91Z"/><path class="cls-46" d="M412.79,412s4.04-3.36,4.96-3.93l-3.36-6.42s-1.71-3.34-4.04-2.42c0,0-2.28,1.09-1.41,4.46,0,0,.48,3.25,3.85,8.31Z"/><path d="M445.79,340.03c-.34,.49,.05-.02,.16-.14,.19-.18,.38-.36,.58-.53,.46-.41,.92-.8,1.38-1.2,.33-.29,.67-.59,.98-.92,.53-.57,1.03-.93,1.75-1.29,1.42-.7,3.07-1.21,4.62-1.71,1.79-.57,3.61-1.07,5.46-1.46,6.76-1.46,13.62-1.44,20.24,.54,3.42,1.02,6.7,2.5,9.66,4.51,.71,.48,1.75,.14,2.16-.57,.46-.78,.14-1.68-.57-2.16-5.77-3.9-12.84-6.09-19.77-6.48-3.81-.22-7.67,.16-11.42,.88s-7.67,1.86-11.26,3.4c-.91,.39-1.75,.85-2.51,1.5-.48,.41-.89,.91-1.36,1.33-.96,.86-2.08,1.64-2.83,2.71-.49,.7-.13,1.76,.57,2.16,.79,.46,1.67,.13,2.16-.57h0Z"/><path class="cls-37" d="M444.85,336.49s-1.11-9.91,2.73-15.38c0,0,4.02-9.14,14.55-9.43,0,0,8.61-.59,15.77,3.96,0,0,4.25,1.98,7.69,6.93,0,0,3.91,5.89,4.55,11.36,0,0-10.49-5.54-19.51-5.25,0,0-10.19-.06-17.7,2.97,0,0-5,2.28-8.09,4.84Z"/><path d="M445.12,329.36c2.24-1.82,4.79-3.32,7.43-4.47s5.21-1.65,7.95-1.95c5.81-.65,11.76-.41,17.53,.54,3.21,.53,6.39,1.28,9.47,2.31,1.55,.52,2.21-1.92,.67-2.44-5.81-1.94-11.96-2.95-18.08-3.22-3.07-.14-6.14-.08-9.2,.24s-5.81,.78-8.55,1.88c-3.25,1.32-6.29,3.11-9.02,5.32-.53,.43-.45,1.34,0,1.79,.52,.52,1.26,.43,1.79,0h0Z"/><path class="cls-6" d="M343.75,393.35c-2.71,2.39-4.36,7.01-4.48,10.62-.13,3.61,.68,7.17,1.38,10.71,3.01,15.31,3.93,31,3.28,46.6-.07,1.72-.07,3.69,1.2,4.85,14.61-7.67,32.18-7.35,47.44-13.62-7.56-12.69-13.02-26.62-16.08-41.07-1.28-6.03-2.55-12.91-5.39-18.38"/><path class="cls-4" d="M330.52,352.79c1.09-1.55,2.56-2.78,4.14-3.82,7.18-4.72,16.31-5.39,24.87-4.61,2.28,.21,4.58,.51,6.69,1.39,1.81,.75,3.43,1.91,4.9,3.21,7.96,7.07,11.3,18.92,8.2,29.1-1.23,4.05-3.37,7.77-5.89,11.18-1.14,1.54-2.36,3.03-3.81,4.28-6.91,5.96-17.93,5.17-25.43-.04-6.46-4.48-10.73-11.61-13.22-18.95-2.18-6.42-4.7-15.7-.45-21.74Z"/><path class="cls-7" d="M361.29,362.56c1.14-1.09,2.83-1.32,4.4-1.45,3.03-.24,6.43,.36,9.47,.53-1.48,3.98-5,6.92-9.04,8.25-4.89,1.61-9.09-3.27-4.83-7.33Z"/><path class="cls-7" d="M346.4,359.51c1.02,.31,2.04,.72,2.79,1.47,1.23,1.24,2.08,2.66,2.23,4.4,.03,.3-.13,1.12-.54,1.77-.26,.41-1.26,.83-1.79,1.05-1.79,.72-3.88,.13-5.63-.67-2.11-.96-6.54-5.41-7.89-8.1-.22-.43,8.56-.62,10.83,.08Z"/><path class="cls-9" d="M368.29,381.98c-1.61-.37-4.65,1.2-5.33,1.88-1.28,1.27-1.95,2.8-2.72,4.42-1.11,2.33-3.72,2.11-5.83,.62-2.27-1.6-2.48-2.56-4.42-4.44-1.52-1.47-4.11-3.71-5.83-4.65,2.53,.53,8.75,2.21,11.37,2.34,3.6,.18,9.31-.96,12.77-.16Z"/><path d="M365.25,367.52c1.1,0,2.16-.97,2.11-2.11s-.93-2.11-2.11-2.11c-1.1,0-2.16,.97-2.11,2.11s.93,2.11,2.11,2.11h0Z"/><path d="M345.51,365.91c1.1,0,2.16-.97,2.11-2.11s-.93-2.11-2.11-2.11c-1.1,0-2.16,.97-2.11,2.11s.93,2.11,2.11,2.11h0Z"/><path class="cls-15" d="M360.93,414.1c5.63,1.22,11.79,2.38,16.91-.26,1.08-.56,2.17-1.29,3.37-1.19,1.16,.09,2.13,.97,2.67,2s.71,2.2,.87,3.35c.1,.72,.2,1.47-.03,2.15-.39,1.13-1.58,1.75-2.69,2.21-8.24,3.37-17.84,3.24-25.98-.36"/><path class="cls-24" d="M383.06,411.72c-.55,1.31,1.15,2.29,1.29,3.71,.14,1.33,.56,2.96,1.76,3.55s3.34-1.14,4.37-2c1.89-1.56,2.05-5.16,1.81-7.6-.17-1.68-.12-4.42-3.12-4.42-2.03,0-5.46,5.19-6.12,6.77Z"/><path class="cls-21" d="M290.05,382.96c-2.55,1.59-5.92,1.76-8.62,.44s-4.63-4.09-4.95-7.08c-.07-.63-.06-1.28,.19-1.86,.77-1.77,4.68-2.25,6.59-2.06"/><path class="cls-13" d="M294.13,404.67c1.58,8.23,3.17,16.47,5.5,24.52,1.54,5.31,3.47,10.65,7,14.91,6.81-2.19,13.65-4.39,20.7-5.64,1.4-.25,2.86-.48,4.04-1.28,1.91-1.3,2.64-3.85,2.4-6.14-.24-2.3-1.28-4.42-2.26-6.51-5.13-10.89-9.74-23.64-12.78-35.29-3.64,1.21-7.05,2-11.5,2.12-3.49,.1-6.64-2.04-10.14-2.44-6.15-.71-3.67,12.03-2.95,15.77Z"/><path class="cls-21" d="M322.62,349.47c1.1,11.47,1.55,22.57,.33,34.02-.11,1.06-.65,2.7-1.36,3.52-.65,.74-1.44,1.33-2.32,1.78-7.48,3.79-17.13,3.84-23.86-1.17-3.34-2.49-5.77-5.99-8.13-9.42l-10.8-15.71c-2.67-3.88-5.37-7.83-6.92-12.28-1.55-4.45-1.82-9.55,.31-13.75,2.14-4.21,6.31-6.93,10.29-9.45,1.95-1.23,3.93-2.48,6.12-3.18,3.3-1.04,6.59-2,10.04-2.21,3.04-.19,6.37,.01,9.38,.44,12.58,1.8,15.9,16.92,16.91,27.41Z"/><path class="cls-7" d="M278.6,356.86c-.41-1.25-.26-3.74,.16-4.98,.55-1.6,1.54-2.68,3.14-3.23,2.32-.8,4.78-1.18,7.23-1.14,.87,.02,1.82,.11,2.46,.7,.5,.45,.9,.74,1.29,1.3,1.08,1.52,1.57,3.17,1.94,5.08,.32,1.69-.24,5-1.12,6.13-1.64,2.12-6.5,2.79-8.96,2.2-3.51-.85-5.12-2.9-6.16-6.05Z"/><path class="cls-7" d="M304.12,338.77c1.86-.25,3.74-.31,5.61-.19,.77,.05,1.56,.13,2.26,.45,1.63,.74,2.43,2.54,2.9,4.23,1.76,6.32-4.44,13.48-11.15,9.45-4.42-2.66-6.04-13.08,.39-13.93Z"/><path class="cls-19" d="M275.95,344.49c1.29,1.51,2.42,3.17,3.34,4.94"/><path class="cls-19" d="M283.25,341.85c.18,1.8,.6,3.58,1.25,5.28"/><path class="cls-19" d="M289.08,339.34c1.75,2.23,1.7,5.69-.13,7.86"/><path class="cls-19" d="M297.98,335.09c1.13,1.88,2.11,3.84,2.93,5.88"/><path class="cls-19" d="M304.61,332.23c.61,1.43,.92,3.83,1.16,6.47"/><path class="cls-19" d="M310.3,338.52c.4-2.27,.98-4.51,1.72-6.69"/><path class="cls-19" d="M303.93,368.85c1.42,.88,2.91,1.78,4.57,1.88s3.52-.94,3.73-2.59c.14-1.14-.49-2.22-1.11-3.19l-1.82-2.89"/><path class="cls-28" d="M317.98,379.36c-1.59,1.29-2.9,3.9-4.69,4.89-.7,.39-1.51,.55-2.3,.69-2.92,.54-6.24,.91-8.6-.9-3.37-2.59-10.07-6.46-.67-6.19,2.54,.07,7.02,.39,9.54,.64,2.22,.22,5.36,.6,6.72,.87Z"/><path d="M306.15,351.14c1.65,0,3.24-1.45,3.16-3.16s-1.39-3.16-3.16-3.16c-1.65,0-3.24,1.45-3.16,3.16s1.39,3.16,3.16,3.16h0Z"/><path d="M289.51,359.32c1.65,0,3.24-1.45,3.16-3.16s-1.39-3.16-3.16-3.16c-1.65,0-3.24,1.45-3.16,3.16s1.39,3.16,3.16,3.16h0Z"/><path class="cls-43" d="M288.01,370.52c1.36,0,1.36-2.11,0-2.11s-1.36,2.11,0,2.11h0Z"/><path class="cls-43" d="M293.59,372.58c1.36,0,1.36-2.11,0-2.11s-1.36,2.11,0,2.11h0Z"/><path class="cls-43" d="M296.82,368.47c1.36,0,1.36-2.11,0-2.11s-1.36,2.11,0,2.11h0Z"/><path class="cls-43" d="M300.06,374.05c1.36,0,1.36-2.11,0-2.11s-1.36,2.11,0,2.11h0Z"/><path class="cls-43" d="M290.36,377.58c1.36,0,1.36-2.11,0-2.11s-1.36,2.11,0,2.11h0Z"/><path class="cls-43" d="M318.57,371.11c1.36,0,1.36-2.11,0-2.11s-1.36,2.11,0,2.11h0Z"/><path class="cls-43" d="M318.28,364.65c1.36,0,1.36-2.11,0-2.11s-1.36,2.11,0,2.11h0Z"/><path class="cls-43" d="M313.87,359.36c1.36,0,1.36-2.11,0-2.11s-1.36,2.11,0,2.11h0Z"/><path class="cls-43" d="M318.57,358.18c1.36,0,1.36-2.11,0-2.11s-1.36,2.11,0,2.11h0Z"/><path class="cls-16" d="M297.66,379.59c6.04,2.75,12.64,3.14,18.6,1.41"/><path class="cls-10" d="M277.7,412.83c11.72,10.84,20.24,24.58,27.64,38.73,1.78,3.39,4.26,6.1,1.55,8.81-1.82,1.82-4.59,4.78-7.36,6.22-7.28,3.77-17.7,5.41-20.84,13.48-1.4,3.6-4.94,6.9-8.75,6.26-1.74-.29-3.27-1.29-4.68-2.36-3.67-2.8-6.82-6.27-9.26-10.18-3.07-4.93-4.97-10.5-7.94-15.49-2.85-4.79-4.34-9.3-6.69-14.35-3.46-7.43-2.61-16.91-.58-23.57"/><path class="cls-5" d="M268.37,374.08c1.24,.26,2.53,.58,3.51,1.38,.93,.76,1.49,1.87,1.99,2.96,4.58,10.01,5.97,21.44,3.92,32.26-.34,1.8-.8,3.65-1.97,5.05-1.65,1.99-4.55,3.13-6.92,4.17-8.16,3.56-12.26,3.71-19.71,2.51-1.63-.26-4.64-.97-6.22-1.43-1.6-.46-3.03-1.39-4.42-2.29l-6.31-4.1c-1.18-.77-1.93-.98-3.05-1.84-1.64-1.26-3.82-3.27-4.93-4.54-4.35-5.02-5.89-8.79-7.34-12.56-1.97-5.13-2.05-8.24,2.54-11.44,8.94-6.23,19.56-10.03,30.4-11.08,6.17-.6,12.43-.3,18.5,.96Z"/><path class="cls-19" d="M268.04,446.64c2.28,1.69,6.45,2.81,8.3,3.02"/><path class="cls-31" d="M285.28,421.07c-1.51,5.91,.55,14.58,.24,20.67-.12,2.45-.7,4.85-1.3,7.23-1.68,6.61-3.63,13.31-7.52,18.91-3.89,5.6-10.08,10.02-16.9,10.13"/><path class="cls-17" d="M270.29,406.21c.48-.03,1.39-.53,1.53,0,.07,.27-.31,1.12-.42,1.38-1.36,3.3-4.28,5.52-7.37,6.6-3.09,1.08-6.37,1.17-9.6,1.25-1.42,.04-9.88,.51-9.72-1.12,.17-1.83,5.84-3.24,6.86-3.66,6-2.49,12.33-4,18.72-4.44Z"/><path class="cls-7" d="M258.39,381.43c1.04-1.09,2.6-1.51,4.1-1.67,1.46-.16,2.98-.11,4.34,.45,1.36,.55,3.21,1.61,3.81,2.96,.79,1.79,.53,3.72-2.03,4.73-.84,.33-4.69,.75-5.59,.75-2.96,.01-8.57-3.09-4.64-7.22Z"/><path class="cls-19" d="M218.73,396.78c15.71-10.43,34.65-17.05,53.17-20.57"/><path class="cls-36" d="M270.74,375.34c6.22,2.83-2.17-11.96-11.56-14.88-3.7-1.15-8.04-1.85-11.91-1.84-4.47,.02-8.58,.73-12.95,1.64-6.47,1.35-12.64,4.78-16.51,10.15-3.86,5.36-5.12,12.74-2.46,18.78,0,0,1.77-5.74,11.53-9.31,0,0,8.79-5.22,22.13-6.86,0,0,13.36-1.49,21.74,2.32Z"/><path d="M263.01,385.95c1.1,0,2.16-.97,2.11-2.11s-.93-2.11-2.11-2.11c-1.1,0-2.16,.97-2.11,2.11s.93,2.11,2.11,2.11h0Z"/><path d="M264.77,393.61c1.99,.95,3.98,1.89,5.97,2.84,1.64,.78,3.29,1.59,4.46,3.02,.69,.84,1.87-.36,1.19-1.19-1.22-1.49-2.94-2.39-4.64-3.21-2.04-.98-4.09-1.95-6.13-2.92-.97-.46-1.83,.99-.85,1.45h0Z"/><path d="M268.05,398.25c.46-2.22,1.5-4.26,3.05-5.91,.31-.33,.33-.86,0-1.19s-.88-.33-1.19,0c-1.74,1.85-2.97,4.16-3.48,6.65-.09,.45,.13,.91,.59,1.04,.42,.11,.94-.14,1.04-.59h0Z"/><path d="M271.79,401.39l3.17-6.32c.2-.41,.11-.91-.3-1.15-.37-.22-.95-.11-1.15,.3l-3.17,6.32c-.2,.41-.11,.91,.3,1.15,.37,.22,.95,.11,1.15-.3h0Z"/><g><path class="cls-39" d="M165.81,393.53c4.45-1.76,9.41-1.99,14.15-1.33,3.16,.44,6.3,1.28,9.07,2.87,4.24,2.43,7.34,6.45,9.91,10.62,1.51,2.45,2.89,5.01,3.78,7.75,.9,2.76,1.29,5.65,1.68,8.52l1.19,8.81c.36,2.7,.73,5.44,.39,8.15-.6,4.67-3.42,9-7.45,11.44-3.76,2.27-8.32,2.86-12.71,2.71-.76-.03-1.52-.08-2.24-.3-1.1-.34-3.24-.87-4.14-1.58-5.19-4.12-9-8.67-13.82-13.23-5.51-5.22-10.85-10.86-14.03-17.75-.55-1.19-.41-4.06-.55-5.35-.19-1.75-.35-1.86,.09-3.56,.94-3.58,1.93-7.26,4.23-10.16,2.71-3.42,5.98-5.6,9.98-7.34"/><path d="M166.15,394.75c5.61-2.19,12.1-2.08,17.84-.42,2.75,.8,5.28,2.11,7.43,4s3.8,3.98,5.32,6.27c1.65,2.48,3.22,5.1,4.29,7.89,1.16,3,1.64,6.17,2.07,9.34s.9,6.6,1.33,9.9c.39,3.01,.69,6.1-.15,9.07-.68,2.39-1.98,4.59-3.72,6.35-1.89,1.91-4.27,3.17-6.86,3.88-2.77,.76-5.73,.95-8.59,.75-1.16-.08-2.35-.52-3.45-.9-1.2-.41-2.04-1.11-3-1.93-2.37-2.03-4.58-4.24-6.76-6.47s-4.41-4.42-6.66-6.6c-4.19-4.05-8.21-8.37-11.11-13.45-.35-.62-.69-1.25-1.01-1.89-.16-.32-.34-.64-.46-.97,.08,.21-.09-.39-.11-.49-.19-.96-.17-2.12-.21-3.17s-.27-1.99-.25-2.99c0-.47,.15-.96,.29-1.5,.2-.75,.39-1.49,.61-2.23,.76-2.65,1.72-5.33,3.5-7.49,1.67-2.03,3.67-3.71,5.93-5.04,1.14-.67,2.33-1.26,3.54-1.79,.62-.27,.77-1.19,.45-1.73-.38-.64-1.1-.73-1.73-.45-5.34,2.35-10.26,6.08-12.63,11.56-.6,1.39-1.08,2.81-1.5,4.27-.4,1.38-.92,2.84-.98,4.28-.05,1.08,.22,2.18,.25,3.27,.04,1.21,.06,2.42,.28,3.61,.25,1.35,1.08,2.65,1.74,3.83,.75,1.33,1.59,2.62,2.48,3.87,1.84,2.56,3.9,4.96,6.09,7.23s4.57,4.45,6.82,6.71,4.54,4.69,6.91,6.93c1.23,1.17,2.5,2.31,3.82,3.38,1.07,.87,2.14,1.4,3.45,1.81s2.71,.81,4.16,.88c1.53,.07,3.08,.04,4.6-.12,3.14-.31,6.26-1.11,8.97-2.76,2.38-1.44,4.39-3.5,5.81-5.89,1.5-2.52,2.3-5.38,2.39-8.31,.11-3.54-.6-7.11-1.07-10.6s-.82-6.95-1.53-10.36-1.93-6.35-3.57-9.27c-2.9-5.15-6.6-10.37-11.91-13.25-2.9-1.57-6.12-2.4-9.37-2.84s-6.63-.46-9.91,.12c-1.55,.27-3.06,.69-4.52,1.26-.64,.25-1.08,.85-.88,1.55,.17,.61,.91,1.13,1.55,.88h0Z"/></g><g><path class="cls-40" d="M163.74,412.68c1.44-.71,3.1-.99,4.66-.64,1.56,.35,2.99,1.37,3.7,2.81,.6,1.23,.64,2.65,.65,4.02,0,1.39-.17,1.99-1.09,3.32-.29,.43-.92,.74-1.49,1.21s-1.43,.8-2.16,1.01c-1.58,.47-3.35,.53-4.83-.22-1.13-.58-1.99-1.31-2.66-2.39-.53-.85-.56-1.61-.81-2.59s.21-2.86,.62-3.66c.5-.98,2.35-2.57,3.41-2.88"/><path d="M164.27,413.59c2.15-1.02,5.04-.91,6.55,1.15,.78,1.06,.86,2.42,.87,3.69,.02,1.17-.1,2.06-.81,3.03-.32,.44-.85,.73-1.29,1.06-.51,.39-1.08,.63-1.68,.82-1.19,.38-2.48,.53-3.69,.15-1.06-.34-2.07-1.11-2.68-2.04-.32-.48-.47-.97-.6-1.53-.12-.53-.27-1.03-.25-1.56,.04-.91,.27-1.98,.83-2.69,.61-.77,1.63-1.68,2.5-1.96,1.29-.41,.74-2.44-.56-2.03s-2.36,1.32-3.23,2.27-1.34,2.16-1.54,3.46c-.49,3.13,1.12,6.3,3.96,7.71,1.57,.78,3.34,.86,5.04,.48s2.95-1.15,4.23-2.18c1.16-.93,1.79-2.51,1.87-3.96,.1-1.71,0-3.58-.78-5.13s-2.31-2.71-3.97-3.2c-1.96-.57-4.02-.2-5.83,.66-1.22,.58-.16,2.4,1.06,1.82h0Z"/></g><path d="M160.05,409.84c2.5-1.81,5.76-1.53,8.67-1.27,.57,.05,1.05-.52,1.05-1.05,0-.61-.48-1-1.05-1.05-3.27-.29-6.94-.47-9.73,1.56-.46,.33-.68,.92-.38,1.44,.27,.45,.98,.71,1.44,.38h0Z"/><path d="M177.69,403.93c.16-.26,.32-.51,.5-.76,.01-.02,.2-.26,.05-.08,.04-.05,.08-.09,.11-.14,.1-.12,.19-.23,.3-.35,.2-.23,.41-.44,.64-.65,.11-.1,.22-.2,.34-.3,.07-.06,.14-.12,.21-.17,.15-.13-.06,.04,.04-.03,.49-.36,1-.69,1.54-.96,.14-.07,.27-.13,.41-.2,.08-.04,.18-.08,.04-.02,.07-.03,.14-.06,.21-.08,.3-.11,.6-.21,.91-.3,.53-.15,.91-.75,.74-1.3s-.73-.89-1.3-.74c-2.72,.76-5.1,2.58-6.55,5-.28,.47-.12,1.18,.38,1.44s1.14,.13,1.44-.38h0Z"/><g><path class="cls-40" d="M179.48,406.61c1.54-3.78,8.05-4.06,11.49-1.01,.42,.38,.93,1.29,1.1,1.77,.29,.82,.61,1.63,.6,2.5,0,1.8-.68,3.82-2.32,4.54-.52,.23-1.13,.49-1.7,.56-.79,.11-1.51,.39-2.48,.39-1.22,0-2.36,.07-3.44-.49-1.3-.69-2.71-2.02-3.2-3.41-.53-1.51-.55-3.57-.06-4.85"/><path d="M180.39,407.14c1.52-3.57,7.19-3.06,9.72-.9,.86,.73,1.37,2.17,1.49,3.26s-.15,2.37-.8,3.23c-.74,.98-2.04,1.12-3.16,1.36-1.26,.27-2.82,.43-4.06,0s-2.56-1.67-3.04-2.91c-.51-1.31-.53-2.97-.06-4.29s-1.57-1.83-2.03-.56c-.55,1.52-.5,3.32-.11,4.87,.44,1.74,1.66,3.12,3.1,4.13s3.25,1.18,5.03,1.07c.86-.05,1.7-.28,2.54-.43s1.74-.5,2.42-.98c2.76-1.97,2.7-6.04,1.24-8.77-1.32-2.48-4.39-3.6-7.06-3.74s-5.92,.9-7.07,3.6c-.22,.52-.16,1.13,.38,1.44,.44,.26,1.22,.15,1.44-.38h0Z"/></g><g><path class="cls-40" d="M179.37,439.59c6.29,1.32,15.13-1.55,20.33-5.32-.96,3.47-4.24,7.75-7.46,9.37-.57,.29-1.67,.8-2.29,.96-1.81,.44-3.77-.67-5.47-1.44-1.7-.77-3.2-1.9-4.69-3.02"/><path d="M179.09,440.6c3.65,.74,7.48,.26,11.04-.72s7.09-2.53,10.1-4.7l-1.55-1.19c-.54,1.88-1.57,3.64-2.8,5.15s-2.59,2.8-4.3,3.65c-.74,.37-1.58,.83-2.43,.85-.99,.02-1.96-.39-2.84-.79-1.05-.48-2.1-.95-3.08-1.56s-1.97-1.35-2.92-2.07c-.45-.34-1.18-.07-1.44,.38-.32,.54-.08,1.1,.38,1.44,1.64,1.24,3.28,2.36,5.15,3.23,1.73,.81,3.56,1.73,5.53,1.39,.8-.14,1.56-.51,2.29-.85s1.39-.72,2.03-1.19c1.46-1.08,2.69-2.39,3.78-3.84,1.17-1.57,2.14-3.34,2.68-5.23,.23-.82-.78-1.74-1.55-1.19-2.83,2.04-6.07,3.49-9.41,4.44s-6.77,1.46-10.11,.78c-1.32-.27-1.89,1.76-.56,2.03h0Z"/></g><path d="M176.1,417.8c2.37,2.48,5.29,4.41,8.3,6.02s6.28,2.95,9.55,4.08l-.25-1.92c-2.96,1.38-6.25,2.55-8.71,4.78-1.01,.91,.49,2.4,1.49,1.49,1.14-1.04,2.57-1.76,3.95-2.44s2.89-1.33,4.33-2.01c.88-.41,.53-1.66-.25-1.92-3.11-1.07-6.15-2.32-9.05-3.87s-5.63-3.32-7.88-5.69c-.94-.98-2.42,.51-1.49,1.49h0Z"/><g><path d="M150.49,442.4c.49,1.21,2.17,3.01,3.25,3.75,1.08,.74,2.57,.98,3.71,.34,1.21-.68,1.78-2.17,1.74-3.56-.04-1.39-.59-2.71-1.12-3.99-2.27-5.43-5.22-10.52-8.15-15.63-.88-1.53-1.84-3.39-2.55-5-1.12-2.55-1.93-5.26-2.14-7.46-.15-1.48,.03-2.36,.33-3.82,.36-1.77,2.74-3.07,3.88-4.48,2.35-2.93,5.35-5.27,8.32-7.57l6.72-5.22c2.21-1.72,3.41-3.88,6.1-4.66,2.04-.59,7.25-1.84,9.37-1.82,3.37,.03,4.7,.1,8.07,1.12,.67,.2,3.98,2.04,4.7,2.25,.84,.24,3.26,3.18,3.78,3.88,1.93,2.59,2.59,2.6,3.98,5.51,1.33,2.78,2.45,5.03,3.68,7.86,1.25,2.87,2.65,6.22,3.27,9.29,.71,3.57,1.12,6.08,1.84,9.09,.6,2.51-.15,3.81,1.34,5.91,1.5,2.1,4.53,3.41,6.72,2.05,.37,.73-.02,1.68-.69,2.15-.67,.47-1.54,.56-2.36,.52-2.33-.12-4.59-1.23-6.12-2.99-1.62-1.86-2.36-4.31-3.06-6.67l-3.66-12.3c-1.75-5.89-3.93-12.34-9.28-15.36-2-1.13-4.28-1.66-6.53-2.13-5.06-1.04-10.24-1.81-15.37-1.28-5.13,.53-10.27,2.48-13.84,6.2-2.65,2.76-4.3,6.32-5.81,9.84-1.01,2.37-2,4.89-1.67,7.44,.27,2.1,1.4,3.97,2.5,5.77,1.52,2.49,3.05,4.99,4.94,7.21,2.45,2.89,5.49,5.28,7.63,8.41,2.14,3.13,3.24,7.4,1.35,10.69-1.78,3.1-6.01,4.39-9.33,3.09-3.33-1.3-5.52-4.87-5.52-8.44"/><path d="M149.58,442.93c.49,1.13,1.39,2.14,2.26,2.99,.97,.95,2.07,1.72,3.44,1.92,3.06,.45,5.13-2.28,4.94-5.16-.11-1.67-.79-3.2-1.44-4.72s-1.34-3-2.08-4.48c-1.49-2.98-3.12-5.88-4.77-8.77-1.56-2.73-3.16-5.46-4.26-8.41-.99-2.66-1.8-5.51-1.25-8.35,.11-.56,.19-1.05,.53-1.52s.8-.89,1.24-1.28,.89-.76,1.31-1.17c.5-.48,.91-1.03,1.37-1.54,2.09-2.39,4.59-4.37,7.09-6.32,1.33-1.03,2.66-2.06,3.98-3.09s2.64-1.96,3.87-3.04c.97-.85,1.81-1.82,2.79-2.65,.86-.72,1.81-1.12,2.88-1.41,4.33-1.17,8.8-2.15,13.29-1.28,.62,.12,1.24,.27,1.86,.44,.37,.1,.73,.22,1.1,.32,.29,.08-.06-.05,.22,.09,.84,.4,1.67,.84,2.51,1.26,.38,.19,.75,.38,1.14,.56,.19,.09,.39,.18,.59,.26,.06,.02,.13,.05,.19,.07,.17,.06-.2-.13-.02-.01,.54,.35,1.3,1.17,1.86,1.8,.32,.36,.64,.73,.95,1.11,.11,.14,.23,.28,.34,.42,.04,.05,.07,.09,.11,.14-.22-.28,.19,.26,.23,.3,.69,.9,1.45,1.72,2.17,2.6s1.25,1.96,1.75,3c.68,1.43,1.38,2.85,2.05,4.28,1.34,2.86,2.64,5.77,3.65,8.77s1.43,6.09,2.05,9.16c.27,1.38,.69,2.76,.89,4.15,.16,1.12,.06,2.26,.34,3.36,.63,2.46,2.94,4.54,5.42,5.02,1.28,.25,2.56,.09,3.69-.58l-1.44-.38c.14,.34-.33,.74-.58,.87-.57,.3-1.33,.25-1.96,.18-1.17-.13-2.3-.56-3.29-1.18-2.24-1.41-3.3-3.87-4.07-6.3-1.78-5.62-3.22-11.36-5.1-16.95-1.51-4.5-3.59-9.07-7.53-11.94-2.29-1.66-5.05-2.4-7.77-2.97-3.09-.64-6.21-1.18-9.36-1.42-5.59-.41-11.37,.27-16.35,2.98-2.35,1.28-4.43,3.02-6.07,5.14s-2.94,4.63-4.05,7.13c-1.2,2.71-2.59,5.61-2.47,8.64s1.79,5.52,3.3,7.98,3.2,5.03,5.21,7.24c1.85,2.04,3.93,3.87,5.69,5.99,1.6,1.92,2.89,4.22,3.18,6.74,.26,2.27-.41,4.61-2.3,6.01-1.68,1.25-3.96,1.67-5.97,1.1-2.17-.62-3.9-2.4-4.75-4.46-.42-1.01-.63-2.09-.64-3.18-.01-1.35-2.12-1.36-2.11,0,.04,5.07,3.94,9.94,9.22,9.99,2.34,.02,4.75-.88,6.41-2.56,1.84-1.87,2.53-4.54,2.21-7.1-.73-5.95-5.44-9.66-9.25-13.79-2.09-2.26-3.73-4.83-5.34-7.45s-3.16-5.03-2.69-8.09c.24-1.53,.81-3.01,1.41-4.43,.56-1.32,1.13-2.63,1.77-3.91,1.24-2.5,2.74-4.88,4.82-6.77,4.14-3.75,9.9-5.18,15.36-5.23,3.22-.03,6.42,.37,9.58,.95,2.91,.53,6.04,1.01,8.66,2.48,4.27,2.41,6.36,7.2,7.83,11.64,.94,2.82,1.73,5.69,2.58,8.53,.89,3.01,1.7,6.06,2.72,9.03,.91,2.64,2.24,5.08,4.61,6.66,1.09,.73,2.37,1.24,3.66,1.46,1.35,.23,2.95,.31,4.14-.51s1.64-2.25,1.07-3.59c-.22-.52-1-.64-1.44-.38-2.02,1.19-4.57-.37-5.61-2.18-.54-.95-.54-1.96-.61-3.02-.09-1.41-.46-2.75-.75-4.13-.61-2.88-.99-5.84-1.77-8.69-.83-3.04-2.1-5.96-3.38-8.83-.64-1.44-1.31-2.86-1.99-4.27s-1.26-2.79-2.04-4.1c-.52-.87-1.17-1.65-1.84-2.41s-1.27-1.56-1.91-2.35-1.23-1.49-1.9-2.18c-.59-.61-1.21-1.24-2.02-1.55-.07-.03-.35-.14-.15-.05-.16-.07-.33-.15-.49-.23-.45-.22-.9-.45-1.35-.67-.82-.42-1.63-.87-2.48-1.21-2.28-.9-4.85-1.18-7.28-1.23-2.23-.05-4.37,.29-6.55,.76-1.09,.23-2.18,.49-3.26,.77s-2.14,.59-3.1,1.18c-1.09,.69-1.99,1.62-2.91,2.52-1.07,1.06-2.25,1.96-3.43,2.88-2.57,1.99-5.17,3.96-7.69,6.01-1.17,.95-2.32,1.94-3.4,3-1.02,1-1.86,2.16-2.88,3.14-.91,.87-1.92,1.61-2.69,2.61-.82,1.07-1.01,2.41-1.16,3.72-.33,2.91,.66,6.01,1.72,8.68,1.14,2.85,2.64,5.51,4.16,8.17,1.63,2.86,3.25,5.72,4.73,8.67,.74,1.47,1.44,2.96,2.09,4.47,.6,1.39,1.32,2.91,1.25,4.46-.05,1.04-.57,2.24-1.68,2.48-1.17,.26-2.17-.43-2.98-1.19s-1.61-1.65-2.06-2.69c-.23-.52-.99-.64-1.44-.38-.54,.32-.6,.92-.38,1.44h0Z"/></g><g><path class="cls-42" d="M145.54,407.02c-8.12-1-15.43-6.91-18.09-14.64-.14-.41-.27-.84-.24-1.27,.13-1.61,2.19-2.15,3.8-2.28,7.24-.61,14.45-1.56,21.6-2.87,1.25,2.91,5.13,4.26,7.7,6.11-6.31,2.66-11.63,8.88-14.78,14.95"/><path d="M145.54,405.55c-5.5-.7-10.85-4.04-14.09-8.62-.82-1.17-1.59-2.51-2.13-3.76-.25-.59-.53-1.22-.64-1.85-.12-.67,.1,.22,.04-.25l-.04,.1c.09-.14,.09-.16,0-.04,.01-.01,.33-.32,.11-.15,.15-.12,.34-.22,.51-.3-.23,.11,.23-.08,.23-.08,.15-.05,.31-.09,.46-.13s.32-.07,.48-.1c0,0,.51-.07,.24-.04,.91-.11,1.83-.16,2.75-.25,2.03-.19,4.06-.41,6.09-.66,4.51-.55,9-1.23,13.47-2.04l-1.66-.68c1.52,3.38,5.42,4.64,8.23,6.64v-2.55c-6.76,2.89-11.97,9.09-15.3,15.48-.88,1.68,1.67,3.17,2.55,1.49,3.13-6.01,7.9-11.71,14.25-14.43,1.12-.48,.79-1.98,0-2.55-1.34-.95-2.81-1.69-4.2-2.57-1.29-.81-2.36-1.63-2.98-3.02-.28-.63-1.07-.79-1.66-.68-4.21,.77-8.44,1.42-12.68,1.94-2.19,.27-4.38,.5-6.58,.71-1.76,.16-3.61,.17-5.22,.99-1.79,.92-2.34,2.75-1.72,4.6,.54,1.57,1.26,3.1,2.13,4.52,1.77,2.87,4.16,5.32,6.93,7.24,3.12,2.16,6.7,3.49,10.45,3.96,.79,.1,1.47-.75,1.47-1.47,0-.88-.68-1.37-1.47-1.47h0Z"/></g><g><path class="cls-42" d="M162.28,377.47c1.67-2.92,3.03-6.4,4.17-9.57,1.14-3.17,2.67-6.34,5.32-8.42,.26-.2,.55-.4,.88-.4,.37,0,.69,.25,.97,.5,3.35,2.91,6.2,6.35,8.74,9.99,.87,1.25,1.72,2.54,2.14,4,.43,1.46,.39,3.12-.43,4.4-.55,.86-1.41,1.48-2.24,2.08-3.31,2.37-8.02,5.33-12.06,5.84-1.15,.14-.09-.19-.5-.57-.37-.34-1.68-3.51-1.94-3.94-1.32-2.26-2.54-3.16-5.05-3.9"/><path d="M163.55,378.21c2.03-3.58,3.29-7.45,4.82-11.25,.63-1.56,1.42-3.13,2.46-4.46,.55-.7,1.21-1.25,1.84-1.87,.14-.13,.19-.02,.07-.1,0,0-.33,0-.32-.03,0-.02,.4,.32,.4,.33,.39,.34,.77,.69,1.14,1.05,2.9,2.75,5.47,5.9,7.67,9.23,.93,1.41,1.87,3.06,1.63,4.81s-1.82,2.6-3.11,3.49c-1.76,1.22-3.58,2.36-5.49,3.31-.87,.43-1.76,.82-2.69,1.12-.49,.16-.99,.31-1.5,.42-.21,.05-.43,.09-.65,.13-.3,.05,.16-.01-.16,.03-.44,.05-.17-.13,.3,.19l.68,.88v.75c-.26,.65,.12-.2,.15-.32,.15-.59-.05-1.17-.45-1.62-.18-.21,.12,.26,.09,.12-.01-.06-.09-.14-.12-.2-.11-.18-.2-.38-.3-.57-.45-.91-.84-1.86-1.28-2.77-.5-1.05-1.28-2.09-2.16-2.85-1.13-.98-2.48-1.56-3.9-1.99-1.82-.54-2.6,2.3-.78,2.84,.29,.09,.58,.18,.86,.28,.16,.06,.32,.11,.47,.18-.13-.06,.05,.03,.08,.04,.25,.12,.49,.25,.73,.4,.1,.06,.2,.13,.3,.2,.2,.14-.01-.02,.1,.08,.76,.65,1.22,1.25,1.69,2.17,.36,.69,.64,1.42,.97,2.13,.18,.4,.37,.79,.57,1.18,.07,.12,.13,.25,.21,.37,.09,.13,.2,.24,.28,.37,.07,.11,.02,.14-.07-.08l-.2-.74c-.02-.27,.27-.77,.07-.39s-.27,.77-.16,1.17c.18,.7,.82,1.12,1.52,1.14,1,.03,2.11-.28,3.07-.57,2.17-.66,4.24-1.7,6.19-2.86s3.86-2.35,5.53-3.81c1.89-1.65,2.47-4.09,1.95-6.49s-2.01-4.32-3.38-6.19-2.94-3.84-4.59-5.61c-.8-.87-1.64-1.7-2.51-2.5-.93-.86-1.93-1.93-3.31-1.7-1.16,.19-2.16,1.25-2.92,2.08s-1.43,1.75-2.01,2.72c-1.32,2.2-2.11,4.63-3.01,7.01s-1.99,4.94-3.3,7.26c-.94,1.65,1.61,3.14,2.55,1.49h0Z"/></g><g><path class="cls-46" d="M152.66,384.65c.68-2.17,1.96-4.31,4.02-5.28,1.5-.7,3.21-.71,4.86-.71,.81,0,1.63,0,2.38,.29,.56,.21,1.06,.56,1.52,.93,1.17,.92,2.28,2.13,2.4,3.62,.06,.77-.16,1.54-.52,2.23-1.3,2.48-4.17,3.64-6.8,4.61-.94,.34-1.92,.69-2.91,.56-1.19-.16-1.51-.3-2.55-.91-1.19-.7-2.6-3.54-2.47-4.81"/><path d="M154.08,385.04c.74-2.3,2.12-4.3,4.62-4.77,.65-.12,1.32-.13,1.98-.14,.71,0,1.48-.06,2.19,.05,1.11,.18,2.14,1.1,2.84,1.95,1.61,1.95-.14,4.04-1.86,5.1-1.02,.63-2.08,1.08-3.18,1.49-1.22,.46-2.34,.92-3.65,.56-.09-.02-.18-.05-.26-.08-.16-.06-.17-.06-.03,0-.07-.03-.13-.06-.2-.1-.27-.15-.53-.29-.79-.45,.24,.15,.08,.07,.02,.01-.11-.11-.22-.22-.33-.34-.15-.16-.17-.21-.36-.5-.29-.45-.6-1.07-.72-1.39-.1-.28-.17-.56-.25-.84s-.02-.06,0,.01c-.01-.15-.02-.29,0-.44,.06-.79-.72-1.47-1.47-1.47-.85,0-1.42,.68-1.47,1.47-.1,1.32,.56,2.76,1.21,3.87,.71,1.21,1.61,2.11,2.88,2.7,1.69,.79,3.51,.77,5.26,.17,1.49-.52,2.99-1.09,4.37-1.86,2.98-1.67,5.64-5.08,3.91-8.58-.72-1.45-2.14-2.77-3.55-3.54-1.67-.92-3.77-.82-5.62-.7-2.06,.14-3.96,.72-5.49,2.15-1.4,1.3-2.28,3.08-2.86,4.88-.24,.76,.28,1.61,1.03,1.81,.8,.22,1.57-.27,1.81-1.03h0Z"/></g><g><path class="cls-39" d="M258.53,504.76c.93-.09,3.19,.3,4.06,.64,.87,.34,1.6,1.25,1.41,2.17-.14,.67-.7,1.15-1.22,1.59-3.53,3-5.57,6.6-8.01,10.54-.7,1.14-1.56,3.2-1.1,4.46,.23,.61,.24,.79,.72,1.25,4.11,3.93,8.95,6.23,14.51,7.39,.6,.13,1.26,.23,1.82-.04,.75-.36,1.98-.99,1.88-1.81-.11-.82-.9-2.41-1.76-3.45-1.2-1.46-2.4-2.31-3.37-3.93-.42-.69-1.37-1.53-1.47-2.33-.1-.77,.94-1.85,1.23-2.58,1.27-3.27,3.82-5.49,5.84-8.36,2.01-2.87,3.58-6.48,2.56-9.83-1.32-4.33-3.73-5.58-8.02-7"/><path d="M258.53,506.23c.6-.05,1.22,.03,1.66,.11,.64,.1,1.31,.21,1.91,.45-.22-.08,.15,.09,.22,.14-.08-.06,.18,.18,.11,.09,.11,.12,.11,.12,.14,.27-.04-.18,0,0-.03,.05-.37,.62-1.21,1.13-1.74,1.64-2.61,2.49-4.56,5.55-6.44,8.61-.89,1.45-1.85,2.92-2.15,4.63-.32,1.81,.19,3.35,1.53,4.59,2.63,2.43,5.66,4.31,8.97,5.66,1.62,.66,3.3,1.18,5.01,1.58,.98,.23,2.02,.5,3.03,.27,.82-.19,1.65-.71,2.29-1.24,.76-.63,1.17-1.53,1-2.51-.13-.76-.48-1.49-.84-2.17-.87-1.63-2.19-2.85-3.42-4.2-.59-.64-1.01-1.38-1.55-2.06-.19-.24-.39-.47-.56-.72-.03-.05-.24-.34-.18-.25-.04-.06,0-.21-.04-.1-.05,.17-.05,.15,.05,.02,.78-1.02,1.38-2.71,2.16-3.95,1.92-3.05,4.66-5.47,6.26-8.74,.85-1.74,1.46-3.62,1.49-5.57,.03-1.76-.5-3.48-1.29-5.03-1.27-2.51-3.5-3.97-6.04-4.98-.69-.27-1.39-.52-2.09-.75-.76-.25-1.61,.29-1.81,1.03-.22,.8,.27,1.56,1.03,1.81,.65,.22,1.3,.44,1.94,.69,.49,.19,.97,.4,1.57,.73,.24,.14,.48,.28,.71,.43,.11,.08,.22,.15,.33,.23-.25-.18,.1,.09,.12,.1,.2,.17,.4,.36,.59,.55,.09,.1,.18,.2,.27,.3,.06,.07,.12,.14,.17,.21-.09-.11-.08-.1,.02,.04,.78,1.13,1.31,2.28,1.49,3.68,.2,1.54-.21,3.14-.83,4.54-1.4,3.16-3.89,5.54-5.87,8.3-.47,.66-.91,1.35-1.28,2.07-.4,.78-.61,1.38-1.07,2.1-.43,.67-.87,1.4-.87,2.22,0,.99,.59,1.79,1.17,2.53,.46,.58,.85,1.23,1.35,1.86,.54,.69,1.16,1.3,1.76,1.93,1.04,1.08,1.95,2.32,2.34,3.67l.03,.13c-.06-.17-.04-.33,.06-.5l.07-.06c-.05,.06-.1,.11-.16,.17-.08,.07-.37,.26-.59,.38-.24,.13-.39,.23-.59,.24-.41,.02-.84-.12-1.25-.21-1.65-.37-3.27-.86-4.84-1.47-2.99-1.18-5.76-2.94-8.11-5.12-.15-.14-.29-.27-.43-.41-.31-.3,.07,.17-.09-.14,.16,.32-.04-.12-.05-.16-.05-.15-.11-.3-.14-.46,.05,.26,0-.26,0-.25,.01-.45-.05,.15,.03-.31,.07-.43,.21-.86,.37-1.26,.54-1.35,1.51-2.66,2.3-3.91,.98-1.57,1.99-3.13,3.18-4.55,.62-.74,1.27-1.45,1.98-2.12s1.56-1.25,2.11-2.09c1.3-2-.05-4.3-2.09-5.03-.67-.24-1.38-.37-2.08-.47-.74-.11-1.52-.24-2.28-.18-.79,.06-1.47,.63-1.47,1.47,0,.75,.68,1.54,1.47,1.47h0Z"/></g><g><path class="cls-41" d="M203.26,469.8l-18.94,10.58c-1.59-5.13-3.86-10.04-6.74-14.57l-.42-.8c3.91-1.53,7.61-3.53,11.31-5.51l6.63-3.56"/><path d="M202.51,468.53l-18.94,10.58,2.17,.88c-.95-3.04-2.13-6.02-3.52-8.89-1.14-2.35-2.57-4.53-3.79-6.83l-.88,2.17c6.35-2.51,12.29-6,18.29-9.23,1.67-.9,.18-3.44-1.49-2.55-2.94,1.58-5.88,3.17-8.83,4.74s-5.75,3-8.76,4.19c-.9,.36-1.36,1.25-.88,2.17,1.18,2.24,2.57,4.35,3.69,6.63,1.33,2.71,2.43,5.51,3.32,8.39,.29,.92,1.31,1.36,2.17,.88l18.94-10.58c1.66-.93,.17-3.47-1.49-2.55h0Z"/></g><g><path class="cls-47" d="M268.54,477.41c-1.14-.4-1.88-1.87-2.15-3.05-.19-.81-.05-1.52,.09-2.33s.7-1.62,1.51-1.78c1.16-.23,2.6,.79,3.23,1.79,.99,1.57,.97,2.41,1.67,4.13"/><path d="M268.76,476.6c.08,.03-.14-.08-.18-.09-.11-.06-.1-.06-.18-.12-.14-.12-.32-.31-.4-.42-.27-.36-.48-.79-.62-1.17-.18-.5-.28-.99-.24-1.53,.03-.48,.09-1.07,.27-1.48,.14-.31,.38-.59,.65-.68,.12-.04,.31-.05,.43-.03,.2,.03,.42,.1,.59,.19,.94,.45,1.48,1.23,1.92,2.14s.68,2.03,1.07,3.01c.17,.42,.56,.72,1.04,.59,.4-.11,.76-.61,.59-1.04-.46-1.14-.73-2.35-1.27-3.46-.61-1.26-1.54-2.31-2.85-2.85s-2.75-.18-3.51,1.07c-.39,.64-.49,1.38-.58,2.1s-.04,1.44,.17,2.14c.42,1.38,1.24,2.73,2.64,3.26,.43,.16,.92-.18,1.04-.59,.13-.47-.16-.87-.59-1.04h0Z"/></g><g><path d="M264.77,471.19c-1.25,.06-2.89-1.06-3.69-2.03s-1.12-2.17-1.46-3.38c-.25-.9-.12-2.01,.18-2.89,.56-1.64,2.5-2.26,4.19-2.66,1.3-.31,2.82-.56,3.82,.32,.48,.43,1.46,2.42,1.66,3.03,.74,2.28,.14,3.39-.38,5.72"/><path d="M264.77,470.35c-1.65,.02-3.21-1.59-3.77-3.01-.61-1.55-1.23-3.87,.29-5.12,.62-.51,1.43-.78,2.2-.99,.82-.23,1.68-.45,2.53-.44,.7,0,1.19,.26,1.52,.78,.38,.6,.71,1.25,.99,1.9,.32,.74,.49,1.66,.43,2.5-.07,1.05-.45,2.09-.68,3.11s1.38,1.51,1.62,.45c.26-1.16,.63-2.3,.73-3.48,.09-1.04-.11-2.12-.5-3.08-.33-.81-.72-1.61-1.2-2.35-.54-.83-1.3-1.32-2.3-1.46-1.13-.16-2.29,.1-3.38,.39-1.01,.27-2.04,.62-2.88,1.26-.91,.69-1.41,1.63-1.61,2.75-.23,1.31,0,2.47,.42,3.72s1.08,2.46,2.16,3.33c.96,.78,2.15,1.46,3.42,1.44,1.08-.02,1.09-1.7,0-1.68h0Z"/></g><g><path d="M322.63,487.49c4.54,1.06,9.12,1.98,13.7,2.9,1.05,.21,2.11,.42,3.18,.34,.26-.02,.55-.08,.7-.29,.25-.36-.06-.83-.36-1.16l-7.03-7.56c-.5-.53-1-1.07-1.59-1.49-.77-.54-1.18-1.03-2.09-1.29-1.45-.42-2.41-.87-3.91-1.02"/><path d="M322.4,488.3c2.79,.65,5.59,1.25,8.4,1.83,1.44,.3,2.89,.59,4.33,.88,1.28,.26,2.59,.59,3.91,.58,.54,0,1.12-.03,1.56-.38,.53-.41,.63-1.07,.39-1.67-.21-.55-.67-.97-1.07-1.39l-1.51-1.62c-1.91-2.06-3.76-4.24-5.78-6.19-.92-.88-2.07-1.82-3.3-2.21-1.36-.44-2.7-.89-4.13-1.05-1.08-.12-1.07,1.57,0,1.68s2.03,.47,3.03,.79c.49,.16,.97,.27,1.4,.56,.4,.26,.76,.57,1.14,.85,.94,.71,1.71,1.67,2.51,2.53l2.51,2.7,2.51,2.7,.59,.63s.5,.64,.54,.64c.07,0,.12-.27,.1-.28-.06-.04-.29,.02-.39,.03-.3,0-.61,0-.91-.04-1.18-.11-2.35-.42-3.5-.65-1.24-.25-2.49-.5-3.73-.76-2.73-.56-5.45-1.15-8.16-1.78-1.05-.25-1.5,1.38-.45,1.62h0Z"/></g><path d="M370.26,469.57c1.12,1.56,2.41,2.99,3.79,4.32s2.84,2.59,4.44,3.65c.55,.37,1.42,.13,1.73-.45,.34-.63,.14-1.34-.45-1.73-.33-.22-.65-.45-.97-.68-.09-.07-.18-.14-.27-.21,.2,.15-.1-.08-.11-.09-.16-.12-.31-.25-.47-.38-.73-.6-1.43-1.23-2.1-1.89s-1.31-1.31-1.92-2c-.29-.32-.57-.65-.84-.99-.06-.07-.12-.15-.18-.22-.02-.02-.24-.31-.07-.09-.13-.17-.25-.34-.38-.51-.38-.54-1.12-.85-1.73-.45-.53,.34-.87,1.15-.45,1.73h0Z"/><g><path d="M224.36,393.32c2.32,2.32,4.76,3.93,6.86,5.22,.86,.53,3.6,1.44,5.12,1.16,1.73-.32,3.17-.54,4.8-1.18,1.64-.64,3.08-1.68,4.51-2.71,.6-.43,1.08-.98,1.53-1.58,.83-1.12,.76-3.23,.76-3.81-.02-2.22-.25-5.4-1.26-7.44-10.14,3.48-15.14,6.09-21.83,10.5"/><path d="M223.77,393.91c2.08,2.06,4.49,3.88,7.03,5.35,.89,.52,1.94,.84,2.94,1.07,1.29,.29,2.41,.25,3.71,.02,1.44-.26,2.87-.57,4.23-1.14s2.64-1.41,3.87-2.28c1.1-.79,2.22-1.71,2.75-3,.41-.99,.49-2.1,.49-3.17,0-2.74-.17-5.69-1.37-8.2-.15-.32-.62-.5-.95-.39-6.15,2.11-12.16,4.55-17.75,7.88-1.45,.86-2.87,1.77-4.27,2.7-.9,.59-.06,2.05,.85,1.45,4.93-3.25,10.06-6.03,15.56-8.19,2-.79,4.03-1.52,6.07-2.22l-.95-.39c.98,2.05,1.11,4.53,1.14,6.77,.01,.79,.03,1.59-.13,2.37-.24,1.14-.98,2-1.91,2.67-1.12,.82-2.27,1.62-3.53,2.23-1.16,.56-2.43,.88-3.69,1.13-1.13,.22-2.16,.44-3.31,.21-.92-.18-1.89-.44-2.72-.88-2.5-1.34-4.85-3.19-6.85-5.18-.77-.76-1.96,.43-1.19,1.19h0Z"/></g><g><path d="M315.53,328.11c-10.81-1.89-22.4-.66-31.7,3.42-6.97,3.06-13.24,9.53-14.95,16.95l-.11-9.57,4.87-5.21,10.92-8.76,10.27-2.22,10.84-.21,8.04,3.26,1.81,2.34Z"/><path d="M315.76,327.3c-7.85-1.36-15.98-1.19-23.75,.64-3.59,.85-7.2,2.02-10.45,3.76-3.04,1.63-5.82,3.83-8.09,6.43-2.54,2.91-4.51,6.35-5.39,10.12l1.65,.22-.11-9.57-.25,.6,4.05-4.32c.77-.83,1.57-1.48,2.46-2.19l5.74-4.6,2.51-2.01,.74-.6c.09-.07,.52-.38,.11-.13-.38,.24,.1,.05,.26,.01l1.18-.25,3.57-.77,3.49-.75,1.13-.25c.11-.02,.22-.04,.33-.07,.22-.06,0,.04-.1,0,.13,.04,.36,0,.5,0l1.22-.02,3.58-.07,3.64-.07,1.29-.02c.11,0,.51,.06,.59-.01,.01,0-.25-.11-.15,0,.06,.06,.23,.09,.31,.13l1.18,.48,3.44,1.39,2.74,1.11c.08,.03,.18,.09,.26,.11,.02,0,.03,.02,.05,.02-.19-.01-.39-.38-.29-.11,.06,.17,.28,.36,.39,.5l.59,.76,.76,.97c.28,.36,.89,.29,1.19,0,.36-.35,.28-.83,0-1.19l-.98-1.27c-.36-.46-.67-1.04-1.2-1.29-.78-.36-1.6-.65-2.4-.97l-4.14-1.68c-.57-.23-1.21-.62-1.84-.64-2.51-.06-5.04,.1-7.54,.15-1.01,.02-2.02,.02-3.02,.06-.55,.02-1.09,.19-1.62,.3l-8.07,1.74c-.57,.12-1.03,.18-1.49,.55-.72,.58-1.44,1.16-2.17,1.74l-6.89,5.52c-.56,.45-1.16,.87-1.69,1.35-.61,.55-1.14,1.21-1.7,1.81l-2.82,3.01c-.28,.3-.58,.55-.62,1-.02,.26,0,.54,0,.8l.09,8.07v.7c.02,.93,1.44,1.17,1.66,.22,1.5-6.4,6.21-11.77,11.8-15.04,3-1.76,6.36-2.91,9.71-3.79,3.63-.95,7.36-1.51,11.11-1.71,4.34-.23,8.71,.01,12.99,.75,1.06,.18,1.52-1.44,.45-1.62Z"/></g><path d="M184.77,412.66c1.54,0,3.02-1.36,2.95-2.95s-1.3-2.95-2.95-2.95c-1.54,0-3.02,1.36-2.95,2.95s1.3,2.95,2.95,2.95h0Z"/><path d="M166.96,421.03c1.54,0,3.02-1.36,2.95-2.95s-1.3-2.95-2.95-2.95c-1.54,0-3.02,1.36-2.95,2.95s1.3,2.95,2.95,2.95h0Z"/><g><path class="cls-42" d="M215.06,486.34c4.42,7.47,6.38,18.69,6.67,27.37,.02,.68,.08,1.46,.61,1.89,.28,.23,.64,.31,.99,.39,6.45,1.44,13.28,1.17,19.6-.78,2.18-.67,4.31-1.55,6.22-2.79,1.3-.84,2.49-1.85,3.68-2.85l5.7-4.82c2.01-1.7,4.04-3.42,5.65-5.5,2.22-2.88,3.54-6.33,4.83-9.73,.21-.56,.43-1.15,.34-1.75-.11-.71-.63-1.28-1.14-1.79-8.4-8.4-16.74-14.99-24.91-23.61"/><path d="M213.79,487.09c1.87,3.18,3.12,6.66,4.08,10.21,.99,3.68,1.66,7.46,2.04,11.25,.18,1.81,.26,3.62,.36,5.43,.07,1.12,.36,2.23,1.33,2.91,.85,.59,2.04,.7,3.03,.88,4.48,.79,9.03,.81,13.52,.08s8.73-2.03,12.31-4.53c1.93-1.35,3.69-2.94,5.49-4.46s3.52-2.94,5.25-4.45,3.26-3.03,4.57-4.84c1.24-1.71,2.19-3.6,3.02-5.53,.44-1.02,.85-2.06,1.25-3.09s.88-2.05,.78-3.16c-.11-1.19-.84-2.1-1.65-2.92s-1.67-1.65-2.52-2.47c-6.52-6.28-13.47-12.11-19.85-18.53-.83-.83-1.65-1.68-2.46-2.53-1.31-1.38-3.39,.71-2.08,2.08,5.98,6.3,12.56,11.97,18.93,17.87,1.61,1.49,3.2,3,4.77,4.54,.41,.4,.81,.8,1.22,1.2,.22,.22,.54,.49,.66,.76,.15,.34-.01,.69-.13,1.02-.17,.48-.36,.96-.55,1.44-1.44,3.73-3.1,7.29-5.97,10.15-1.49,1.49-3.14,2.83-4.75,4.2-1.73,1.46-3.46,2.93-5.19,4.39-1.6,1.34-3.26,2.55-5.16,3.46s-3.73,1.46-5.67,1.94c-4.06,1-8.27,1.28-12.43,.88-1.02-.1-2.03-.24-3.03-.43-.47-.09-.95-.18-1.42-.3-.07-.02-.19-.07-.26-.07-.19,0-.07-.05-.04-.02,.12,.11,.03,.05,.02-.08-.12-1.47-.18-3.33-.33-4.94-.66-7.36-2.14-14.87-5.39-21.55-.37-.77-.78-1.52-1.21-2.26-.96-1.63-3.51-.15-2.55,1.49h0Z"/></g><g><path class="cls-41" d="M206.27,441.03c2.58,1.15,4.71,1.36,7.29,2.51,2.47,1.1,4.77,2.31,7.08,3.73,1.78,1.09,4.27,1.98,5.93,3.25,5.25,4.02,11.48,7.84,16.73,11.86-1.96,1.72-6.12,4.63-7.51,6.85-1.96,3.13-3.69,5.34-6.07,8.16-3.69,4.39-9.04,7.83-14.66,8.95-.24,.05-.49,.09-.73,.03-.28-.08-.49-.29-.69-.5-2.74-2.84-5.54-5.76-7.12-9.37-.78-1.78-1.41-3.32-2.62-4.85-1.44-1.82-2.17-4.28-3.49-6.14-2.57-3.62-4.88-8.69-6.35-12.87,2.88-.31,6.21-2.47,7.93-4.8,1.72-2.33,3.39-4.06,4.28-6.81"/><path d="M205.53,442.3c2.61,1.14,5.44,1.65,8.03,2.84,1.28,.59,2.53,1.22,3.76,1.9s2.36,1.42,3.58,2.06c1.15,.6,2.33,1.12,3.46,1.75s2.07,1.41,3.08,2.15c2.37,1.74,4.8,3.39,7.23,5.05,2.66,1.82,5.32,3.64,7.88,5.6l-.3-2.32c-1.61,1.41-3.35,2.66-4.95,4.09-.77,.68-1.52,1.4-2.16,2.2-.78,.99-1.41,2.1-2.13,3.14-2.83,4.09-6.07,8.13-10.3,10.84-2.07,1.33-4.3,2.37-6.68,3-.29,.08-.58,.15-.88,.22-.11,.02-.31,.02-.39,.08-.24,.2,.02,0-.04,.05,.06-.06,.4,.37,.08,0-.08-.1-.18-.19-.27-.28-.28-.28-.55-.57-.82-.86-.92-.96-1.83-1.94-2.68-2.97s-1.56-2.01-2.2-3.1c-.68-1.15-1.17-2.37-1.73-3.58s-1.23-2.34-2.04-3.42c-.73-.98-1.26-2.08-1.8-3.17-1.26-2.57-3-4.85-4.33-7.39s-2.48-5.22-3.44-7.94l-1.42,1.87c3.17-.39,6.2-2.1,8.33-4.45,1.07-1.18,2.03-2.54,2.97-3.83,.99-1.36,1.79-2.81,2.33-4.41,.25-.76-.29-1.61-1.03-1.81-.8-.22-1.56,.27-1.81,1.03-.44,1.32-1.16,2.5-1.97,3.62s-1.61,2.22-2.44,3.17-1.86,1.79-2.98,2.44c-1.02,.6-2.33,1.16-3.39,1.29-.87,.11-1.78,.87-1.42,1.87,.93,2.62,2.01,5.19,3.25,7.68,.6,1.2,1.24,2.39,1.94,3.54s1.51,2.19,2.14,3.36,1.12,2.33,1.77,3.45,1.54,2.13,2.17,3.3c.67,1.25,1.15,2.59,1.8,3.85s1.37,2.34,2.2,3.42c.89,1.16,1.84,2.26,2.83,3.33,.47,.5,.94,1,1.41,1.49,.52,.54,1.04,1.14,1.79,1.34,.69,.19,1.42,0,2.1-.16s1.3-.33,1.94-.54c1.31-.43,2.59-.96,3.83-1.58,2.4-1.21,4.62-2.79,6.59-4.6s3.75-4.08,5.42-6.26c.9-1.18,1.77-2.39,2.58-3.64,.23-.34,.44-.7,.67-1.04,.05-.08,.38-.54,.26-.37,.37-.46,.79-.89,1.21-1.3,1.82-1.76,3.9-3.21,5.81-4.88,.79-.69,.4-1.78-.3-2.32-4.6-3.51-9.5-6.6-14.19-9.97-1.11-.8-2.17-1.69-3.32-2.42-1.04-.65-2.15-1.16-3.25-1.7-2.49-1.23-4.8-2.77-7.3-3.97-1.47-.71-2.96-1.36-4.52-1.84s-3.01-.82-4.44-1.45c-.73-.32-1.58-.21-2.02,.53-.36,.62-.2,1.7,.53,2.02h0Z"/></g><path d="M347.57,375.56c-.21-.38-.31-.69-.36-1.12s.57-.91,.95-1.13c.19-.11,.42-.14,.64-.17,.71-.09,1.53-.13,2.01,.39,.36,.39,.4,.99,.68,1.44,.16,.26,.38,.46,.53,.73s.17,.63-.05,.83c-1.5,.43-3.22,.05-4.4-.97"/><path d="M355.08,375.25c-.2-.32-.07-.77,.22-1.01s.68-.32,1.06-.32c1.59,0,3.08,1.42,3.07,3.02,0,.22-.04,.46-.19,.62-.15,.16-.39,.2-.61,.21-1.56,.08-3.1-1.02-3.54-2.52"/><path d="M348.5,355.55c.41,.45,.83,.88,1.32,1.23,.42,.3,.88,.54,1.35,.77l2.4,1.21c.03-1.79-1.01-3.49-2.45-4.56-1.37-1.02-3.27-1.72-4.98-1.77-.09,.84,1.81,2.5,2.37,3.12Z"/><path d="M361.99,354.09c1.39-.88,3.03-1.24,4.63-1.59-.17,.53-.44,1.02-.79,1.46-.27,.34-.58,.63-.9,.93l-1.34,1.27c-.73,.69-1.46,1.38-2.33,1.88-.28,.16-1.41,.83-1.68,.56-.23-.23,.05-1.34,.12-1.6,.33-1.22,1.24-2.24,2.29-2.9Z"/><path d="M332.53,346.75c.69-.48,1.45-.84,2.21-1.2,3.67-1.74,7.39-3.5,11.38-4.24,4.18-.78,8.52-.41,12.65,.58,4.14,.99,8.1,2.58,12.01,4.26,2.87,1.23,4.22,2.5,6.2,4.92,.84,1.02,2,2.83,2.71,4.47,1.64,3.74,2.09,11.19,1.99,12.95-.49-1.2-3.61-9.86-4.45-10.84-1.77-2.08-2.44-4.91-4.05-7.12-1.53-2.1-3.84-3.53-6.29-4.38-2.45-.85-5.05-1.17-7.64-1.4-4.03-.35-8.08-.48-12.13-.4-.67,.01-1.33,.03-1.99,.16-.87,.16-1.69,.51-2.52,.8-1.54,.55-3.13,.95-4.65,1.54-1.93,.75-3.74,1.82-5.34,3.15s-3.43,4.01-4.79,5.62c.02-2.95,2.23-7.18,4.67-8.87Z"/><path class="cls-39" d="M370.94,459.56l10.93-2.4,2.26,5.37s1.63,3.96,.62,6.83c0,0-1.01,3.8-5.8,6.35,0,0-5.17-4.29-6.72-6.8,0,0,1.58-3.88-1.3-9.36Z"/><path d="M305.2,415.76c.75,1.26,1.65,2.36,2.52,3.53,.43,.58,.81,1.19,1.22,1.78,.39,.55,.83,1.05,1.23,1.58,.9,1.2,1.7,2.48,2.61,3.68,.82,1.09,1.68,2.17,2.93,2.78,.97,.48,1.82-.98,.85-1.45-1.16-.57-1.91-1.62-2.67-2.63-.87-1.16-1.62-2.41-2.51-3.55-.79-1.02-1.5-2.09-2.27-3.12-.85-1.14-1.73-2.22-2.46-3.45-.55-.93-2.01-.08-1.45,.85h0Z"/><path d="M317.44,413.92c1.44,1.63,2.43,3.59,3.74,5.32s2.76,3.4,4.38,4.88c.8,.73,1.99-.46,1.19-1.19-1.59-1.46-3.05-3.08-4.33-4.82s-2.33-3.73-3.79-5.38c-.72-.82-1.91,.38-1.19,1.19h0Z"/><path class="cls-30" d="M341.44,430.29c5.54-.13,8.62-1.67,13.77-2.14,.76,.19-.27,1.18-1.04,2.3-.48,.54,1.9,1.64,3,1.56s2.37-.29,3.17,.48c.86,.82,.54,2.36-.32,3.17s-2.09,1.09-3.26,1.34c-3.1,.66-6.21,1.32-9.37,1.59-11.21,.94-23.6-1.96-31.37-10.09,.65-2.9,5.16-4.59,5.84-4.88,2.24-.96,3.08-1.09,4.96,.49,3.62,3.05,9.66,6.31,14.63,6.19Z"/><path d="M251.88,403.36c.29,.25,.69,.48,1.03,.29,.2-.11,.3-.35,.37-.57,.39-1.28,.2-2.73-.51-3.88-.66-1.06-2.27-1.82-2.66-.24-.38,1.5,.69,3.46,1.77,4.4Z"/><path d="M257.08,399.99c.27,.34,.56,.69,.98,.92s1,.32,1.43,.11c.07-.03,.13-.07,.17-.13,.05-.07,.06-.15,.06-.23,.04-1.11-1.06-4.66-2.75-4.93-2.93-.46-.45,3.57,.1,4.26Z"/><path class="cls-14" d="M270.18,435.41c8.67,5.34,19.04,7.87,29.2,7.14,3.11-.23,6.44-.86,8.61-3.11,1.54-1.59,2.69-4.05,4.9-4.2,.79-.48,.45,3.36,.06,4.99,2.23-.41,4.12-.06,5.85,.94,1.73,1,2.82,3.41,1.7,5.07-.81,1.21-2.4,1.58-3.83,1.83-12.76,2.23-25.79,2.9-38.71,1.99-.7-.05-1.44-.12-1.98-.57-.97-.81-.78-2.32-.49-3.55,.44-1.88,1.08-4.75,1.52-6.63"/><g><path class="cls-46" d="M273.31,487.65c2.86,5.62,7.35,12.74,13.28,18.01,1.5,1.34,3.6,2.77,5.37,3.71,1.28,.67,4.61,1.79,6.05,1.94,4.55,.45,6.3-.9,10.32-3.1-7.91-2.46-15.82-6.78-21.24-13.04-2.41-2.78-4.78-6.09-6.5-9.34-.15-.29-.52,.36-.77,.56-.56,.43-.41,.44-.76,.66-2.54,1.54-4.71,1.42-6.9-.58s-4.23-5.72-2.92-8.39c.26-.54,.61-1.06,1.13-1.35,.45-.26,.99-.32,1.51-.33,2.97-.08,3.8,.58,5.53,3,1.73,2.42,4.08,4.55,2.41,7.01"/><path d="M272.4,488.18c2.98,5.85,6.68,11.46,11.29,16.17,2.33,2.38,5.01,4.64,8.04,6.08,2.39,1.14,5.09,1.99,7.75,2.02,1.61,.02,3.2-.26,4.69-.88,1.63-.68,3.15-1.6,4.69-2.44,.82-.45,.58-1.66-.25-1.92-4.74-1.48-9.3-3.56-13.43-6.34s-7.76-6.52-10.7-10.71c-.79-1.13-1.54-2.29-2.23-3.48-.29-.5-.53-1.15-.92-1.58-.49-.53-1.24-.45-1.75,.01-.3,.27-.6,.58-.88,.87-.04,.04-.08,.08-.12,.12-.17,.16,.16-.1-.02,.02-.28,.19-.61,.36-.92,.5-.91,.41-1.89,.58-2.85,.28-2.01-.61-3.62-2.8-4.41-4.65-.66-1.54-1.02-4.69,1.38-4.79,.84-.04,1.92-.02,2.59,.3,.72,.35,1.25,.98,1.76,1.66,.83,1.1,1.72,2.17,2.46,3.33,.67,1.04,1.03,2.02,.32,3.12s1.09,2.2,1.82,1.06c1.98-3.08-.78-5.84-2.52-8.22-.69-.95-1.41-1.93-2.42-2.57-.93-.59-2.04-.77-3.12-.8-1.63-.04-3.1,.23-4.06,1.68-.82,1.25-.98,2.75-.72,4.19,.5,2.79,2.55,5.68,4.99,7.11,1.45,.85,3.14,1.05,4.74,.54,.8-.25,1.7-.63,2.34-1.19,.15-.13,.28-.28,.43-.41,.12-.11,.23-.2,.35-.32,.06-.07,.35-.34,.25-.28l-.53,.14h.07l-.74-.3c.13,.14,.22,.45,.32,.63,.15,.26,.3,.52,.45,.78,.35,.59,.71,1.18,1.08,1.75,.71,1.1,1.47,2.17,2.26,3.22,1.49,1.96,3.08,3.86,4.88,5.55,3.45,3.24,7.48,5.84,11.75,7.85,2.44,1.15,4.96,2.13,7.53,2.93l-.25-1.92c-2.33,1.28-4.65,2.85-7.38,3.02-2.52,.15-4.89-.53-7.28-1.55-2.83-1.21-5.34-3.31-7.51-5.45-2.33-2.31-4.41-4.87-6.28-7.56s-3.61-5.65-5.13-8.63c-.62-1.21-2.43-.14-1.82,1.06h0Z"/></g><path d="M260.13,474.46c5.05-1.72,9.98-3.93,13.9-7.63,.79-.75-.4-1.94-1.19-1.19-3.7,3.49-8.39,5.58-13.16,7.2-1.02,.35-.58,1.97,.45,1.62h0Z"/><path class="cls-48" d="M271.19,477.61s2.74-1.74,6.12,2.65c0,0,4.35,5.1,.15,6.67,0,0-3.28,1.94-6.62-3.69,0,0-2.94-4.19,.35-5.63Z"/><path d="M597.8,336.7c.85,.16,3.75,5.51,3.28,6.24s-10.15-4.13-10.51-5.09"/><path class="cls-8" d="M403.74,446.16c-.73,2.74-2.03,6.5-3.05,9.16"/><path class="cls-8" d="M408.85,447.01c-.5,3.72-1.53,7.37-3.04,10.84"/><path class="cls-8" d="M415.35,447.33c-1.19,4.06-2.56,9.49-3.75,13.55"/><path class="cls-8" d="M421.03,447.97c-.77,4.75-3.45,11.84-4.48,16.55"/><path class="cls-8" d="M427.27,450.36c.15,.58-1.11,4.23-1.35,4.79-2.06,4.71-4.33,11.6-6.57,16.08"/><path class="cls-8" d="M431.24,460.47c-2.19,6.88-4.64,13.69-7.36,20.41-1.69,4.17-3.54,8.4-6.7,11.72"/><path class="cls-8" d="M435.98,467.39c-1.44,2.1-3.99,7.35-5.07,9.64-2.72,5.76-5.24,11.61-7.53,17.54"/><path class="cls-8" d="M413.92,487.18c1.84,.61,3.67,1.24,5.61,1.53,3.57,.53,7.05,1.52,10.51,2.51"/><path class="cls-8" d="M415.59,483.06c4.87,.24,11.36,2.24,16.23,2.48-.06-.24,.78-1.24,.56-1.36"/><path class="cls-8" d="M418.15,478.19c2.16,.24,4.97,.76,6.81,.71,3.52-.08,7.05,.11,10.53,.58"/><path class="cls-8" d="M419.78,472.6l17.32,.67"/><path class="cls-8" d="M418.2,466.86c5.47-.12,11.99-.19,17.46-.11"/><path class="cls-8" d="M411,460.42c7.12,.21,14.25,.28,21.37,.2"/><path class="cls-8" d="M394.04,450.16c9.82,2.76,25.34,3.17,35.25,5.65"/><path class="cls-18" d="M453.62,429.17c1.86-.91,3.76-1.73,5.7-2.46"/><path class="cls-38" d="M441.52,403.95s1.86-4.98,2.83-6.44c0,0,16.07,5.42,20.04,6.4,0,0,.73,5.59,.89,5.83,0,0-13.64-1.05-23.76-5.79Z"/><path d="M436.69,418.35c4.24,1.54,8.73,2.03,13.2,2.36,4.08,.3,8.16,.64,12.24,1,2.23,.2,4.46,.39,6.69,.55,.85,.06,1.58-.77,1.58-1.58,0-.91-.73-1.52-1.58-1.58-3.95-.28-7.88-.66-11.83-1s-8.2-.48-12.25-1.05c-2.46-.35-4.88-.9-7.21-1.75-.8-.29-1.73,.33-1.94,1.1-.24,.88,.3,1.65,1.1,1.94h0Z"/><path d="M439.53,406.41c8.5,3.64,17.63,5.85,26.85,6.57,.85,.07,1.58-.77,1.58-1.58,0-.91-.73-1.51-1.58-1.58-8.62-.67-17.3-2.73-25.25-6.14-.78-.34-1.69-.23-2.16,.57-.39,.67-.22,1.82,.57,2.16h0Z"/><path d="M442.65,396.29c.86,1.18,2.41,1.56,3.74,1.98,1.81,.57,3.59,1.24,5.39,1.84,4.18,1.39,8.4,2.68,12.64,3.86,1.96,.55,2.8-2.5,.84-3.05-4.01-1.12-8-2.33-11.95-3.63-1.86-.61-3.69-1.28-5.55-1.9-.54-.18-1.1-.34-1.64-.53-.14-.05-.28-.1-.42-.16-.43-.16,.24,.14-.14-.06-.11-.06-.22-.12-.33-.17-.06-.04-.12-.07-.18-.12,.14,.08,.25,.19,.33,.33-.5-.69-1.37-1.03-2.16-.57-.68,.4-1.07,1.47-.57,2.16h0Z"/><polygon class="cls-38" points="448.19 420.55 455.94 421.06 458.41 425.83 453.67 427.88 448.19 420.55"/></g><path d="M569.2,136.22c-.56-3.39-3.29-6.43-7.31-5.92-8.96-6.03-19.68-13.27-28.57-18.48-29.61-17.33-82.44-15.95-89.86-15.52-15.94,.94-27.1,9.49-43.06,9.18-59.19-1.16-103.34,5.47-158.72,28.46-13.89,5.77-14.35,7.8-27.6,14.86-4.65,3.96-27.07,7.76-31.03,12.41,10.03,1.05,49.14-.57,51.98-.58,5.43-.02,8.92-1.75,17.07,.39-4.34,1.39-30.19,18.8-34.53,20.2-.86,1.67,18.02-1.73,19.82-1.19,6.18,1.86,11.17-1.86,17.35,0,1.75,.53,3.86,1.52,3.81,3.35-.04,1.51-1.59,2.46-2.96,3.09-4.2,1.92-19.55,10.2-24.05,11.21,.17,4.72,14.81,2.28,19.43,3.23,2.79,.58,5.71,.01,8.54,.4,2.83,.39,5.87,2.29,5.94,5.15-4.97,4.87-19.97,9.18-21.64,9.95-7.98,3.67-15.47,8.41-22.2,14.06,12.61,2.35,25.5,3.28,38.32,2.75-14.39,8.12-28.77,16.25-43.16,24.37,19.03,6.96,42.67-5.15,42.76-.92,.09,4.22-22.92,17.9-39.21,26.24-2.06,1.05-20.75,12.55-26.57,22.83,6.83-2.28,45.97-16.62,72.55-22.83,22.57-5.27,91.85-24.19,134.77-20.83,22.6,1.77,19.66,6.19,42.67,14.48,12.22,4.4,22.61,5.1,35.48,6.84,9.64,1.31,20.54,3.47,28.91-2.96,4.55-3.5,4.61-10.98-1.67-12.76-12.65-3.6-5.64-23.63-4.28-32.23,1.17-7.4,17.58-49.91,32.33-67.24,6.42-7.54,16.45-17.59,25.41-22.35,6.04,2.63,13-4.38,9.31-9.63Z"/><g><g><path class="cls-40" d="M302.01,247.82c-.59,.07-2.65-.27-3.04-.65-.33-.32-1.22-3.36-1.29-3.82-1.05-6.81-.91-8.18-.94-14.52-.01-2.01,.9-6.29,1.05-8.32,.34-4.52,.83-7.14,.04-11.47-.4-2.19-.66-6.28-.77-8.54-.14-2.83-2.85-7.55-1.78-10.36,.58-1.52,5.58-2.35,6.77-3.57,1.19-1.24,4.72-2.11,5.99,.01,1.35,4.42,.48,8.5,1.39,13.06,.27,1.35,.82,4.48,1.73,5.51,.91,1.03,2.4-.21,3.7-1.06,.61-.4,1.01-1,1.42-1.58,4.34-6.26,11.6-12.06,18.79-15.27,3.09-1.38,4.96-6.19,8.03-5.15,3.08,1.03,7.22,6.75,4.98,9.18-1.81,1.96-6.7,4.57-9.02,5.97-3.84,2.26-13.17,7.44-12.45,11.41,.44,2.41,8.33,3.63,9.14,6,.49,1.41,3.51,1.56,4.28,3.03,.71,1.33,2.81,2.6,5.22,5.65,2.24,4.84,4.2,7.2,6.87,11.12,.65,.95,2.11,1.91,1.26,2.73-.22,.21-.52,.31-.81,.4-4.05,1.2-6.18,4.81-9.66,2.68-5.66-3.47-12.21-12.87-16.36-17.8-2.82-3.35-4.73-4.44-8.39-6.91-.99-.67-3.96-2.72-5.24-2.46-1.55,.31-.09,.31-.25,1.78-.16,1.47-.97,4.55-.69,5.97,.54,2.7,.11,3.96-.74,6.72-.82,2.65-1.44,5.22-1.85,7.91-.37,2.45,2.04,8.7,.22,10.74-1.57,1.76-5.45,1.35-7.61,1.62Z"/><path class="cls-40" d="M360.23,189.33c-.73-.93-1.29-2.12-.91-3.25,.27-.8,.95-1.42,1.61-2,2.28-2.01,4.58-4.03,7.22-5.61,2-1.2,4.47-2.15,6.67-1.41,.77,.26,1.45,.71,2.09,1.19,2.21,1.63,4.15,3.59,5.75,5.78,.23,.31,.45,.65,.43,1.03-.02,.35-.26,.66-.49,.94-1.99,2.43-4.01,4.89-6.66,6.66-2.23,1.48-6.05,3.07-8.68,1.81-2.46-1.18-5.39-3.05-7.03-5.13Z"/><path class="cls-40" d="M368.2,229.46c-.64-6.03-1.17-12.07-1.49-18.12-.07-1.4-.14-2.82,.27-4.18,.64-2.18,2.44-3.93,4.47-5.12,1.5-.87,3.57-1.44,4.89-.36,.99,.81,1.12,2.19,1.19,3.43,.55,9.9,1.08,19.82,1.6,29.74,.04,.82,.08,1.68-.27,2.42-.63,1.33-2.25,1.83-3.69,2.2-2.39,.61-4.65,.59-5.27-2.01-.64-2.69-1.4-5.25-1.7-8.01Z"/><path class="cls-40" d="M394.55,188.46c.84-2.67,1.06-5.71,2.18-8.12,.36-.77,.05-1.9,.8-2.36,.62-.38,1.53-.17,2.18,.3,.65,.47,1.08,1.16,1.45,1.84,3.23,5.9,3.62,12.52,4.11,18.89,.49,6.38,2.11,17.24,5.71,23.08,3.49-3.16,3.75-5.86,7.44-8.82,.71-.57,2-9.63,2.66-10.27,1.71-1.65,1.88-2.42,2.57-4.77,.9-3.07,2.11-6.02,3.62-8.78,1.4-2.56,3.1-5,5.53-6.63,1.68-1.12,2.62-2.01,3.99-3.48,.6-.64,2.14-1.24,2.89-1.71,1.25-.77,2.99-.54,4.6-.27,.67,.11,1.39,.25,1.92,.75,.78,.73,.77,1.93,.3,2.69-.47,.76-1.27,1.22-1.95,1.78-1.45,1.18-2.42,2.82-3.37,4.44-1.41,2.39-2.81,4.81-3.53,7.57-.33,1.29-.51,2.65-.98,3.87-.8,2.07-2.42,5.14-3.46,6.85-2.01,3.3-1.5,3.03-3.06,6.71-.49,1.14-1.75,5.23-2.22,6.38-1.08,2.63-3.6,6.23-5.53,8.19-2.45,2.48-2.61,3.9-5.04,6.38-1.81,1.85-3.64,3.59-4.9,5.89-.55,1.01-2.75,2.76-3.92,2.19-.46-.23-1.29-1.68-1.57-2.12-1.17-1.84-2.35-3.68-3.53-5.5-1.05-1.62-2.12-3.25-2.94-4.97-1.14-2.38-1.79-4.89-2.36-7.38-1.31-5.67-2.28-11.35-2.88-17.02-.29-2.65-.27-5.32-1.02-7.88-.78-2.69-.45-5.23,.33-7.72Z"/><path class="cls-40" d="M454.99,184.06c-.41-.5-.84-1.06-.89-1.68-.09-1.03,.84-1.73,1.68-2.24,2.02-1.24,4.04-2.47,6.07-3.7,1.53-.92,3.18-1.87,5.06-1.79,2.12,.09,4.1,1.48,5.78,2.97,2.28,2.03,4.47,4.77,4.31,7.64-.02,.45-.11,.91-.37,1.25-.24,.31-.6,.49-.96,.66-2.09,1.02-4.17,2.06-6.25,3.1-1.54,.77-3.9,2.56-5.84,2.18-1.52-.3-2.84-2.25-3.92-3.31-1.65-1.61-3.21-3.3-4.67-5.08Z"/><path class="cls-40" d="M458.79,229.69c-.12-6.57-.01-13.14,1.21-19.41,.49-2.49,1.17-4.98,2.6-6.97,1.43-1.99,3.71-3.42,6.27-3.25,.25,.02,.49,.11,.73,.21,.76,.31,1.28,2.16,1.39,2.51,1.69,5.57-.53,9.72-.93,15.27-.4,5.55,.17,11.06,.3,16.71,.04,1.52,.14,3.07-.11,4.52-.05,.28-.22,.49-.32,.74-.39,.93-2.55,1.07-2.83,1.06-2.36-.08-4.58-.4-6.31-2.78-1.81-2.48-1.95-5.83-2-8.61Z"/></g><g><path class="cls-40" d="M286.45,159.59c.48,4.52,.96,9.05,1.44,13.58-2.81,.69-5.61,1.41-8.41,2.15-1.25-10.99-2.5-21.98-3.75-32.97,4.28-1.2,8.58-2.35,12.9-3.44,7.41-1.86,11.51,.53,12.06,6.59,.43,4.64-1.97,7.38-4.17,8.71,3.08,.48,4.68,2.34,5.13,7.16,.04,.39,.07,.78,.11,1.17,.35,3.73,.7,5.8,1.08,7.23-2.79,.59-5.57,1.2-8.34,1.84-.56-1.19-1.01-4.12-1.34-7.37-.04-.38-.08-.76-.11-1.15-.39-3.94-1.4-4.77-4.71-3.95-.62,.15-1.24,.31-1.86,.47Zm-.58-5.71c.67-.17,1.34-.34,2.01-.51,3.25-.81,4.41-2.14,4.08-5.4-.27-2.74-1.51-3.68-4.38-2.95-.86,.22-1.72,.44-2.58,.66,.29,2.73,.58,5.47,.87,8.2Z"/><path class="cls-40" d="M315.03,155.84c.28,3.43,.86,5.98,3.53,5.51,2.4-.42,2.63-2.25,2.63-3.47,2.75-.48,5.5-.93,8.26-1.36-.09,1.84-.52,8.91-10.61,10.63-9.76,1.74-11.92-4.5-12.56-11.63-.78-8.81,2.85-14.23,10.61-15.71,8.91-1.66,11.85,3.31,12.34,10.65,.06,.9,.12,2.37,.12,2.92-4.79,.75-9.56,1.57-14.32,2.47Zm5.5-5.93c-.19-2.57-.5-4.94-3.22-4.44-2.75,.52-2.79,3.08-2.6,5.51,1.94-.37,3.88-.72,5.82-1.07Z"/><path class="cls-40" d="M331.62,137.7c1.2-.19,2.41-.37,3.62-.56-.13-2.1-.26-4.2-.39-6.3,2.92-.45,5.84-.86,8.77-1.26,.11,2.11,.23,4.22,.34,6.33,1.39-.18,2.79-.36,4.19-.53,.1,2.06,.21,4.12,.31,6.18-1.39,.17-2.78,.34-4.16,.51,.23,4.28,.46,8.56,.69,12.85,.08,1.43,.48,2.09,2.38,1.87,.54-.06,.88-.1,1.39-.24,.09,1.87,.19,3.73,.28,5.6-1.48,.67-3.61,.97-4.78,1.11-5.58,.67-7.54-.96-7.85-5.87-.29-4.7-.58-9.41-.87-14.11-1.17,.17-2.35,.35-3.52,.53-.13-2.04-.26-4.08-.4-6.12Z"/><path class="cls-40" d="M349.05,135.28c1.21-.15,2.42-.29,3.63-.42-.1-2.12-.2-4.25-.3-6.37,2.93-.34,5.87-.65,8.81-.94,.08,2.13,.17,4.27,.25,6.4,1.4-.13,2.8-.26,4.2-.38,.07,2.08,.15,4.16,.22,6.25-1.39,.11-2.79,.24-4.18,.36,.17,4.33,.33,8.65,.5,12.98,.06,1.44,.45,2.13,2.36,1.98,.54-.04,.89-.07,1.39-.19,.07,1.89,.13,3.77,.2,5.66-1.49,.62-3.63,.84-4.81,.94-5.6,.47-7.54-1.25-7.78-6.22-.22-4.75-.44-9.51-.66-14.26-1.18,.13-2.36,.26-3.53,.4-.1-2.06-.2-4.12-.31-6.18Z"/><path class="cls-40" d="M378.49,148.29c.09,3.57,.53,6.28,3.25,6.17,2.44-.1,2.77-1.94,2.84-3.2,2.79-.1,5.58-.18,8.37-.23-.19,1.89-1.01,9.11-11.26,9.44-9.92,.4-11.76-6.33-12-13.75-.3-9.17,3.67-14.23,11.57-14.67,9.06-.46,11.73,5.07,11.81,12.7,.01,.94,0,2.45-.04,3.02-4.85,.09-9.69,.27-14.53,.51Zm5.87-5.33c-.05-2.67-.23-5.16-2.99-5.02-2.8,.14-2.98,2.78-2.92,5.3,1.97-.11,3.94-.2,5.92-.28Z"/><path class="cls-40" d="M396.18,131.95c1.22-.03,2.44-.05,3.66-.06-.01-2.18-.03-4.37-.04-6.55,2.95-.05,5.9-.07,8.85-.07,0,2.19,0,4.39-.01,6.58,1.4,0,2.81,.02,4.21,.04-.01,2.14-.02,4.28-.03,6.42-1.4-.02-2.79-.04-4.19-.06,0,4.45-.02,8.9-.03,13.34,0,1.48,.36,2.22,2.27,2.27,.54,.01,.89,.02,1.4-.05-.01,1.94-.02,3.88-.03,5.81-1.51,.49-3.66,.49-4.84,.47-5.62-.1-7.49-2.06-7.52-7.17-.03-4.89-.05-9.78-.08-14.66-1.19,.01-2.37,.03-3.56,.05-.02-2.12-.04-4.24-.06-6.36Z"/><path class="cls-40" d="M452.31,124.24c-.38,9.96-.77,19.93-1.16,29.89-.15,3.89-.24,7.01-.24,8.51-2.76-.32-5.52-.62-8.28-.89-.11-.75-.16-2.06-.16-2.82-1.16,2-3.1,2.99-6.53,2.7-5.7-.47-8.39-5.08-8.2-15.48,.16-9.38,3.59-14.14,10.1-13.72,3.01,.2,4.61,1.34,5.19,2.42,.12-3.79,.24-7.57,.35-11.36,2.98,.22,5.95,.47,8.92,.74Zm-15.65,22.62c-.17,6.33,.58,8.39,2.77,8.58,2.58,.23,3.16-1.6,3.37-8.28,.19-6.11-.1-7.81-2.67-8.01-2.07-.16-3.3,1.12-3.47,7.71Z"/><path class="cls-40" d="M458.95,124.91c2.96,.32,5.92,.66,8.88,1.04-.12,2.26-.23,4.51-.35,6.77-2.94-.38-5.88-.74-8.83-1.07,.1-2.25,.2-4.49,.3-6.74Zm-.47,9.86c2.94,.33,5.87,.69,8.8,1.08-.5,9.59-1,19.19-1.51,28.78-2.85-.43-5.71-.84-8.58-1.21,.43-9.55,.86-19.1,1.28-28.65Z"/><path class="cls-40" d="M480.58,154.51c-.24,3.78-.06,6.73,2.6,7.23,2.38,.45,2.87-1.42,3.06-2.73,2.73,.53,5.44,1.08,8.16,1.66-.37,1.94-1.81,9.37-11.82,7.39-9.7-1.84-10.91-9.34-10.46-17.2,.54-9.71,4.91-14.13,12.65-12.82,8.88,1.55,10.95,7.98,10.32,16.04-.08,.99-.24,2.59-.32,3.18-4.71-.99-9.44-1.91-14.19-2.75Zm6.21-4.28c.2-2.82,.25-5.48-2.45-5.97-2.74-.48-3.17,2.25-3.34,4.92,1.93,.34,3.86,.68,5.79,1.04Z"/></g></g></g><g><path class="cls-44" d="M678.8,377.65c17.28,1.43,33.06-7.12,47.5-16.69-.98,.26-2.08,.31-3.09,.29-15.27-.37-29.96-5.57-45.03-8.06-18.41-3.04-37.48-1.96-55.43,3.12l-4.22,.46c4.24,2.42,9.2,4.34,13.35,6.92,6.74,4.18,10.15,10.91,46.93,13.95Z"/><path class="cls-44" d="M631.46,377.71c-3.82-5.13-7.04-11.18-12.84-13.86-5.81-2.68-16.63-5.34-18.2,.86,3.66,.03,8.38,8.06,11.41,14.46,3.03,6.4,10.1,35.22,25.16,48.62,15.06,13.4,44.47,22.4,70.72,19.36-1.1-6.63-48.7-32.47-76.26-69.44Z"/><path class="cls-44" d="M671.82,385.67s-18.13-3.89-23.72-1.17c10.63,2.49,28.66,26.38,40.59,30.44,12.87,4.38,27.01,4.25,40,.23,12.99-4.01,25-13.73,28.15-26.96-28.07,5.35-57.31,4.47-85.02-2.55Z"/></g></g></svg>