<?xml version="1.0" encoding="UTF-8"?>
<svg id="Layer_1" data-name="Layer 1" xmlns="http://www.w3.org/2000/svg" viewBox="0 0 50 50">
  <defs>
    <style>
      .cls-1 {
        fill: none;
        stroke: #fff;
        stroke-linecap: round;
        stroke-linejoin: round;
        stroke-width: 3px;
      }

      .cls-2 {
        fill: #fff;
        stroke-width: 0px;
      }
    </style>
  </defs>
  <path class="cls-1" d="M10.03,32.04c3.36-2.46,2.88-1.7,4.34-5.6,1.99,7.42.14,8.18-1.58,14.84"/>
  <path class="cls-1" d="M18.03,41.7c.4-7.8-1.1-8.23-2.94-15.82,3.23,1.8,2.44,3.04,7.08,1.35,3.17-3.87,2.83-10.1,4.72-11.35,1.02,10.38-.38,16.19-2.02,26.48"/>
  <path class="cls-1" d="M34.92,23.49c-3.3-2.65-5.77-7.82-7.69-7.81,1.88,10.44,3.18,16.59,5.06,27.03"/>
  <circle class="cls-2" cx="14.46" cy="21.2" r="2.5"/>
  <path class="cls-1" d="M46.18,30.72c-1.05-1.8-2.01-2.18-3.74-4.62-1.99,7.42-.44,10.37,2.69,13.79"/>
  <path class="cls-1" d="M39.07,41.74c-.4-7.8,1.1-8.23,2.94-15.82-3.23,1.8-1.16,3.47-5.81,1.78"/>
  <circle class="cls-2" cx="42.63" cy="21.24" r="2.5"/>
  <circle class="cls-2" cx="26.08" cy="11.12" r="2.5"/>
  <path class="cls-1" d="M3.82,26.48c.96-3.17,2.9-4.38,3.58-4.38.41,7.42-.59,7.52-2.32,14.18"/>
  <path class="cls-1" d="M10.32,36.71c-1.71-7.85-.72-7.02-2.56-14.61,2.53,1,3.39,2.25,5.06,3.83"/>
  <circle class="cls-2" cx="7.13" cy="17.25" r="2.5"/>
</svg>