<?xml version="1.0" encoding="utf-8"?>
<!-- Generator: Adobe Illustrator 26.3.0, SVG Export Plug-In . SVG Version: 6.00 Build 0)  -->
<svg version="1.1" id="Layer_1" xmlns="http://www.w3.org/2000/svg" xmlns:xlink="http://www.w3.org/1999/xlink" x="0px" y="0px"
	 viewBox="0 0 50 50" style="enable-background:new 0 0 50 50;" xml:space="preserve">
<style type="text/css">
	.st0{fill:#FFFFFF;}
</style>
<g id="Icon-Pencil" transform="translate(179.000000, 382.000000)">
	<path id="Fill-168" class="st0" d="M-175.6-335.4l3.7-14.9l22.7-22.7l11.2,11.2l-22.7,22.7L-175.6-335.4
		C-175.6-335.4-175.6-335.4-175.6-335.4z M-169.3-348.9l-2.4,9.6l9.6-2.4l20.2-20.2l-7.2-7.2L-169.3-348.9
		C-169.3-348.9-169.3-348.9-169.3-348.9z"/>
	<path id="Fill-169" class="st0" d="M-163.1-340c-1-3.9-4-6.9-7.9-7.9l0.7-2.8c4.9,1.2,8.7,5,9.9,9.9L-163.1-340"/>
	<polyline id="Fill-170" class="st0" points="-163.4,-345.5 -165.4,-347.6 -145.5,-367.5 -143.5,-365.5 -163.4,-345.5 	"/>
	<path id="Fill-171" class="st0" d="M-173.6-337.4l4.4-1.1c-0.4-1.6-1.7-2.9-3.3-3.3L-173.6-337.4"/>
	<path id="Fill-172" class="st0" d="M-136.9-362.9l-11.2-11.2l4.5-4.5l0.7,0.1c5.4,0.7,9.7,5,10.4,10.4l0.1,0.7L-136.9-362.9
		C-136.9-362.9-136.9-362.9-136.9-362.9z M-144-374.1l7.2,7.2l1.4-1.4c-0.8-3.6-3.6-6.4-7.2-7.2L-144-374.1
		C-144-374.1-144-374.1-144-374.1z"/>
</g>
</svg>
