<?xml version="1.0" encoding="UTF-8"?><svg id="Layer_1" xmlns="http://www.w3.org/2000/svg" width="50" height="50" viewBox="0 0 50 50"><defs><style>.cls-1{fill:#fff;}.cls-2{fill:none;stroke:#fff;stroke-linecap:round;stroke-miterlimit:10;stroke-width:2.5px;}</style></defs><g><path class="cls-2" d="M8.024,33.691c1.413,1.843,3.291,3.385,5.475,4.614-.929,3.767-1.19,6.592,.502,7.134,3.14,1.005,4.42-.468,6.613-4.486,2.749,.602,5.68,.844,8.642,.678,1.586-.089,3.07-.323,4.466-.665,2.189,4.008,3.47,5.477,6.606,4.473,1.774-.568,1.402-3.643,.364-7.685,4.365-3.247,6.75-8.193,6.75-13.664,0-7.771-6.541-13.299-15.313-14.806"/><circle class="cls-2" cx="27.997" cy="7.001" r="4.744"/><path class="cls-2" d="M23.688,8.963c-2.588,.184-4.814,.677-7.095,1.977h0s-2.712-.735-4.202-1.416c-.242-.11-.522-.221-.763-.108-.371,.175-.428,.725-.275,1.106,1.749,4.357-2.919,8.582-3.54,9.257-1.334,1.452-3.4,1.653-5.369,1.759,0,.003,.032,9.551,0,9.526,.861,.735,10.38,4.289,17.304-1.804"/></g><circle class="cls-1" cx="15.127" cy="21.141" r="2.216"/><path class="cls-2" d="M23.575,12.513c3.222-.985,8.235-.716,9.309,0"/></svg>