<?xml version="1.0" encoding="UTF-8"?>
<svg id="Layer_1" data-name="Layer 1" xmlns="http://www.w3.org/2000/svg" viewBox="0 0 50 50">
  <defs>
    <style>
      .cls-1 {
        fill: none;
        stroke: #fff;
        stroke-linecap: round;
        stroke-miterlimit: 10;
        stroke-width: 2.5px;
      }

      .cls-2 {
        fill: #fff;
        stroke-width: 0px;
      }
    </style>
  </defs>
  <g>
    <path class="cls-1" d="M41.98,33.69c-1.41,1.84-3.29,3.39-5.48,4.61.93,3.77,1.19,6.59-.5,7.13-3.14,1-4.42-.47-6.61-4.49-2.75.6-5.68.84-8.64.68-1.59-.09-3.07-.32-4.47-.66-2.19,4.01-3.47,5.48-6.61,4.47-1.77-.57-1.4-3.64-.36-7.68-4.36-3.25-6.75-8.19-6.75-13.66,0-7.77,6.54-13.3,15.31-14.81"/>
    <circle class="cls-1" cx="22" cy="7" r="4.74"/>
    <path class="cls-1" d="M33.41,10.94s2.71-.74,4.2-1.42c.24-.11.52-.22.76-.11.37.17.43.73.28,1.11-1.75,4.36,2.92,8.58,3.54,9.26,1.33,1.45,3.4,1.65,5.37,1.76,0,0-.03,9.55,0,9.53"/>
    <path class="cls-1" d="M26.31,8.96c2.59.18,4.81.68,7.1,1.98"/>
    <path class="cls-1" d="M47.56,31.06c-.86.73-10.38,4.29-17.3-1.8"/>
  </g>
  <circle class="cls-2" cx="34.87" cy="21.14" r="2.22"/>
  <path class="cls-1" d="M26.43,12.51c-3.22-.98-8.24-.72-9.31,0"/>
</svg>