<?xml version="1.0" encoding="UTF-8"?>
<svg id="Layer_1" data-name="Layer 1" xmlns="http://www.w3.org/2000/svg" version="1.1" viewBox="0 0 841.9 595.3">
  <defs>
    <style>
      .cls-1 {
        stroke-width: 1.2px;
      }

      .cls-1, .cls-2, .cls-3, .cls-4, .cls-5, .cls-6, .cls-7, .cls-8, .cls-9, .cls-10, .cls-11, .cls-12, .cls-13, .cls-14, .cls-15, .cls-16, .cls-17, .cls-18, .cls-19, .cls-20, .cls-21, .cls-22, .cls-23, .cls-24, .cls-25, .cls-26, .cls-27, .cls-28, .cls-29, .cls-30, .cls-31, .cls-32, .cls-33, .cls-34, .cls-35, .cls-36 {
        stroke: #000;
      }

      .cls-1, .cls-2, .cls-4, .cls-5, .cls-6, .cls-7, .cls-8, .cls-9, .cls-11, .cls-12, .cls-13, .cls-14, .cls-15, .cls-16, .cls-17, .cls-18, .cls-20, .cls-21, .cls-22, .cls-23, .cls-24, .cls-26, .cls-27, .cls-28, .cls-29, .cls-31, .cls-33, .cls-34, .cls-35, .cls-36 {
        stroke-miterlimit: 10;
      }

      .cls-1, .cls-37, .cls-35 {
        fill: #fff;
      }

      .cls-38, .cls-39, .cls-40, .cls-41, .cls-42, .cls-43, .cls-44, .cls-45, .cls-46, .cls-37, .cls-47, .cls-48, .cls-49 {
        stroke-width: 0px;
      }

      .cls-38, .cls-12, .cls-33 {
        fill: #c2c2c2;
      }

      .cls-2, .cls-6, .cls-7, .cls-9, .cls-16, .cls-35 {
        stroke-width: 1.1px;
      }

      .cls-2, .cls-40, .cls-13, .cls-28 {
        fill: #bbb;
      }

      .cls-3, .cls-10 {
        stroke-width: 1.9px;
      }

      .cls-3, .cls-10, .cls-19, .cls-25, .cls-30, .cls-32 {
        stroke-linejoin: round;
      }

      .cls-3, .cls-11, .cls-20, .cls-46 {
        fill: #dbdbdb;
      }

      .cls-39, .cls-8, .cls-17 {
        fill: #b3b3b3;
      }

      .cls-4, .cls-17, .cls-20, .cls-27, .cls-30, .cls-31 {
        stroke-width: 1.3px;
      }

      .cls-4, .cls-30, .cls-49 {
        fill: #737373;
      }

      .cls-5, .cls-13 {
        stroke-width: 1.4px;
      }

      .cls-5, .cls-45, .cls-24 {
        fill: #000;
      }

      .cls-6, .cls-21, .cls-23, .cls-27 {
        fill: #9f9f9f;
      }

      .cls-7, .cls-18, .cls-48 {
        fill: #d5d5d5;
      }

      .cls-8, .cls-11, .cls-14, .cls-15, .cls-18, .cls-21, .cls-24, .cls-28, .cls-32, .cls-33, .cls-34 {
        stroke-width: .9px;
      }

      .cls-9, .cls-34 {
        fill: #d9d9d9;
      }

      .cls-10, .cls-14, .cls-15, .cls-16, .cls-19, .cls-22, .cls-25, .cls-26, .cls-29 {
        fill: none;
      }

      .cls-41 {
        fill: #d8d8d8;
      }

      .cls-12 {
        stroke-width: 1.7px;
      }

      .cls-42 {
        fill: #ffec00;
      }

      .cls-14, .cls-20, .cls-28, .cls-30, .cls-34 {
        stroke-linecap: round;
      }

      .cls-43, .cls-31, .cls-36 {
        fill: #888;
      }

      .cls-44 {
        fill: #020202;
      }

      .cls-19 {
        stroke-width: 2.3px;
      }

      .cls-22 {
        stroke-width: 2.2px;
      }

      .cls-23, .cls-29 {
        stroke-width: .8px;
      }

      .cls-25 {
        stroke-width: 1.5px;
      }

      .cls-26 {
        stroke-width: .5px;
      }

      .cls-32 {
        fill: #c9c9c9;
      }

      .cls-47 {
        fill: #adadad;
      }

      .cls-36 {
        stroke-width: 2.8px;
      }
    </style>
  </defs>
  <g id="Layer_2" data-name="Layer 2">
    <polygon class="cls-42" points="420.9 35.4 435.3 70 456.2 38.9 463.6 75.6 490.1 49.2 490.2 86.7 521.3 65.9 514.1 102.6 548.7 88.4 534.4 123 571.2 115.7 550.4 146.9 587.9 147 561.4 173.5 598.2 180.9 567.1 201.8 601.7 216.1 567.1 230.5 598.2 251.4 561.4 258.8 587.9 285.3 550.4 285.4 571.2 316.5 534.4 309.3 548.7 343.9 514.1 329.6 521.3 366.4 490.2 345.6 490.1 383.1 463.6 356.6 456.2 393.4 435.3 362.3 420.9 396.9 406.6 362.3 385.7 393.4 378.3 356.6 351.8 383.1 351.7 345.6 320.5 366.4 327.8 329.6 293.2 343.9 307.4 309.3 270.7 316.5 291.5 285.4 254 285.3 280.4 258.8 243.7 251.4 274.8 230.5 240.2 216.1 274.8 201.8 243.7 180.9 280.4 173.5 254 147 291.5 146.9 270.7 115.7 307.4 123 293.2 88.4 327.8 102.6 320.5 65.9 351.7 86.7 351.8 49.2 378.3 75.6 385.7 38.9 406.6 70 420.9 35.4"/>
  </g>
  <g>
    <g>
      <path class="cls-47" d="M518.8,191.9c-1.1-.8-2.4-1.4-3.7-2-1.6-.8-2.9-1.5-4.4-2.7-2-1.6-3.5-4.1-5-6.1-2-2.8-4.4-5.1-7.3-6.1-3.4-1.2-7.9,0-11.4,2.1-2.7,1.6-4.4,3.9-5.9,7-1.6,3.3-1.7,8.8-1.7,12.7v.9c0,11-7.8,31.5-7.8,31.5-2.6,8.1-7.5,16.2-15.5,19.2-3.9,1.5-6.2,2.4-10.3,2-17.6-1.8-28.6-10.3-52.3-3.6-10.6,3-19.6,10.3-27.7,17.8-14.6,13.4-28.9,26.5-46,36.5-5.2,3.1-9,4.4-14.8,6-5,1.3-14.6-3.4-18.1-4.7-2.5-1-.7,3.4-2.2,1.7,7.1,13.4,26.4,12.8,39.7,8.8s25.6-13.1,39.3-15.2c3.6-.6,7.5-.7,10.9.7s6.6,5.3,6.6,9c9.8.8,19.4,1,29.2,1.8.1-2.9.3-5.7.4-8.6,14.5,1.9,19.8-2.1,29.7-3.1,1.2-.1,3.5-.7,4.6-.5,4.5,1.1,4.5,7.5,4.5,12.1,6.3.4,11.9,1,18.3,1.5,1.6-3.9.9-5.9.8-10.2,0-1,8.3,1.6,8.3.7.3-5-1-12.1-1.6-16.4-.4-3.2,4-5.9,5.4-8.5,2.4-4.4,3.4-10.2,4.1-15.2,0,0,3.1-33.7,6.4-48.3.9-4,2.2-8.8,6.1-10.2,1.3-.5,4.2-.4,6.9-.3,1.2,0,2.2.1,3.2.2,2.3.1,4.1.3,6.9,0,4.4-.3,7-1.5,7.8-3.7.9-2.5-1-5.4-3.4-7h0Z"/>
      <g>
        <path class="cls-48" d="M329.4,250.9c-1.7,0-4.2,0-6-.1-.5,0-1,0-1.4-.2-.6-.2-1.1-.7-1.6-1.2-.8-.8-2-1.4-2.9-2.2-1.1-1-2.8-2.3-3.5-3.6-.9-1.5-.2-3.2-.5-5,0-.2,0-.4-.3-.5-.2-.1-.5,0-.6.2-.8.7-1,1.9-1.5,2.9-.1.2-.3.4-.5.4-.1,0-.2-.1-.3-.2-1.5-1.3-3-2.6-4.5-3.9-.4,0-.3.6,0,1,.5.8.5,1.4.8,2.2,0,.3.4,1,.1,1-.1,0-.2,0-.3,0-1.1-.6-2.3-1.5-3.5-2-.2,0-.9.6-.7.8s.9,1,1.1,1.1c1.2.5,1.9,1,2.9,1.7-1.2.8-3.1-.1-4.2.9,0,0-.1.1-.1.2,0,.2.2.3.4.4,1,.3,1.9.5,2.9.6.2,0,.4,0,.6.2.4.3.3.7-.1,1s-1,.7-1.2,1.1c0,.1-.1.3,0,.4,0,.2.4.3.6.3,2.1,0,4.2-1.2,6.2-.8,1.5.3,2.7,1.5,3.8,2.6,1.1,1.1,2.3,2.1,3.6,3.1,1.6,1.2,3.4,2.4,5.4,2.7,1.3.2,2.7.1,4,0,1.1,0,2.3-.2,3.4-.3"/>
        <path class="cls-45" d="M329.4,250.4c-2.1-.1-4.3,0-6.5-.1-1.3-.1-2-1.1-3-1.8-.9-.7-1.8-1.3-2.6-2-.8-.7-1.7-1.4-2.4-2.3-.8-1-1-2-.9-3.2,0-.8.3-2.3-.3-3-.7-.8-1.7.2-2.1.9-.3.5-.5,1-.7,1.5,0,.1-.2.7-.4.8-.1,0-.8-.7-.9-.8-1.2-1-2.4-2.1-3.6-3.1-.1-.1-.3-.2-.5-.1-.8.3-.6,1.1-.3,1.7.3.5.4,1,.6,1.5,0,.1.4,1.1.4,1.1l.3-.2c0,0-.6-.3-.7-.4-.3-.2-.6-.3-.9-.5-.6-.4-1.1-.7-1.7-1-.4-.2-.7-.2-1,.1-.3.2-.6.5-.6.9,0,.6.8,1.3,1.3,1.6.4.3,1,.4,1.4.7.5.3,1,.7,1.5,1v-.8c-1.1.6-2.4,0-3.6.5-.4.1-.9.4-1,.9-.1.6.5.9,1,1,.7.2,1.5.3,2.3.4.2,0,.4,0,.6,0,.2,0,.4,0,.2.3-.1.3-.6.5-.8.6-.4.3-.8.8-.7,1.3,0,.5.6.7,1.1.8,1.5,0,2.9-.5,4.3-.8,1.7-.3,3,.3,4.3,1.4,2.3,2.1,4.5,4.3,7.2,5.8,1.5.8,3.1,1.3,4.8,1.3,2,0,3.9-.2,5.9-.4.6,0,.6-1,0-.9-3.1.2-6.4.9-9.3-.4-2.7-1.2-5-3.4-7.1-5.4-.9-.9-1.8-1.7-3-2.2-1.2-.5-2.5-.3-3.8,0-.7.2-1.4.4-2.1.5-.3,0-.8.2-1.1,0,0,0-.2,0-.1,0,0-.1.3-.3.4-.4.4-.4,1-.6,1.2-1.1.2-.5,0-1-.4-1.2-.5-.4-1.5-.3-2.1-.4-.4,0-1-.3-1.4-.3h-.1c-.1-.1-.2,0-.2.1.1,0,.3-.2.4-.3.6-.2,1.2-.1,1.8-.1.6,0,1.2,0,1.8-.4.3-.2.3-.6,0-.8-.9-.6-1.8-1.1-2.8-1.6-.3-.2-.5-.4-.8-.7,0,0-.1-.2-.2-.2,0-.1,0-.1,0,0,0,.1,0,.1,0,0,.1,0,.2-.3.4-.3h-.4c.9.4,1.8,1,2.7,1.6.5.3,1.4.9,1.8.3.3-.6-1-4-1.3-3.9h-.5c1.1.8,2.2,1.8,3.3,2.8.6.6,1.8,2,2.6,1,.7-.8.7-2,1.4-2.8.2-.2.3-.4.4-.1.1.3,0,.8,0,1.1,0,.6,0,1.3,0,1.9,0,2.4,1.9,3.8,3.5,5.2.8.7,1.7,1.4,2.6,2.1.9.7,1.7,1.6,2.8,2,1.1.4,2.4.3,3.6.3,1.3,0,2.6,0,3.9,0,.6,0,.6-.9,0-.9h0Z"/>
      </g>
      <g>
        <path class="cls-48" d="M357.3,247.6c.6-.3,1.3-.5,2-.4.3,0,.7.2,1,.3.3.1.6.3.8.5.2.2.5.5.6.7.2.5.6,1,.7,1.6.1.7-.2,2-1,1.4"/>
        <path class="cls-45" d="M357.5,248.2c.4-.2.8-.3,1.2-.4.4,0,.8,0,1.1.2.3.1.6.2.8.4.1.1.2.2.4.4.1.1.1.1.2.3.2.3.4.6.5,1,0,0,0,.2,0,.2,0,0,0,.2,0,0,0,.1,0,.3,0,.4,0,.2,0,0,0,0,0,0,0,.1,0,.2,0,0,0,.2,0,0,0,0,0,0,0,.1,0,.1,0,0,0,0,0,0,0,0,0,0,0,0,.1,0,0,0,0,0,.3,0,.1,0,0,0,0,0,0,0,0,0,0,0-.1,0-.3-.2-.7,0-.9.2-.2.3,0,.7.2.9.6.4,1.3.2,1.7-.4.3-.5.4-1.2.3-1.8,0-.4-.3-.8-.5-1.1-.2-.3-.3-.7-.6-1-.2-.3-.5-.5-.8-.7-.3-.2-.7-.4-1.1-.5-1-.4-2-.2-3,.2-.3.1-.6.4-.5.8,0,.3.5.6.8.5h0Z"/>
      </g>
      <path class="cls-24" d="M388.3,183.5c-.4-.2-.8-.5-1.2-.8-.6-.4-1.2-1-1.3-1.8s.7-1.6,1.4-1.3c-.3-.8-.5-1.6-.2-2.3.5-1,1.9-1.2,3-1.1.4,0,.9,0,1.2.2s.7.6.5,1c-.3-.8.4-1.8,1.3-1.9s1.8.5,2.1,1.3.3,1.8,0,2.6c.8-.1,1.7,0,2.5.4s1.3,1.2,1.2,2.1-.8,1.6-1.6,1.6c.7.2,1,1.1.7,1.7s-1,1-1.7,1.1c-1.8.3-2.7,0-4.3-.9"/>
      <path class="cls-33" d="M387.1,186.3c.6-.8.8-1.8,1.4-2.6s1.8-1.3,2.6-.8c.7.4.8,1.3.8,2.1,0,1.2-.3,2.3-.8,3.4"/>
      <path class="cls-24" d="M368.5,188.9c-1.1,0-2.8-.2-3.9-.3-.6,0-1.2,0-1.7-.2s-1.2-.7-1.1-1.3c0-.4.3-1,.3-1.2-.2-1-2.1-.7-2.3-1.7,0-.5.3-.9.8-1.1s1,0,1.4,0c-.2-1.1-.4-2.5.6-3.1.4-.2.9-.3,1.3-.3,1,0,2.2,0,2.5.9.3-.8.9-1.4,1.6-1.9.4-.3.9-.5,1.4-.5.8,0,1.5.5,1.8,1.2s0,1.6-.6,2.1c1-.2,2.3-.3,3,.5.8.8.6,2.2-.1,3s-1.8,1.3-2.8,1.7"/>
      <path class="cls-22" d="M355.2,274.6c4.1-3.1,9.3-8,13.1-11.7,12.5-12.3,29.9-20.5,47.4-18.9,8,.8,15.6,3.5,23.5,5s20.7,1.4,25.7-6.4"/>
      <path class="cls-18" d="M433.9,262c0,.6-1.2,1.3-1.3,1.9-.1.4,0,.8.3,1.1s.6.5,1,.7c1.2.6,2.3,1.3,3.5,1.9,1.2.7,2.5,1.4,4,1.5.3,0,.6,0,.9,0s.5-.4.5-.7c0-.2-.1-.5-.3-.7-.8-1.3-1.6-2.5-2.3-3.8"/>
      <path class="cls-6" d="M440.4,241.7c1.2,1.1,2,3.6,2.5,5.1.5,1.3,1.3,2.4,2,3.6.7,1.2,1.3,2.5,1.1,3.9-.2,1.4-1.1,2.6-1.8,3.9-1,2-1.2,4.2-1.4,6.4-3.4-.3-5.7-1-8.7-2.5,1-2.1,1.8-3.2,2.7-5,.9-1.8,1.2-4,.3-5.8-1.4-2.8-5.1-3.7-8-4.9-2-.9-3.6-3.3-4.1-5.7"/>
      <g>
        <path class="cls-45" d="M389.7,263.3c0,.7.2,2.9.3,3.6,0,0,0,.2,0,.3.1.2.4.3.7.3,2.8,0,5.6.1,8.4.6,1.3-.6-.7-1.6-1.2-1.7-1.9-.7-3-2.2-4-4"/>
        <path class="cls-45" d="M389.2,263.3c0,1.2.1,2.5.3,3.7.1,1,1.1.9,1.9.9,1.1,0,2.2,0,3.3,0,1.1,0,2.1.2,3.2.3.4,0,1.1.3,1.5.1.3-.1.5-.4.6-.7.4-1-1.1-1.8-1.9-2.1-1.8-.7-2.8-2.1-3.7-3.7-.3-.6-1.3,0-1,.6.8,1.5,1.8,2.9,3.2,3.8.6.3,1.1.5,1.6.7.2.1.4.3.6.4.1,0,0,0,0,0,0,0,0-.1,0-.1,0,0-.2.1-.2.1h.4c-2.5-.5-5.1-.7-7.7-.7-.3,0-.6,0-.9,0,0,0-.2,0-.1,0,0,0,0-.2,0-.2,0-.4,0-.7,0-1.1,0-.8-.1-1.5-.2-2.3,0-.7-1.2-.7-1.1,0h0Z"/>
      </g>
      <path class="cls-27" d="M381.3,258.7c2-.5,3.1-.8,6.1-1.8.4-.1,1-.3,1.3,0,.2.2.3.5.4.8.4,1.5.3,3.4.5,4.9,0,.6.9.9,1.2.9.4,0,1.1,0,1.3,0,.8-.2.9,0,1.7-.6.7-.6.3-1.9.4-2.9.2-1.4.6-2.4.7-3.7,0-.3,0-.7-.2-.9-.1-.2-.5-.6-.7-.8-2.2-1.1-4.4-2.2-6.6-3.3-.6-.3-.9-.6-1.6-.6-.8,0-1.8.2-2.6.5-1.3.5-2.6,1.1-3.9,1.6-1.3.5-4.5,1.9-4.2,3.8.3,2.2,4.6,2.2,6,1.8h0Z"/>
      <path class="cls-24" d="M353.2,227.7c-.5-.1-1.3.4-1.5.9s-.1,1.1.2,1.4c.2.2.5.3.7.6.2.4,0,1-.2,1.4-.4,1-.3,2.2,0,3.2s1,1.9,1.5,2.8c1-1.7,1.2-3.8.5-5.6-.2-.4-.4-.9-.4-1.4.5,0,1-.2,1.4-.4s.8-.7.8-1.1c-.1,0-.3,0-.4.1"/>
      <path class="cls-11" d="M398.2,237.8c3.8,2.6,6.3,7.4,6.4,12,0,.4-.2.8-.2,1.3,0,.5-.4,1.2-1,2-1.2,1.7-2.6,3.3-3.8,5-.1.2-.5-.5-1.2-.8-.9-.4-1.9-.7-2.8-.3,0-2.3,2.4-4.1,2.3-6.4,0-1.7-1.2-2.3-2.6-3.1-1.5-.8-3.4-.3-4.9-1.1s-3.1-3.8-3.4-5.5"/>
      <path class="cls-21" d="M394.7,201.3c.2-.2.8-.8,1.1-.8s.6.2.7.4c0,.2.1.4.2.6.2,1.4,0,2.7-.2,4.1,0,.2-.1.4-.2.6-.3.5-.8.7-1.4.8"/>
      <path class="cls-8" d="M371.2,191.8c-1.2-.8-2.5-1.8-2.6-3.2,0-.2,0-.7.2-.8.1-.1.1-.1.3-.2.8-.5,2.1-.3,2.8,0,.8.4,2.2,1.1,2.5,1.9"/>
      <path class="cls-4" d="M414.7,247.6c1.4.9,2.3,3.7,1.2,5-.5.6-1.2,1-1.9,1.4-1.2.7-2.4,1.6-3.4,2.5-.6.5-1.1,1.1-1.3,1.9-.4,1.6,1.1,3,2.5,4,1,.7,1.9,1.4,2.9,2.2.7.6,1.9,1,2.5.3.4-.5,0-1.3-.3-1.8-.4-.7-.7-1.3-1.1-2-.3-.5-.5-.9-.5-1.5,0-1.4,1.8-1.8,3-2.5,1.1-.6,2.1-1.2,3.1-2.1s1.7-2,1.7-3.3c0-2.2-1.3-3.7-1.8-5.9"/>
      <path class="cls-20" d="M401.3,193.1c-.2.2-.4.3-.6.4-.5.3-1.1.5-1.6.2-.7-.4-.6-1.5,0-2s1.5-.8,2.3-.9c.5,0,.7,0,1.2,0,.4.1.8.4.9.6.2.3.3.6.3,1,0,1.1,0,2.4-.8,3.1-.3.3-.6.5-1,.6-1,.5-2.1,1-3,.5-.6-.2-1.2-.7-1.6-1.1-.7-.8-1.3-1.7-1.3-2.9s.3-2.2,1-3c.4-.4.9-.7,1.4-.9,1.2-.6,2.5-1,3.8-1s2.7.5,3.6,1.5c.4.4.6.9.8,1.5.4.9.5,1.8.6,2.9,0,1-.9,2.9-1.7,3.4"/>
      <path class="cls-20" d="M415.6,194c.2.3.4.7,1.1.9.5.1,1.4.1,1.6-.8.1-.5-.2-1.1-.5-1.4s-.8-.5-1.3-.6c-1.2-.2-2.6.4-3,1.6-.1.4-.1.8-.1,1.2,0,.8.2,1.6.8,2.1.6.5,1.5.5,2.2.5,1,0,2,0,2.9-.5,1.2-.7,2-2.4,1.5-3.7-.2-.5-.3-.8-.6-1.3-.4-.8-1.5-1.6-2.3-1.9-.4-.1-1.3-.3-1.8-.3-1.2,0-2,.1-3.2.8-.3.2-.7.5-.9.7-.5.5-.9,1.1-1,1.8-.2,1.2,0,3.7.3,4.8"/>
      <path class="cls-11" d="M420.4,209.1c0,1,.5,2.7,1.1,3.7.4.6.9,1.2,1.4,1.7s.8.5,1.7.5c-.5,1.3-1.2,2.2-2.4,3.1-.5.4-1.1.7-1.7.8-1.3.1-2.8-.9-3.8-1.8"/>
      <path class="cls-11" d="M399,211.9c.5,1.9-1.1,4.8-3,5.3.9,1,2,1.9,3.4,2s3.1-.8,3.6-2"/>
      <path class="cls-12" d="M430.4,211.4c-1.3.7-2.6,2.3-3.1,3.7-.5,1.4-.7,2.9-.9,4.5-.2,1.6-.4,3.2-.2,4.8,0,.4.1.9.1,1.3,0,.4,0,.8-.1,1.2-.3,2-.6,3.9-1,5.9-.4,2.6-.8,5.3,0,7.7,0,.2.1.3.3.4.1,0,.3.1.4.1,4.9.6,9.9,1.2,14.8,1.8.1-1.5.4-2.9.5-4.5,0-1,.2-2.1.2-3.1,0-3.4,1.5-6.6,1.6-10,0-4.8-2.8-9.9-2.5-14.7"/>
      <path class="cls-7" d="M423.5,197.5c-.4-.1-.9-.2-1.3-.2-.3,0-.6,0-.9.2-.5.3-.6.8-.7,1.4,0,1.3.5,2.6,1.3,3.7.3.4.7.8,1.2,1.1,1.2.7,2.6.7,4,.6"/>
      <path class="cls-7" d="M443.4,194.7c.4-.2,1.4-.4,1.9-.4s1,.2,1.2.7c0,.2.1.4.1.6,0,.8,0,1.7-.2,2.5s-.8,1.5-1.6,1.9c-.7.3-1.4.2-2.1.4"/>
      <path class="cls-27" d="M464.1,182.8c.2-2.3,1.4-4.6,2.5-6.7,2-3.8,4.1-7.6,6.1-11.5.4-.7.7-1.4,1-2.1.4-1.1.6-2.2.9-3.4.6-2.5,26.3-62.8,27.6-65,.7-1.2,1.6-2.4,2.9-2.5.4,0,.8,0,1.2.2.6.3.9,1,.9,1.7.3,2.5-26.1,62.4-27.4,64.6-.9,1.5-1.6,3.1-2.3,4.7-3.4,8-6.4,16.1-9.2,24.3"/>
      <path class="cls-36" d="M390.2,309.5c3.2,0,19.1.3,22.3.3-.5,2.2.5,4.5,1.5,6.6.6,1.2,1.2,2.5,2.2,3.5.9.9,2.1,1.4,3.3,1.9,1.9.8,3.7,1.6,5.6,2.5,1.4.6,2.8,1.3,3.9,2.3s2.1,1.9,1.2,4.2c-1.8,1.3-3.9,1-5.7,1-5.2,0-11.6-.4-16.8-.4"/>
      <path class="cls-3" d="M469,327.6c5.8-.2,20.2-1,26.1-1.4.5,0,1.1,0,1.5-.4,1-.6,1-2.2.3-3.2-.7-1-1.8-1.5-2.9-2.1-4-2.1-7.6-4.8-11.2-7.4-1.2-.9-2.4-1.8-3-3.1-.6-1.5-.3-3.2,0-4.7.2-1.1.4-2.3.6-3.4-3.9-.3-7.9-.8-11.8-1.3"/>
      <path class="cls-45" d="M449.2,310c0-3.1-.3-6.2-1.5-9-.3-.8-.9-2.1-1.4-2.7-.8-1-2.6-.7-4-.5-4.3.6-8.5,2.3-13.3,3.4h-.5c-1.7.5-3.5.9-5.3,1.1-3.3.4-6.6,0-10.2-.4-.7,0-1.4-.2-2.1-.4s-1.4-.7-2-1.1l-.2-.2c-.5-.3-1-.5-1.5-.8-.8-.4-1.6-.7-2.3-1.3-.9-.7-.9-1.2-.8-2.1v-.4c.1-.7.2-1.3.3-2,.2-2.9,0-5.5-.5-7.9-.2-1.1-.6-2.2-.9-3.1-1.1-3.3-2.3-6.6-3.8-9.7,0,0-.7-2.5-.6-3s1.1.4,1.1.4c1.5,3.2,4,8.4,5.1,11.8.3.9.6,2.1.9,3.2.6,2.6.7,5.4.5,8.5,0,.7,0,.8-.1,1.5v.8c0,.1.2.3.3.4,0,0,.1,0,.2.1.5.3,1.3.9,2.1,1.3.6.3.6.3,1.2.6l.8.4c.5.2.7.2,1.2.4.5.2,2.2.6,2.8.7,3.5.4,5.3.2,8.4-.2,1.7-.2,3.2-.4,4.8-.7l2.9-.6c4.8-1.1,8.1-2.2,12.4-2.8,1.7-.3,3.7,0,4.8,1.4.8.9,1.2,2.1,1.6,3.1,1.4,3,1.9,6.4,1.9,9.7h-2.4c0,0,0,0,0,0Z"/>
      <path class="cls-19" d="M402.4,307.5c.4-1.6.7-2.5,1.2-4,.7-1.9,1.3-5.1,1.5-7.1"/>
      <path class="cls-10" d="M410.3,309.5c.4-.5.4-1.2.5-1.9.2-2.3.2-4.7.1-7"/>
      <path class="cls-25" d="M474.9,284.5l.9,3.1c.3.9.5,1.9.7,2.9.1.8.2,1.7.2,2.5,0,2.4.3,5.8.4,8.3"/>
      <path class="cls-45" d="M307.8,317c-5.2,0-10.7-1-15.8-3.7-2.1-1.1-3.8-2.4-5.1-3.8-1.6-1.7-2.7-3.9-3.3-6.2-.2-1.1.3-1.7,1-2.1.8-.5,2.1-.4,3.1.2.4.2.8.5,1.2.7.5.2.9.4,1.3.7,3.9,2.4,9.5,4.6,16.1,3.4,6.2-1.2,12-5.1,17.3-8.5,2-1.3,3.9-2.7,5.9-4.2,8.5-6.4,16.9-13,25.1-19.8h3.4c-8.2,6.8-18.4,14.7-26.9,21.1-2,1.5-4.5,3.2-6.5,4.5-5.5,3.5-11.8,7.1-18.2,8.3-7.1,1.4-12.9-.4-17.2-3.1-.4-.2-.8-.4-1.2-.6-.5-.2-1-.5-1.4-.8-.9-.5-.9-.2-.8.1.4,2,1.3,3.4,2.7,4.9,1.2,1.3,3.2,2.7,5.2,3.8,9.6,5.1,19.5,2.7,27.2.5,6.6-1.9,13.1-4.3,19.3-7.1,2.7-1.2,5.9-2.3,8.6-3.5,6.4-2.7,14.1-5.4,21.8-4.7,5.2.5,9.2,2.8,10.6,6.3.1.4.3.9.4,1.5.1.6.4,1.8.6,2.1l-1,1.6c-.8-.4-1.1-1.6-1.5-3.3,0-.4-.2-1-.3-1.1-1.7-4.2-7.4-5-9-5.1-7.4-.7-14.7,1.9-20.9,4.6-2.7,1.2-5.5,2.4-8.2,3.6-6.3,2.9-12.7,5.8-19.5,7.7-4,1.1-8.8,2-14,2h0Z"/>
      <path class="cls-45" d="M376.6,330.4c.2-1.7.5-3.8.4-5.5,0-3.4.6-6.5.8-9.9.2-2.9,0-5.9.2-8.8,9.5.9,17,1.1,26.8.5-1.2,3.4-2,7-2.8,10.5-.2,1.1-.4,3.1-.2,4.2.3,1.7,1.6,3.1,2.9,4.4,2.4,2.3,4.8,4.4,7.4,6.4,1.8,1.4,3.7,2.9,4.6,5,.3.7.4,1.6-.2,2-.2.2-.5.2-.7.3-1.2.3-2.3.5-3.5.6-2.7.3-3.5,0-6.7-.2-.9,0-3-.2-4.2-.2-1.3,0-2.6,0-3.9-.1-4.2-.4-8.5-.8-12.7-1.2-2.1-.2-4.3-.4-6.4-.6-1.1-.1-2.4-.2-2.6-1.6-.3-2,.6-3.9.9-5.9h0Z"/>
      <path class="cls-40" d="M380.5,322.1c.3-3.3.4-5.9.3-9.1,0-1.3-.3-3.3-.8-4.6,3.1-.3,6.2.5,9.2,1,3.9.6,7.8.5,11.7.5-1,2.5-1.5,5.2-1.9,7.8-.3,2-.6,4.2.4,6,1,1.8,2.4,3,3.8,4.5.8.8,1.9,1.5,2.6,2.4,1.9,2.2,5.1,2.8,6.2,5.4.4,1.5-1.2,1.8-1.4,1.9-.2,0-.9,0-1.5,0-.2,0-1,0-1.2-.1-7.9-1.3-15.4-1-23.3-2.4-1.3-.2-2.8-.4-4.1-.9-1.4-.5-.7-1.8-.6-3.1.3-3,.2-6.2.5-9.2h0Z"/>
      <path class="cls-45" d="M470.2,310.1c0,2.7-.3,4.6,0,6.9.6,4.3,3.5,8.3,7.3,10.5,2.2,1.3,4.8,1.8,6.5,3.7,1.8,2,2.5,6.4,0,7.3-3.9.3-5.3.3-9.2,0-3-.2-6.1-.5-9.1-.7-2-.2-4-.3-6-.5-2.1-.2-4.2-.4-6.3-.5-1.1,0-2.2-.2-3-.9-.7-.6-1-1.6-1.1-2.5s0-1.9.1-2.8c.1-2-.1-4.1-.4-6.1-.3-2.5-.7-5.1-1-7.6-.2-1.3-.3-2.5-.5-3.8-.1-1-.8-2.9-.5-3.8.2-.6.2-.5,1-.5.6,0,1.3,0,1.9,0,1.3,0,2.5,0,3.8,0,2.5,0,5.1.2,7.6.4,2.9.2,6,.4,8.9.8h0Z"/>
      <path class="cls-43" d="M468.3,312.2c-.5,5,1.2,9.5,4.2,13.2.3.4,1.4,1.4,1.8,1.7.6.4,1.4,1.2,1.9,1.6,2,1.4,3.8,2.1,5.7,3.7.5.5,1.1,1,1.3,1.7s0,1.4-.7,1.8c-.4.2-1.1.6-1.4.6-1.3,0-1.9,0-3.2-.2-4.5-.7-5.5-.7-10.1-.9-.8,0-4.6,0-5.3.1-1.7.1-3.2,0-4.9,0s-2.5-.2-3.2-.2c-.9,0-1.2-.2-1.9-1-.3-.3-.6-1.2-.8-1.6-.8-1.9-.3-3.8-.4-5.6-.1-1.3,0-2.5-.2-3.8-.2-1.9,0-3.9-.4-5.7-.3-1.4-1.2-4.9-1-6.3,0-.4,3.8,0,4.9.1,2,.2,4.7.3,6.7.6,2.2.4,4.9.3,7.1.4h0Z"/>
      <path class="cls-45" d="M492.1,184.9c0,0,.1,0,.2,0,.1,0-.1,0,0,0,0,0,.2,0,.3,0,0,0,.2,0,.3,0,.2,0-.1,0,0,0s0,0,.1,0c0,0,.2,0,.3,0,0,0,0,0,0,0,0,0,0,0-.1,0,0,0,0,0,.1,0,.2,0,.4,0,.6,0,.2,0,.4,0,.6,0,0,0,.2-.1.1-.3,0-.1-.2-.2-.4-.3-.2,0-.5-.1-.7-.2-.5,0-1,0-1.4,0-.5,0-1,.2-1.5.3-.1,0-.2.2-.1.3,0,.1.3.2.4.3.4.2.9.2,1.3,0h0Z"/>
      <path class="cls-45" d="M491.2,181.3l2.4,1.3c.2.1.4.2.6.2.1,0,.4,0,.5,0,0,0,.2,0,.2-.2,0-.1-.2-.3-.3-.3l-2.4-1.3c-.2-.1-.4-.2-.6-.2-.1,0-.4,0-.5,0,0,0-.2,0-.2.2,0,.1.2.3.3.3h0Z"/>
      <path class="cls-45" d="M492.1,178.5c.8.6,1.5,1.2,2.2,1.8.2.1.4.2.6.3.2,0,.5,0,.7,0,.1,0,.3,0,.3-.2,0-.1-.1-.2-.2-.3-.7-.6-1.5-1.2-2.2-1.8-.2-.1-.4-.2-.6-.3-.2,0-.5,0-.7,0-.1,0-.3,0-.3.2,0,.1,0,.3.2.3h0Z"/>
      <path class="cls-45" d="M495.4,176l.8,3.1c0,0,.2.2.3.2.2,0,.4,0,.5,0,.2,0,.6,0,.5-.3l-.8-3.1c0,0-.2-.2-.3-.2-.2,0-.4,0-.5,0-.2,0-.6,0-.5.3h0Z"/>
      <path class="cls-45" d="M500.3,179.6c.1-.5.2-1,.2-1.5,0-.5,0-1-.2-1.5,0-.1-.2-.2-.3-.2-.2,0-.4,0-.5,0-.1,0-.6,0-.5.3,0,0,0,0,0,.1,0,0,0,0,0,0,0,0,0,0,0,0,0,.1,0,.2,0,.4,0,.3,0,.5,0,.8,0,.5-.1,1-.2,1.4,0,0,.1.2.2.2.1,0,.3.1.5.1.2,0,.7,0,.7-.2h0Z"/>
      <g>
        <path class="cls-37" d="M494.4,184.1c-.3-1.5,0-3.2,1.1-4.2,1.1-1,3-1.2,4.1-.2.5.5.8,1.1,1,1.7.5,1.4.9,2.9.9,4.4,0,1.5-.5,3-1.5,4.2-.2.3-.5.5-.8.6-.3.1-.6.2-.9.2-1.2,0-2.5-.7-3-1.8-.2-.5-.3-1-.4-1.6-.2-1.2-.3-2.3-.5-3.5"/>
        <path class="cls-45" d="M495.1,183.9c-.3-1.4.1-3.3,1.6-3.9.6-.3,1.4-.3,2,0,.8.4,1.2,1.3,1.4,2.1.6,1.8,1,3.8.4,5.6-.2.8-.7,1.7-1.4,2.2-.6.5-1.6.3-2.2,0-.9-.5-1.2-1.3-1.3-2.3-.2-1.2-.4-2.5-.5-3.7,0-.4-.5-.6-.9-.5-.4.1-.5.5-.5.9.2,1.4.3,2.9.6,4.3.2,1.1.9,2,1.8,2.5.9.5,2.1.7,3.1.4,1.1-.4,1.9-1.5,2.4-2.6,1-2.3.7-5-.1-7.3-.4-1.1-.9-2.2-1.9-2.8-.9-.5-1.9-.6-2.9-.3-2.5.7-3.4,3.5-2.9,5.8.2.9,1.5.5,1.4-.4h0Z"/>
      </g>
      <path class="cls-45" d="M500.1,184.8c0,0-.1,0-.2.1,0,0-.1,0-.2,0,0,0,.1,0,0,0,0,0,0,0,0,0,0,0-.2,0-.2,0,0,0,0,0,0,0-.1,0,0,0,0,0,0,0-.2,0-.2,0,0,0-.1,0-.2,0-.1,0,0,0,0,0,0,0-.1,0-.1,0,0,0-.1,0-.2,0-.2,0,.1,0,0,0,0,0-.1,0-.1,0,0,0,0,0,0,0,0,0,.1.1,0,0,0,0,0,0-.1-.1,0,0,0,0,0,0,0,0,0,0,0,0,0,0,0,0,0-.1,0,0,0,0,0,0,0-.1,0,.2,0,0,0,0,0-.1,0-.2,0,0,0,0,0,0,0,0,0,0,0,0,0,0,0,0,0,0,0-.1,0,0,0,0,0,0,0,0,0,0h0s0,0,0,0h0s0,0,0,0c0,0,0,0,0,0,0,0,0,0,0,0,0,0,0,0,0,0,0,0,.1,0,.2,0,.1,0,0,0,0,0,0,0,0,0,.1,0,0,0,.1,0,.2,0,0,0,0,0,0,0,0,0,0,0,0,0,0,0,.1,0,.2,0,0,0,0,0,0,0,0,0-.1,0,0,0,0,0,.1,0,.2,0,.2,0-.1,0,0,0,0,0,0,0,.1,0,0,0,0,0,0,0,0,0-.1-.1,0,0,0,0,.1,0,.1.1,0,0,0,0,0,0,0,0,0,0,0,0,0,0,0,.1,0,.2,0,.1,0,0,0,0,0,0,0,0,0,.1,0,0,0,0,0,0,0,0,0,.2,0,0,0-.1,0,0,0,.1,0,.1,0,0,0,0,0,0,0,0,0,.1,0,0,0-.2,0,0h0c-.1,0,0,0,.4-.2h.4c0,0,0,0,.1.2,0,.1.1.1,0,0,0,0,0,0,0,0,0,0-.1-.2-.2-.3-.4-.4-.8-.2-1.2,0,0,0,0,0,0,0,0,0,0,0,0,0,0,0-.1,0-.1,0,.1,0,.3,0,.4.1,0,0,0,.1,0,0s0,.1,0,0c0-.2,0,.1,0,0,0-.2,0,.1,0,0,0,0,0,0,0,0,0,0,0,0,0,0,.2-.3.3-.7,0-1-.3-.2-.7-.3-1,0-.2.3-.4.6-.3.9,0,.3.1.7.4.9.3.3.6.4,1,.3.1,0,.3-.1.4-.2,0,0,0,0,0,0,0,0-.1,0,0,0,.2,0,.2,0-.2-.1h-.3s0,0,0-.1c0-.1,0,0,0,0,0,0,0,0,0,0,0,.1.2.3.3.4.4.3.9,0,1.2-.4.3-.5.2-1.2,0-1.7-.5-1-1.7-1.5-2.8-1.1-.3.1-.6.3-.8.5-.3.3-.5.6-.5,1,0,.6.2,1.1.5,1.5.9,1,2.4,1,3.4.3.3-.2.5-.6.3-1-.2-.3-.6-.5-1-.3h0Z"/>
      <path class="cls-7" d="M421.1,185.3c-.3,1.4-.5,5.2-.1,6.6.2.8.6,1.6.9,2.4,2.4,5.5,5.1,10.9,8.1,16.1.8,1.3,1.6,2.7,3.1,3.2,1.2.4,2.5.1,3.7-.2,1.1-.3,2.2-.6,3-1.4,1.2-1.1,1.5-2.8,1.7-4.3,1.2-7.5,2.7-19.1,3.2-26.6"/>
      <path class="cls-7" d="M440,228.1c.3.4.6.8,1.1,1,.3.1.7.4,1,.4,1.2.3,2.1.6,3.1.6,0,1.6-.3,2.3-.3,3.9,0,.2.3.3.2.4,0,0-.1,0-.2,0-2,.3-4.1-.5-5.7-1.7s-2.9-2.9-4-4.6c-.8-1.2-1.6-2.5-2.2-3.8-.5-1.1-.8-2.4,0-3.3,1.3-1.6,2.8,0,3.3,1.2,1,2.1,2.2,4,3.6,5.8h0Z"/>
      <path class="cls-16" d="M435.1,227.3c.9-.9,1.8-1.6,2.9-2.3"/>
      <g>
        <path class="cls-37" d="M427.2,197.3c-2-.2-2.7-1.8-2.8-3.2,0-.5,0-.9.2-1.3.3-.5.8-.9,1.3-1.2.8-.4,1.8-.5,2.7-.2s1.6,1,1.9,1.9c0,.3.1.7.1,1.1,0,.6,0,1.2-.3,1.7-.3.5-.8.9-1.4,1s-1.1.3-1.8.2"/>
        <path class="cls-45" d="M427.2,196.8c-.9-.1-1.7-.6-2.1-1.5-.4-.9-.4-2.1.2-2.8.8-.8,2.3-1.1,3.4-.6.5.2.9.6,1.1,1,.3.6.3,1.2.3,1.8,0,.7-.2,1.3-.9,1.6-.6.4-1.4.5-2.1.4-.6,0-.6.9,0,.9,1.5.1,3.5-.5,3.8-2.2.2-.8.2-1.8-.1-2.6-.2-.7-.7-1.2-1.3-1.7-1.3-.9-3.2-.8-4.5.1-.6.5-1.1,1.1-1.2,1.9,0,.6,0,1.3.1,1.9.2.6.5,1.2,1,1.6.6.5,1.3.8,2.1.9.3,0,.5-.2.5-.5s-.2-.4-.5-.5h0Z"/>
      </g>
      <g>
        <path class="cls-37" d="M437.1,196.7c-.8-.2-1.1-.7-1.5-1.2s-.6-1.3-.6-1.9c0-.2,0-.5,0-.7.1-.4.5-.8.8-1,1.2-.8,2.9-.6,4,.4,1,1,1.5,2.1,1.2,3.5,0,.2-.3.7-.4.8-.4.3-1,.5-1.4.5-.6,0-1.6,0-2.1-.2"/>
        <path class="cls-45" d="M437.2,196.2c-.5-.1-.8-.5-1.2-.9-.4-.5-.6-1-.7-1.6,0-.6,0-1.1.6-1.5.4-.3.9-.5,1.4-.5,1.1,0,2,.6,2.6,1.4.3.4.5.9.6,1.4,0,.4,0,1-.3,1.4-.3.3-1,.5-1.4.5-.6,0-1.2,0-1.7-.2-.6-.2-.8.7-.3.9.6.2,1.4.3,2,.3.6,0,1.4-.2,1.9-.7.5-.4.6-1.2.6-1.8,0-.7-.2-1.4-.5-2-.7-1.2-2-2.1-3.4-2.2s-3,.8-3.2,2.4c0,.9.2,1.8.7,2.5.5.7,1,1.3,1.8,1.5.6.1.8-.8.3-.9h0Z"/>
      </g>
      <path class="cls-45" d="M436.3,189.4c0-.1.2-.2.3-.2-.1,0,.3,0,0,0,.1,0,.2,0,.3,0,.4,0-.2,0,.2,0,.1,0,.2,0,.3,0-.2,0,.1,0,.2,0,0,0,.3,0,.3,0,.8.1,1.8.5,2.6.8.5.2,1.1.2,1.6,0,.4-.2.4-.5,0-.6-1.3-.5-2.6-.9-4-1.1-.7,0-1.5,0-2.3,0-.7.1-1.4.3-1.8.8-.3.3.6.5.8.6.4,0,1.1,0,1.4-.3h0Z"/>
      <path class="cls-45" d="M426.8,190.3c0-.8.8-1.2,1.4-1.4.5-.1.8-.2,1.3-.2,0,0,.1,0,0,0,0,0,.1,0,.2,0,0,0,.3,0,.3,0h-.1s0,0,.1,0c0,0,.1,0,.2,0,0,0,.2,0,0,0-.2,0,0,0,0,0,.2,0,.5.1.8.1.1,0,.4,0,.4-.2.1-.4-.7-.7-.9-.8-1.3-.4-2.7-.5-4-.2-.8.2-2,.8-2,1.8,0,.4.6.7.9.8.3,0,.5.2.8.1.1,0,.4,0,.4-.2h0Z"/>
      <path class="cls-45" d="M433.8,198.4c.3.5.5,1.1.7,1.6.2.5.5,1,.9,1.5.7.9,1.6,1.7,2.7,2.3l-.2-.5h0c0,0,.1-.1.1-.1,0,0,0,0,0,0,0,0-.2,0-.2,0-.2,0-.3,0-.5,0-.3,0-.7,0-1,0-.7,0-1.3.2-2,.5-.6.2-.3,1.1.3.9.8-.3,1.6-.4,2.4-.5.4,0,.8,0,1.1,0,.4,0,.6-.2.8-.5,0-.2,0-.4-.2-.5-1-.5-1.8-1.2-2.4-2.1-.3-.4-.6-.9-.8-1.4-.2-.5-.3-1.1-.7-1.6-.3-.5-1.2,0-.8.5h0Z"/>
      <g>
        <path class="cls-37" d="M431.7,207.5c2.1.2,4.7.4,6.6-.4.2,0,.4-.1.5,0,0,0,0,0,0,.1.3.9-.3,2-1.1,2.5s-1.9.6-2.9.6c-.3,0-.7,0-1-.2-.6-.2-.9-.8-1.2-1.3-.2-.4-.5-.8-.7-1.2"/>
        <path class="cls-45" d="M431.7,208.1c1.2.1,2.4.2,3.6.2.6,0,1.2,0,1.8-.2.3,0,.6-.1.8-.2.1,0,.3,0,.4-.2,0,0,.2,0,.2-.1,0,0,0,0,0,0l-.2-.2c.3.4-.1,1.2-.5,1.5-.5.5-1.3.7-2,.8-.6,0-1.6.2-2.1-.3-.3-.2-.4-.5-.6-.8-.2-.4-.5-.8-.7-1.2-.4-.6-1.4,0-1,.6.7,1.1,1.3,2.6,2.7,2.8,1.3.2,2.9,0,4-.7,1-.6,1.8-1.9,1.3-3.1-.1-.3-.3-.5-.6-.6-.3,0-.6,0-.9.2-.6.2-1.2.4-1.8.4-1.4.1-2.9,0-4.3-.1-.3,0-.6.3-.6.6s.3.5.6.6h0Z"/>
      </g>
      <path class="cls-45" d="M427.4,195.2c1.8,0,1.8-2.8,0-2.8s-1.8,2.8,0,2.8h0Z"/>
      <path class="cls-45" d="M437.3,194.9c1.8,0,1.8-2.8,0-2.8s-1.8,2.8,0,2.8h0Z"/>
      <path class="cls-13" d="M415,179.2c1.8.3,3.7.5,5.5.8.7-1.8,1.5-3.5,2.2-5.2,1.7,1,3.3,2.1,5.1,3.2,1.3-1.6,2.2-2.8,3.6-4.3,1.1,1.2,2.2,2.4,3.3,3.6,1.3-1.4,2.3-2.5,3.6-3.7,1,2.2,2.2,4.2,3.3,6.4,1.6-1,3.2-2,4.9-3-.7,2.8-1.4,5.7-2.1,8.7-3.8-.8-7.4-1-11.2-1.2-1.9,0-3.5.2-5.4.6-1,.2-2.7.8-3.6,1.2-.7.3-3.3,1.4-3.3,1.4-.9-1-2.3-3-3-4-.9-1.5-2-2.9-2.8-4.4h0Z"/>
      <path class="cls-38" d="M434.9,226.7s1.8-1.5,2.2-1.8l-1.5-2.9s-.8-1.5-1.8-1.1c0,0-1,.5-.6,2,0,0,.2,1.5,1.7,3.7h0Z"/>
      <path class="cls-2" d="M404,218.4c-1.2,1.1-2,3.1-2,4.8,0,1.6.3,3.2.6,4.8,1.3,6.9,1.8,13.9,1.5,20.9,0,.8,0,1.7.5,2.2,6.5-3.4,14.4-3.3,21.3-6.1-3.4-5.7-5.8-11.9-7.2-18.4-.6-2.7-1.1-5.8-2.4-8.2"/>
      <path class="cls-7" d="M398,200.2c.5-.7,1.1-1.2,1.9-1.7,3.2-2.1,7.3-2.4,11.2-2.1,1,0,2.1.2,3,.6.8.3,1.5.9,2.2,1.4,3.6,3.2,5.1,8.5,3.7,13-.6,1.8-1.5,3.5-2.6,5-.5.7-1.1,1.4-1.7,1.9-3.1,2.7-8,2.3-11.4,0-2.9-2-4.8-5.2-5.9-8.5-1-2.9-2.1-7-.2-9.8h0Z"/>
      <path class="cls-35" d="M411.8,204.6c.5-.5,1.3-.6,2-.6,1.4-.1,2.9.2,4.2.2-.7,1.8-2.2,3.1-4.1,3.7-2.2.7-4.1-1.5-2.2-3.3h0Z"/>
      <path class="cls-35" d="M405.1,203.2c.5.1.9.3,1.3.7.6.6.9,1.2,1,2,0,.1,0,.5-.2.8-.1.2-.6.4-.8.5-.8.3-1.7,0-2.5-.3-.9-.4-2.9-2.4-3.5-3.6,0-.2,3.8-.3,4.9,0h0Z"/>
      <path class="cls-30" d="M415,213.3c-.7-.2-2.1.5-2.4.8-.6.6-.9,1.3-1.2,2-.5,1-1.7.9-2.6.3-1-.7-1.1-1.1-2-2-.7-.7-1.8-1.7-2.6-2.1,1.1.2,3.9,1,5.1,1,1.6,0,4.2-.4,5.7,0h0Z"/>
      <path class="cls-45" d="M413.6,206.8c1.2,0,1.2-1.9,0-1.9s-1.2,1.9,0,1.9h0Z"/>
      <path class="cls-45" d="M404.7,206.1c1.2,0,1.2-1.9,0-1.9s-1.2,1.9,0,1.9h0Z"/>
      <path class="cls-28" d="M411.7,227.7c2.5.5,5.3,1.1,7.6-.1.5-.2,1-.6,1.5-.5.5,0,1,.4,1.2.9s.3,1,.4,1.5c0,.3,0,.7,0,1-.2.5-.7.8-1.2,1-3.7,1.5-8,1.5-11.7-.2"/>
      <path class="cls-18" d="M421.6,226.6c-.2.6.5,1,.6,1.7,0,.6.3,1.3.8,1.6s1.5-.5,2-.9c.8-.7.9-2.3.8-3.4,0-.8,0-2-1.4-2-.9,0-2.4,2.3-2.7,3h0Z"/>
      <path class="cls-21" d="M379.9,213.7c-1.1.7-2.7.8-3.9.2s-2.1-1.8-2.2-3.2c0-.3,0-.6,0-.8.3-.8,2.1-1,3-.9"/>
      <path class="cls-17" d="M381.7,223.5c.7,3.7,1.4,7.4,2.5,11,.7,2.4,1.6,4.8,3.1,6.7,3.1-1,6.1-2,9.3-2.5.6-.1,1.3-.2,1.8-.6.9-.6,1.2-1.7,1.1-2.8s-.6-2-1-2.9c-2.3-4.9-4.4-10.6-5.7-15.8-1.6.5-3.2.9-5.2,1-1.6,0-3-.9-4.5-1.1-2.8-.3-1.6,5.4-1.3,7.1h0Z"/>
      <path class="cls-21" d="M394.5,198.7c.5,5.1.7,10.1.1,15.3,0,.5-.3,1.2-.6,1.6-.3.3-.6.6-1,.8-3.4,1.7-7.7,1.7-10.7-.5-1.5-1.1-2.6-2.7-3.6-4.2-1.6-2.3-3.2-4.7-4.8-7-1.2-1.7-2.4-3.5-3.1-5.5s-.8-4.3.1-6.2c1-1.9,2.8-3.1,4.6-4.2.9-.6,1.8-1.1,2.7-1.4,1.5-.5,3-.9,4.5-1,1.4,0,2.9,0,4.2.2,5.6.8,7.1,7.6,7.6,12.3h0Z"/>
      <path class="cls-35" d="M374.7,202c-.2-.6-.1-1.7,0-2.2.2-.7.7-1.2,1.4-1.4,1-.4,2.1-.5,3.2-.5.4,0,.8,0,1.1.3.2.2.4.3.6.6.5.7.7,1.4.9,2.3.1.8-.1,2.2-.5,2.7-.7.9-2.9,1.3-4,1-1.6-.4-2.3-1.3-2.8-2.7h0Z"/>
      <path class="cls-35" d="M386.2,193.9c.8-.1,1.7-.1,2.5,0,.3,0,.7,0,1,.2.7.3,1.1,1.1,1.3,1.9.8,2.8-2,6-5,4.2-2-1.2-2.7-5.9.2-6.2h0Z"/>
      <path class="cls-14" d="M373.6,196.5c.6.7,1.1,1.4,1.5,2.2"/>
      <path class="cls-14" d="M376.8,195.3c0,.8.3,1.6.6,2.4"/>
      <path class="cls-14" d="M379.4,194.2c.8,1,.8,2.6,0,3.5"/>
      <path class="cls-14" d="M383.4,192.3c.5.8.9,1.7,1.3,2.6"/>
      <path class="cls-14" d="M386.4,191c.3.6.4,1.7.5,2.9"/>
      <path class="cls-14" d="M389,193.8c.2-1,.4-2,.8-3"/>
      <path class="cls-14" d="M386.1,207.4c.6.4,1.3.8,2.1.8s1.6-.4,1.7-1.2c0-.5-.2-1-.5-1.4-.3-.4-.5-.9-.8-1.3"/>
      <path class="cls-32" d="M392.4,212.1c-.7.6-1.3,1.7-2.1,2.2-.3.2-.7.2-1,.3-1.3.2-2.8.4-3.9-.4-1.5-1.2-4.5-2.9-.3-2.8,1.1,0,3.1.2,4.3.3,1,0,2.4.3,3,.4h0Z"/>
      <path class="cls-45" d="M387.1,199.5c1.8,0,1.8-2.8,0-2.8s-1.8,2.8,0,2.8h0Z"/>
      <path class="cls-45" d="M379.6,203.1c1.8,0,1.8-2.8,0-2.8s-1.8,2.8,0,2.8h0Z"/>
      <path class="cls-44" d="M379,208.1c.6,0,.6-.9,0-.9s-.6.9,0,.9h0Z"/>
      <path class="cls-44" d="M381.5,209.1c.6,0,.6-.9,0-.9s-.6.9,0,.9h0Z"/>
      <path class="cls-44" d="M382.9,207.2c.6,0,.6-.9,0-.9s-.6.9,0,.9h0Z"/>
      <path class="cls-44" d="M384.4,209.7c.6,0,.6-.9,0-.9s-.6.9,0,.9h0Z"/>
      <path class="cls-44" d="M380,211.3c.6,0,.6-.9,0-.9s-.6.9,0,.9h0Z"/>
      <path class="cls-44" d="M392.7,208.4c.6,0,.6-.9,0-.9s-.6.9,0,.9h0Z"/>
      <path class="cls-44" d="M392.5,205.5c.6,0,.6-.9,0-.9s-.6.9,0,.9h0Z"/>
      <path class="cls-44" d="M390.6,203.1c.6,0,.6-.9,0-.9s-.6.9,0,.9h0Z"/>
      <path class="cls-44" d="M392.7,202.6c.6,0,.6-.9,0-.9s-.6.9,0,.9h0Z"/>
      <path class="cls-29" d="M383.3,212.2c2.7,1.2,5.7,1.4,8.3.6"/>
      <path class="cls-31" d="M374.3,227.1c5.3,4.9,9.1,11,12.4,17.4.8,1.5,1.9,2.7.7,4s-2.1,2.1-3.3,2.8c-3.3,1.7-7.9,2.4-9.3,6-.6,1.6-2.2,3.1-3.9,2.8-.8-.1-1.5-.6-2.1-1.1-1.6-1.3-3.1-2.8-4.2-4.6-1.4-2.2-2.2-4.7-3.6-6.9-1.3-2.1-1.9-4.2-3-6.4-1.6-3.3-1.2-7.6-.3-10.6"/>
      <path class="cls-9" d="M370.2,209.7c.6.1,1.1.3,1.6.6.4.3.7.8.9,1.3,2.1,4.5,2.7,9.6,1.8,14.5-.2.8-.4,1.6-.9,2.3-.7.9-2,1.4-3.1,1.9-3.7,1.6-5.5,1.7-8.8,1.1-.7-.1-2.1-.4-2.8-.6-.7-.2-1.4-.6-2-1-.9-.6-1.9-1.2-2.8-1.8-.5-.3-.9-.4-1.4-.8-.7-.6-1.7-1.5-2.2-2-2-2.3-2.6-3.9-3.3-5.6-.9-2.3-.9-3.7,1.1-5.1,4-2.8,8.8-4.5,13.6-5,2.8-.3,5.6-.1,8.3.4h0Z"/>
      <path class="cls-14" d="M370,242.3c1,.8,2.9,1.3,3.7,1.4"/>
      <path class="cls-15" d="M377.7,230.8c-.7,2.6.2,6.5.1,9.3,0,1.1-.3,2.2-.6,3.2-.8,3-1.6,6-3.4,8.5s-4.5,4.5-7.6,4.5"/>
      <path class="cls-1" d="M371,224.2c.2,0,.6-.2.7,0,0,.1-.1.5-.2.6-.6,1.5-1.9,2.5-3.3,3-1.4.5-2.9.5-4.3.6-.6,0-4.4.2-4.4-.5,0-.8,2.6-1.5,3.1-1.6,2.7-1.1,5.5-1.8,8.4-2h0Z"/>
      <path class="cls-35" d="M365.7,213c.5-.5,1.2-.7,1.8-.7.7,0,1.3,0,1.9.2s1.4.7,1.7,1.3c.4.8.2,1.7-.9,2.1-.4.1-2.1.3-2.5.3-1.3,0-3.8-1.4-2.1-3.2Z"/>
      <path class="cls-14" d="M347.9,219.9c7-4.7,15.5-7.6,23.8-9.2"/>
      <path class="cls-24" d="M371.2,210.3c2.8,1.3-1-5.4-5.2-6.7-1.7-.5-3.6-.8-5.3-.8-2,0-3.8.3-5.8.7-2.9.6-5.7,2.1-7.4,4.6s-2.3,5.7-1.1,8.4c0,0,.8-2.6,5.2-4.2,0,0,3.9-2.3,9.9-3.1,0,0,6-.7,9.7,1h0Z"/>
      <path class="cls-45" d="M367.7,215.1c1.2,0,1.2-1.9,0-1.9s-1.2,1.9,0,1.9h0Z"/>
      <path class="cls-45" d="M368.5,218.5c.9.4,1.8.9,2.7,1.3.7.4,1.5.7,2,1.4.3.4.8-.2.5-.5-.5-.7-1.3-1.1-2.1-1.4-.9-.4-1.8-.9-2.7-1.3-.4-.2-.8.4-.4.7h0Z"/>
      <path class="cls-45" d="M370,220.6c.2-1,.7-1.9,1.4-2.6.1-.1.1-.4,0-.5-.1-.1-.4-.1-.5,0-.8.8-1.3,1.9-1.6,3,0,.2,0,.4.3.5.2,0,.4,0,.5-.3h0Z"/>
      <path class="cls-45" d="M371.7,222c.5-.9.9-1.9,1.4-2.8,0-.2,0-.4-.1-.5-.2,0-.4,0-.5.1-.5.9-.9,1.9-1.4,2.8,0,.2,0,.4.1.5.2,0,.4,0,.5-.1h0Z"/>
      <g>
        <path class="cls-48" d="M324.2,218.5c2-.8,4.2-.9,6.3-.6,1.4.2,2.8.6,4.1,1.3,1.9,1.1,3.3,2.9,4.4,4.8.7,1.1,1.3,2.2,1.7,3.5.4,1.2.6,2.5.8,3.8.2,1.3.4,2.6.5,4,.2,1.2.3,2.4.2,3.7-.3,2.1-1.5,4-3.3,5.1-1.7,1-3.7,1.3-5.7,1.2-.3,0-.7,0-1-.1-.5-.2-1.5-.4-1.9-.7-2.3-1.8-4-3.9-6.2-5.9-2.5-2.3-4.9-4.9-6.3-8-.2-.5-.2-1.8-.2-2.4,0-.8-.2-.8,0-1.6.4-1.6.9-3.3,1.9-4.6,1.2-1.5,2.7-2.5,4.5-3.3"/>
        <path class="cls-45" d="M324.3,219c2.5-1,5.4-.9,7.9-.2s4.4,2.5,5.8,4.7c.7,1.1,1.5,2.3,1.9,3.6.5,1.3.7,2.7.9,4,.2,1.5.4,3,.6,4.5.2,1.4.3,2.8-.1,4.1-.7,2.3-2.6,4-4.9,4.5-1.2.3-2.6.4-3.9.2-.5,0-.9-.2-1.4-.4-.6-.2-1.1-.6-1.5-1.1-2-1.7-3.8-3.7-5.7-5.6-1.9-1.8-3.6-3.7-5-5.9-.3-.5-.7-1.1-.8-1.7-.1-.5,0-1.1,0-1.6,0-.5-.2-1,0-1.5.1-.7.4-1.4.6-2,.5-1.4,1.2-2.6,2.2-3.6,1-.9,2.1-1.6,3.4-2.1.7-.3,0-1.3-.6-1-2.4,1.1-4.6,2.8-5.7,5.3-.2.6-.4,1.1-.6,1.7-.2.6-.4,1.3-.5,2,0,.5,0,.9.1,1.4,0,.6,0,1.2.1,1.7.1.6.5,1.1.7,1.6.3.6.7,1.2,1.1,1.8.8,1.1,1.7,2.2,2.7,3.2,1,1.1,2.1,2.1,3.2,3.2,1.1,1.1,2.1,2.2,3.2,3.2,1,.9,1.9,1.7,3.1,2.1,1.2.4,2.5.4,3.8.3,2.7-.3,5.1-1.4,6.6-3.7,1.7-2.6,1.1-5.5.7-8.4-.2-1.6-.4-3.2-.7-4.7-.3-1.5-.8-2.9-1.6-4.2-1.5-2.7-3.4-5.3-6.3-6.5-3-1.2-6.7-1.4-9.8-.2-.7.3-.4,1.4.3,1.1h0Z"/>
      </g>
      <g>
        <path class="cls-37" d="M323.2,227.1c.6-.3,1.4-.4,2.1-.3s1.3.6,1.7,1.3c.3.6.3,1.2.3,1.8,0,.6,0,.9-.5,1.5-.1.2-.4.3-.7.5-.3.2-.6.4-1,.5-.7.2-1.5.2-2.2,0-.5-.3-.9-.6-1.2-1.1-.2-.4-.3-.7-.4-1.2s0-1.3.3-1.6c.2-.4,1.1-1.2,1.5-1.3"/>
        <path class="cls-45" d="M323.5,227.5c1-.5,2.3-.4,3,.5.4.5.4,1.1.4,1.7,0,.5,0,.9-.4,1.3-.2.2-.4.4-.6.5-.2.2-.5.3-.7.3-.5.2-1.1.2-1.7,0-.5-.1-.9-.5-1.1-.9-.1-.2-.2-.4-.3-.7,0-.3-.1-.5-.1-.8,0-.4.1-.9.4-1.2.3-.3.7-.7,1.1-.9.6-.2.3-1.1-.3-.9-.6.2-1.1.6-1.5,1-.4.4-.6,1-.7,1.5-.2,1.4.5,2.8,1.8,3.4,1.4.7,3.1.2,4.2-.8.5-.4.8-1.1.8-1.7,0-.8,0-1.6-.3-2.3-.3-.7-1-1.2-1.8-1.4-.9-.3-1.8,0-2.6.3-.5.3,0,1.1.5.8h0Z"/>
      </g>
      <path class="cls-45" d="M321.6,225.8c1.1-.8,2.6-.7,3.9-.6.3,0,.5-.2.5-.5s-.2-.4-.5-.5c-1.5-.1-3.1-.2-4.4.7-.2.1-.3.4-.2.6.1.2.4.3.6.2h0Z"/>
      <path class="cls-45" d="M329.5,223.1c0-.1.1-.2.2-.3,0,0,0-.1,0,0,0,0,0,0,0,0,0,0,0-.1.1-.2,0-.1.2-.2.3-.3,0,0,.1,0,.2-.1,0,0,0,0,0,0,0,0,0,0,0,0,.2-.2.4-.3.7-.4,0,0,.1,0,.2,0,0,0,0,0,0,0,0,0,0,0,0,0,.1,0,.3,0,.4-.1.2,0,.4-.3.3-.6s-.3-.4-.6-.3c-1.2.3-2.3,1.2-2.9,2.2-.1.2,0,.5.2.6.2.1.5,0,.6-.2h0Z"/>
      <g>
        <path class="cls-37" d="M330.3,224.3c.7-1.7,3.6-1.8,5.2-.5.2.2.4.6.5.8.1.4.3.7.3,1.1,0,.8-.3,1.7-1,2-.2.1-.5.2-.8.3-.4,0-.7.2-1.1.2s-1.1,0-1.5-.2c-.6-.3-1.2-.9-1.4-1.5-.2-.7-.2-1.6,0-2.2"/>
        <path class="cls-45" d="M330.7,224.6c.7-1.6,3.2-1.4,4.4-.4.4.3.6,1,.7,1.5,0,.5,0,1.1-.4,1.5-.3.4-1,.5-1.5.6-.5.1-1.3.2-1.8,0-.6-.2-1.1-.8-1.3-1.4s-.2-1.3,0-1.8c.2-.6-.7-.8-.9-.3-.2.7-.2,1.5,0,2.2.2.8.7,1.4,1.3,1.8.7.5,1.5.6,2.3.5.4,0,.8-.1,1.1-.2.4,0,.8-.2,1.1-.4,1.3-.8,1.3-2.7.6-4-.6-1.1-2-1.6-3.2-1.7-1.2,0-2.6.4-3.2,1.6-.1.2,0,.5.2.6.2.1.5,0,.6-.2h0Z"/>
      </g>
      <g>
        <path class="cls-37" d="M330.2,239.1c2.8.6,6.8-.7,9.1-2.4-.4,1.6-1.9,3.5-3.3,4.2-.3.1-.8.4-1,.4-.8.2-1.7-.3-2.5-.6s-1.4-.9-2.1-1.4"/>
        <path class="cls-45" d="M330.1,239.6c1.6.3,3.3.1,4.9-.3,1.6-.4,3.2-1.1,4.6-2.1l-.7-.5c-.5,1.6-1.7,3.2-3.2,3.9-.3.2-.7.4-1.1.4-.5,0-1-.2-1.4-.4-.9-.4-1.7-.9-2.5-1.5-.5-.4-1,.5-.5.8.9.7,1.9,1.3,2.9,1.7.5.2,1,.4,1.6.4.5,0,1-.2,1.4-.5,1.7-.8,3.2-2.7,3.7-4.6.1-.4-.4-.8-.7-.5-1.3.9-2.7,1.6-4.2,2-1.5.4-3,.7-4.6.4-.6-.1-.8.8-.3.9h0Z"/>
      </g>
      <path class="cls-45" d="M328.8,229.4c2.1,2.2,5.1,3.5,8,4.5v-.9c-1.4.6-2.9,1.1-4,2.1-.5.4.2,1.1.7.7,1-.9,2.5-1.4,3.7-2,.4-.2.2-.7-.1-.9-2.7-.9-5.6-2.2-7.6-4.3-.4-.4-1.1.2-.7.7h0Z"/>
      <g>
        <path class="cls-45" d="M317.3,240.4c.2.5,1,1.3,1.5,1.7s1.1.4,1.7.2c.5-.3.8-1,.8-1.6s-.3-1.2-.5-1.8c-1-2.4-2.3-4.7-3.7-7-.4-.7-.8-1.5-1.1-2.2-.5-1.1-.9-2.4-1-3.3,0-.7,0-1.1.1-1.7.2-.8,1.2-1.4,1.7-2,1.1-1.3,2.4-2.4,3.7-3.4,1-.8,2-1.6,3-2.3,1-.8,1.5-1.7,2.7-2.1.9-.3,3.2-.8,4.2-.8,1.5,0,2.1,0,3.6.5.3,0,1.8.9,2.1,1,.4.1,1.5,1.4,1.7,1.7.9,1.2,1.2,1.2,1.8,2.5.6,1.2,1.1,2.3,1.6,3.5.6,1.3,1.2,2.8,1.5,4.2.3,1.6.5,2.7.8,4.1.3,1.1,0,1.7.6,2.7s2,1.5,3,.9c.2.3,0,.8-.3,1s-.7.3-1.1.2c-1,0-2.1-.6-2.7-1.3-.7-.8-1.1-1.9-1.4-3-.5-1.8-1.1-3.7-1.6-5.5-.8-2.6-1.8-5.5-4.2-6.9-.9-.5-1.9-.7-2.9-1-2.3-.5-4.6-.8-6.9-.6s-4.6,1.1-6.2,2.8c-1.2,1.2-1.9,2.8-2.6,4.4-.5,1.1-.9,2.2-.8,3.3.1.9.6,1.8,1.1,2.6.7,1.1,1.4,2.2,2.2,3.2,1.1,1.3,2.5,2.4,3.4,3.8s1.5,3.3.6,4.8c-.8,1.4-2.7,2-4.2,1.4s-2.5-2.2-2.5-3.8"/>
        <path class="cls-45" d="M316.9,240.6c.4.9,1.3,1.8,2.2,2.1,1.1.4,2.2-.2,2.5-1.3.4-1.2-.3-2.4-.7-3.5-.6-1.4-1.3-2.7-2.1-4-1.3-2.4-3.2-5-3.4-7.9,0-.5,0-1.2.3-1.7.3-.5.9-.8,1.3-1.2.5-.5.9-1,1.4-1.5.5-.5,1.1-1,1.7-1.4,1.2-.9,2.3-1.8,3.5-2.7.9-.7,1.7-1.9,2.9-2.3,2-.6,4.1-1,6.2-.7,1,.2,1.8.5,2.6,1,.3.1.6.2.9.4.3.2.6.6.9.9.6.7,1.2,1.4,1.7,2.1.8,1,1.2,2.3,1.8,3.5.7,1.5,1.4,3.1,1.8,4.7.3,1.4.5,2.9.9,4.3.3,1.3,0,2.5,1.1,3.5.9.8,2.1,1.2,3.2.6l-.7-.3c.3.8-1.1.6-1.5.5-.6-.1-1.2-.5-1.7-.9-.9-.9-1.2-2.3-1.6-3.5-.7-2.4-1.3-4.9-2.2-7.2-.7-1.9-1.7-3.7-3.4-4.8-1-.7-2.2-.9-3.3-1.2-1.3-.3-2.7-.5-4-.6-2.4-.2-4.9,0-7,1.1-2.2,1.1-3.6,2.9-4.6,5.1-.5,1.1-1.1,2.3-1.3,3.5-.2,1.2.1,2.4.7,3.4.7,1.2,1.4,2.3,2.2,3.4.7,1,1.6,1.8,2.4,2.6,1,1,1.9,2.1,2.3,3.5.3,1.3,0,2.7-1.1,3.4-2.3,1.5-4.9-.6-4.9-3,0-.6-1-.6-.9,0,0,2.1,1.5,4.2,3.7,4.4,2.1.3,4.1-1.1,4.3-3.3.3-2.6-1.6-4.6-3.3-6.3-1-1-1.8-2-2.6-3.2s-1.8-2.5-1.9-4c0-1.4.7-2.8,1.2-4.1.6-1.2,1.3-2.5,2.3-3.4,1.9-1.8,4.7-2.5,7.3-2.4,1.5,0,3,.2,4.5.5,1.3.3,2.7.5,3.9,1.3,1.9,1.3,2.7,3.7,3.3,5.8.5,1.5.9,3.1,1.4,4.7.4,1.4.7,2.9,1.6,4.2.7,1.1,1.9,1.8,3.2,1.9,1,0,2.5-.5,2-1.8-.1-.3-.4-.4-.7-.3-1.1.6-2.5-.5-2.7-1.6,0-.5,0-1-.1-1.5-.1-.7-.3-1.3-.4-2-.3-1.3-.5-2.6-.9-3.9-.4-1.3-1-2.5-1.6-3.8-.5-1.2-1-2.5-1.8-3.5-.5-.7-1.1-1.3-1.6-1.9-.5-.6-.9-1.2-1.6-1.5s-1.3-.7-2-1c-2-.7-4.2-.6-6.2-.2-.9.2-1.9.3-2.7.8-.4.3-.8.6-1.2,1-.5.5-1,.9-1.5,1.3-1.1.9-2.3,1.8-3.4,2.7-1.1.8-2,1.8-2.9,2.8-.8.8-1.6,1.3-1.8,2.5-.2,1.2,0,2.4.4,3.6,1,2.9,2.8,5.5,4.2,8.2.4.7.7,1.5,1,2.2.3.7.7,1.5.5,2.2-.2.9-1.1,1-1.8.5-.5-.4-.9-.9-1.2-1.4-.3-.6-1.1,0-.8.5h0Z"/>
      </g>
      <g>
        <path class="cls-39" d="M315.1,224.5c-3.6-.4-6.9-3.1-8.1-6.6,0-.2-.1-.4-.1-.6,0-.7,1-1,1.7-1,3.2-.3,6.5-.7,9.7-1.3.6,1.3,2.3,1.9,3.5,2.7-2.8,1.2-5.2,4-6.6,6.7"/>
        <path class="cls-45" d="M315.1,223.9c-3.2-.4-6.2-2.7-7.4-5.7-.1-.3-.4-.7,0-.9.2-.1.6-.2.8-.2,1.1-.1,2.3-.2,3.4-.3,2.2-.3,4.3-.6,6.5-1l-.7-.3c.7,1.5,2.4,2.1,3.7,3v-1.1c-3,1.3-5.4,4.1-6.9,6.9-.4.8.7,1.4,1.1.7,1.4-2.7,3.5-5.2,6.4-6.5.5-.2.4-.9,0-1.1-1.1-.8-2.6-1.2-3.2-2.5-.1-.3-.5-.4-.7-.3-2.1.4-4.1.7-6.2.9-1,.1-2,.2-3,.3-.7,0-1.4.1-1.9.5-1.4.9-.3,2.8.3,3.9.8,1.3,1.8,2.4,3,3.2,1.4,1,3.1,1.6,4.8,1.9.8.1.8-1.2,0-1.3h0Z"/>
      </g>
      <g>
        <path class="cls-39" d="M322.6,211.3c.7-1.3,1.4-2.9,1.9-4.3.5-1.4,1.2-2.8,2.4-3.8.1,0,.2-.2.4-.2s.3.1.4.2c1.5,1.3,2.8,2.8,3.9,4.5.4.6.8,1.1,1,1.8s.2,1.4-.2,2c-.2.4-.6.7-1,.9-1.5,1.1-3.6,2.4-5.4,2.6-.5,0,0,0-.2-.3-.2-.2-.8-1.6-.9-1.8-.6-1-1.1-1.4-2.3-1.7"/>
        <path class="cls-45" d="M323.1,211.6c.6-1,1-2,1.4-3.1.4-1,.7-2,1.2-3,.2-.4.5-.9.8-1.3.2-.2.4-.3.5-.5.2-.1.2-.1,0,0,.1,0,.2.2.3.3.8.7,1.6,1.6,2.3,2.4.7.8,1.4,1.7,1.9,2.7.2.5.4,1,.3,1.5-.1.6-.5.9-1,1.2-.8.6-1.7,1.2-2.6,1.6-.7.4-1.9,1-2.7.9l.6.5h0s0,.5,0,.5c.1-.2.2-.5,0-.8,0,0-.2-.3-.2-.3,0,0,0-.1,0-.2-.2-.4-.4-.9-.6-1.3-.6-1.2-1.5-1.8-2.7-2.2-.8-.2-1.2,1-.4,1.3,1,.3,1.6.8,2,1.8.2.4.3.8.5,1.1,0,.2.3.7.2.1,0-.7-.2.1-.1.3,0,.3.3.5.6.5.8,0,1.8-.4,2.6-.7.9-.4,1.8-.9,2.6-1.5.7-.5,1.6-1,2.1-1.8.5-.9.4-1.9,0-2.8-.4-1-1.1-1.9-1.7-2.7-.7-.9-1.4-1.7-2.1-2.5-.6-.6-1.4-1.7-2.4-1.2-.8.4-1.4,1.2-1.8,1.9-.6.9-.9,2-1.3,3-.5,1.2-1,2.4-1.6,3.5-.4.7.7,1.4,1.1.7h0Z"/>
      </g>
      <g>
        <path class="cls-38" d="M318.3,214.5c.3-1,.9-1.9,1.8-2.4.7-.3,1.4-.3,2.2-.3.4,0,.7,0,1.1.1.3,0,.5.2.7.4.5.4,1,1,1.1,1.6,0,.3,0,.7-.2,1-.6,1.1-1.9,1.6-3,2.1-.4.2-.9.3-1.3.2-.5,0-.7-.1-1.1-.4-.5-.3-1.2-1.6-1.1-2.2"/>
        <path class="cls-45" d="M318.9,214.7c.3-1,.9-1.9,2-2.1.6-.1,1.2-.1,1.8,0,.6,0,1,.5,1.4.9.7.9,0,1.8-.9,2.3-.4.3-.9.5-1.4.7-.5.2-1,.4-1.6.3-.4-.1-.7-.3-.9-.7-.1-.2-.2-.4-.3-.6,0-.1,0-.2-.1-.3,0,0,0-.1,0,0,0,0,0-.1,0-.2,0-.4-.3-.7-.7-.7s-.6.3-.7.7c0,.6.3,1.2.6,1.7.3.5.7.9,1.3,1.2.7.3,1.5.3,2.3,0,.7-.2,1.4-.5,2-.9,1.3-.7,2.5-2.3,1.8-3.8-.3-.7-1-1.3-1.6-1.6-.7-.4-1.7-.4-2.5-.3-.9,0-1.8.3-2.5,1-.6.6-1,1.4-1.3,2.2-.3.8,1,1.2,1.3.4h0Z"/>
      </g>
      <g>
        <path class="cls-48" d="M365.7,268.3c.4,0,1.4.1,1.8.3s.7.6.6,1c0,.3-.3.5-.5.7-1.6,1.3-2.5,3-3.6,4.7-.3.5-.7,1.4-.5,2,.1.3.1.4.3.6,1.8,1.8,4,2.8,6.5,3.3.3,0,.6.1.8,0,.3-.2.9-.4.8-.8s-.4-1.1-.8-1.5c-.5-.7-1.1-1-1.5-1.8-.2-.3-.6-.7-.7-1,0-.3.4-.8.5-1.2.6-1.5,1.7-2.5,2.6-3.8.9-1.3,1.6-2.9,1.1-4.4-.6-1.9-1.7-2.5-3.6-3.1"/>
        <path class="cls-45" d="M365.7,269c.3,0,.6,0,.8,0,.2,0,.7,0,.8.2.3.3-.3.6-.5.8-.4.3-.7.7-1,1-1,1.2-2,2.6-2.6,3.9-.3.5-.5,1.2-.4,1.8,0,.8.6,1.2,1.2,1.7,1.2,1,2.6,1.8,4.1,2.3,1.3.5,3.1,1.2,4.3,0,1.1-1.1-.6-2.9-1.4-3.6-.3-.3-.5-.6-.8-1,0-.1-.3-.3-.3-.4-.1-.3-.1,0,0-.3,0-.3.3-.5.4-.8.2-.4.4-.7.6-1.1.9-1.4,2.1-2.5,2.8-4,.7-1.6.7-3.3-.2-4.8-.8-1.3-2.1-1.8-3.5-2.3-.8-.3-1.2,1-.4,1.3,1,.3,2.1.7,2.7,1.7.8,1.3.6,2.8-.2,4.1-.7,1.3-1.9,2.3-2.7,3.6-.3.5-.5,1-.8,1.5-.4.7-.3,1.2.2,1.8.4.5.8,1.1,1.2,1.5.4.5,1.3,1.2,1.3,1.9,0-.3,0,0-.2,0-.2,0-.2.2-.4.2-.3,0-.7-.1-1-.2-.8-.2-1.5-.5-2.3-.8-.6-.3-1.2-.6-1.8-1-.5-.3-1.3-.8-1.5-1.4-.2-.5.2-1.2.5-1.6.4-.7.8-1.4,1.3-2,.5-.7,1-1.3,1.5-1.9.5-.5,1.4-1,1.4-1.9,0-1.5-2-1.8-3.1-1.7-.8,0-.9,1.4,0,1.3h0Z"/>
      </g>
      <g>
        <path class="cls-49" d="M341,252.7c-2.8,1.6-5.7,3.2-8.5,4.7-.7-2.3-1.7-4.5-3-6.5l-.2-.4c1.8-.7,3.4-1.6,5.1-2.5,1-.5,2-1.1,3-1.6"/>
        <path class="cls-45" d="M340.6,252.1c-2.8,1.6-5.7,3.2-8.5,4.7l1,.4c-.4-1.4-1-2.7-1.6-4-.5-1-1.1-2-1.7-3l-.4,1c2.8-1.1,5.5-2.7,8.2-4.1.8-.4,0-1.5-.7-1.1-2.6,1.4-5.2,2.9-7.9,4-.4.2-.6.6-.4,1,.5,1,1.1,1.9,1.6,2.9.6,1.3,1.1,2.5,1.5,3.9.1.4.6.6,1,.4,2.8-1.6,5.7-3.2,8.5-4.7.7-.4,0-1.6-.7-1.1h0Z"/>
      </g>
      <g>
        <path class="cls-41" d="M370.2,256.1c-.5-.2-.8-.8-1-1.4,0-.4,0-.7,0-1s.3-.7.7-.8c.5-.1,1.2.4,1.5.8.4.7.4,1.1.8,1.9"/>
        <path class="cls-45" d="M370.3,255.7s0,0,0,0c0,0,0,0,0,0,0,0-.1-.1-.2-.2-.1-.2-.2-.4-.3-.5,0-.2-.1-.4-.1-.7,0-.2,0-.5.1-.7,0-.1.2-.3.3-.3,0,0,.1,0,.2,0,0,0,.2,0,.3,0,.4.2.7.6.9,1,.2.4.3.9.5,1.3,0,.2.3.3.5.3.2,0,.3-.3.3-.5-.2-.5-.3-1.1-.6-1.6-.3-.6-.7-1-1.3-1.3-.6-.2-1.2,0-1.6.5-.2.3-.2.6-.3.9s0,.6,0,1c.2.6.6,1.2,1.2,1.5.2,0,.4,0,.5-.3,0-.2,0-.4-.3-.5h0Z"/>
      </g>
      <g>
        <path class="cls-45" d="M368.5,253.3c-.6,0-1.3-.5-1.7-.9s-.5-1-.7-1.5c-.1-.4,0-.9,0-1.3.3-.7,1.1-1,1.9-1.2.6-.1,1.3-.3,1.7.1.2.2.7,1.1.7,1.4.3,1,0,1.5-.2,2.6"/>
        <path class="cls-45" d="M368.5,252.9c-.7,0-1.4-.7-1.7-1.4-.3-.7-.5-1.7.1-2.3.3-.2.6-.3,1-.4.4-.1.8-.2,1.1-.2.3,0,.5.1.7.4.2.3.3.6.4.9.1.3.2.7.2,1.1,0,.5-.2.9-.3,1.4-.1.5.6.7.7.2.1-.5.3-1,.3-1.6,0-.5,0-.9-.2-1.4-.1-.4-.3-.7-.5-1.1-.2-.4-.6-.6-1-.7-.5,0-1,0-1.5.2-.5.1-.9.3-1.3.6-.4.3-.6.7-.7,1.2-.1.6,0,1.1.2,1.7.2.6.5,1.1,1,1.5.4.3,1,.7,1.5.6.5,0,.5-.8,0-.8h0Z"/>
      </g>
      <g>
        <path class="cls-45" d="M394.5,260.6c2,.5,4.1.9,6.1,1.3.5,0,.9.2,1.4.2.1,0,.2,0,.3-.1.1-.2,0-.4-.2-.5-1.1-1.1-2.1-2.3-3.2-3.4-.2-.2-.4-.5-.7-.7-.3-.2-.5-.5-.9-.6-.6-.2-1.1-.4-1.8-.5"/>
        <path class="cls-45" d="M394.4,261c1.3.3,2.6.6,3.9.8.6.1,1.3.3,2,.4.6.1,1.2.3,1.8.2.4,0,.8-.3.7-.8,0-.3-.3-.5-.4-.6-.2-.2-.5-.5-.7-.7-.5-.5-.9-1-1.4-1.5-.4-.5-.9-1-1.3-1.4-.4-.4-.9-.7-1.4-.9-.6-.2-1.2-.4-1.9-.5-.5,0-.5.7,0,.8.6,0,1.2.2,1.8.5.5.2.9.6,1.3,1,1,1,1.9,2.1,2.9,3.1.1.1.2.3.4.4.1,0,.2,0,0,0,0,0-.1,0-.2,0-.4,0-.7,0-1-.1-.7-.1-1.4-.3-2-.4-1.4-.3-2.7-.6-4.1-.9-.5-.1-.7.6-.2.7h0Z"/>
      </g>
      <path class="cls-45" d="M415.8,252.6c.5.7,1.1,1.3,1.7,1.9s1.3,1.2,2,1.6c.2.2.6,0,.8-.2.1-.3,0-.6-.2-.8-.1,0-.3-.2-.4-.3,0,0,0,0-.1,0,0,0,0,0,0,0,0,0-.1-.1-.2-.2-.3-.3-.6-.6-.9-.8-.3-.3-.6-.6-.9-.9-.1-.1-.3-.3-.4-.4,0,0,0,0,0,0,0,0-.1-.1,0,0,0,0-.1-.2-.2-.2-.2-.2-.5-.4-.8-.2-.2.2-.4.5-.2.8h0Z"/>
      <g>
        <path class="cls-45" d="M350.4,218.4c1,1,2.1,1.8,3.1,2.3.4.2,1.6.6,2.3.5.8-.1,1.4-.2,2.2-.5s1.4-.8,2-1.2c.3-.2.5-.4.7-.7.4-.5.3-1.4.3-1.7,0-1-.1-2.4-.6-3.3-4.5,1.6-6.8,2.7-9.8,4.7"/>
        <path class="cls-45" d="M350.2,218.6c.6.6,1.3,1.2,2.1,1.7.6.4,1.1.8,1.7,1,1.5.5,3.1.2,4.5-.4.7-.4,1.6-.9,2.1-1.5.5-.5.7-1.1.8-1.8,0-1.3,0-2.9-.6-4.1,0-.1-.3-.2-.4-.2-1.9.6-3.7,1.3-5.5,2.2-1.5.7-3,1.6-4.4,2.5-.4.3,0,.9.4.7,1.4-.9,2.8-1.8,4.2-2.5,1.8-.9,3.6-1.6,5.4-2.2l-.4-.2c.5,1.1.6,2.4.5,3.5,0,.7-.2,1.2-.8,1.7-.6.5-1.3.9-2,1.2-1.2.5-2.5.7-3.8.2-.5-.2-1-.6-1.4-.9-.7-.5-1.3-1-1.9-1.6-.3-.3-.9.2-.5.5h0Z"/>
      </g>
      <g>
        <path class="cls-45" d="M391.3,189.1c-4.8-.9-10-.3-14.2,1.5-3.1,1.4-5.9,4.3-6.7,7.6v-4.3s2.1-2.3,2.1-2.3l4.9-3.9,4.6-1h4.9c0,0,3.6,1.4,3.6,1.4l.8,1h0Z"/>
        <path class="cls-45" d="M391.4,188.8c-4.5-.8-9.2-.5-13.5,1.1-3.7,1.4-7,4.3-7.9,8.3h.7c0-.9,0-1.9,0-2.9,0-.1,0-1.1,0-1.2,0,0-.2.3,0,.2,0,0,.1-.1.1-.2l.6-.6c.5-.6,1-1.2,1.7-1.7l2.7-2.2,1.4-1.1c.1-.1.3-.2.4-.3.2-.2.2,0,0,0,.4,0,.7-.2,1.1-.2l1.9-.4c.5-.1,1-.2,1.4-.3.2,0,0,0,0,0,.2,0,.3,0,.5,0h3.6c.2,0,.4,0,.6,0,.1,0,0,0,.1,0,.6.3,1.2.5,1.7.7.6.2,1.1.5,1.7.7.2,0,0,0,0,0,0,.1.2.2.2.3l.6.7c.3.4.8-.2.5-.5-.3-.4-.6-.9-.9-1.1-.3-.2-.8-.3-1.1-.5l-1.9-.8c-.3-.1-.5-.3-.8-.3-1.1-.1-2.3,0-3.4,0-.7,0-1.4,0-2.1.2l-3.7.8c-.7.1-1.1.6-1.6,1-1.6,1.3-3.2,2.4-4.6,3.9-.4.5-.9.9-1.3,1.4-.2.3-.2.6-.2,1,0,1.2,0,2.4,0,3.6,0,.4.6.5.7.1.9-3.8,4.2-6.6,7.8-7.9,4-1.4,8.5-1.7,12.7-1,.5,0,.7-.6.2-.7h0Z"/>
      </g>
      <path class="cls-45" d="M332.7,227c1.7,0,1.7-2.6,0-2.6s-1.7,2.6,0,2.6h0Z"/>
      <path class="cls-45" d="M324.7,230.8c1.7,0,1.7-2.6,0-2.6s-1.7,2.6,0,2.6h0Z"/>
      <g>
        <path class="cls-39" d="M346.2,260.1c2,3.3,2.9,8.4,3,12.3,0,.3,0,.7.3.8.1.1.3.1.4.2,2.9.6,6,.5,8.8-.4,1-.3,1.9-.7,2.8-1.2.6-.4,1.1-.8,1.6-1.3.9-.7,1.7-1.4,2.6-2.2.9-.8,1.8-1.5,2.5-2.5,1-1.3,1.6-2.8,2.2-4.4,0-.3.2-.5.2-.8,0-.3-.3-.6-.5-.8-3.8-3.8-7.5-6.7-11.2-10.6"/>
        <path class="cls-45" d="M345.7,260.4c1.8,3.1,2.5,6.8,2.8,10.3,0,.8,0,1.7.2,2.4.3.9,1.2,1,2,1.1,2,.3,3.9.3,5.9,0,1.9-.3,3.9-.9,5.6-2.1,1.7-1.2,3.3-2.6,4.8-4,1.5-1.3,2.6-2.8,3.4-4.6.3-.8.9-1.7.9-2.6,0-.9-.8-1.6-1.4-2.2-3.4-3.4-7.2-6.4-10.5-9.9-.6-.6-1.5.3-.9.9,2.7,2.8,5.6,5.3,8.4,7.9.7.6,1.4,1.3,2.1,2,.3.3.8.6,1,1,.1.4-.2.9-.3,1.2-.7,1.7-1.5,3.3-2.8,4.6-1.3,1.3-2.8,2.4-4.2,3.6-1.5,1.2-3,2-4.8,2.5-1.9.5-3.8.6-5.7.4-.5,0-.9-.1-1.4-.2-.3,0-.6,0-.7-.3-.1-.3,0-.8,0-1.1,0-.4,0-.9-.1-1.3-.4-3.6-1.1-7.2-2.9-10.4-.4-.7-1.6,0-1.1.7h0Z"/>
      </g>
      <g>
        <path class="cls-49" d="M342.3,239.8c1.2.5,2.1.6,3.3,1.1,1.1.5,2.1,1,3.2,1.7.8.5,1.9.9,2.7,1.5,2.4,1.8,5.1,3.5,7.5,5.3-.9.8-2.7,2.1-3.4,3.1-.9,1.4-1.7,2.4-2.7,3.7-1.7,2-4.1,3.5-6.6,4-.1,0-.2,0-.3,0-.1,0-.2-.1-.3-.2-1.2-1.3-2.5-2.6-3.2-4.2-.3-.8-.6-1.5-1.2-2.2-.6-.8-1-1.9-1.6-2.8-1.2-1.6-2.2-3.9-2.8-5.8,1.3-.1,2.8-1.1,3.6-2.2.8-1,1.5-1.8,1.9-3.1"/>
        <path class="cls-45" d="M342,240.3c1.5.6,3,1,4.5,1.7.7.4,1.4.8,2.1,1.2.6.4,1.3.6,1.9,1,.7.4,1.3.9,1.9,1.3.7.5,1.4,1,2.1,1.5,1.4,1,2.8,1.9,4.1,2.9v-1c-.9.6-1.6,1.2-2.3,1.8-.7.6-1.2,1.3-1.8,2.1-1.2,1.9-2.7,3.7-4.5,5-1,.6-2,1.2-3.1,1.5-.1,0-.6.2-.8.2,0,0-.4-.4-.4-.5-.4-.4-.8-.9-1.2-1.3-.8-.9-1.3-1.9-1.8-3-.5-1-1.2-1.9-1.7-2.9-.6-1.1-1.3-2.1-1.9-3.2-.6-1.2-1.2-2.4-1.6-3.7l-.5.8c1.4-.2,2.7-1,3.6-2,.9-1.1,1.9-2.3,2.3-3.6.3-.8-1-1.2-1.3-.4-.4,1.1-1.2,2.2-2,3s-1.9,1.5-3,1.7c-.3,0-.6.5-.5.8.4,1.2.9,2.3,1.5,3.4.6,1.1,1.3,2.1,1.9,3.2.3.5.5,1.1.8,1.6.3.5.7,1,1,1.5.6,1.1,1,2.2,1.8,3.2.4.5.8,1,1.3,1.5.4.4.8,1,1.3,1.2.5.1,1.2-.1,1.6-.3.6-.2,1.1-.4,1.7-.6,2.3-1.1,3.9-2.8,5.4-4.8.8-1,1.3-2.1,2.2-3,.8-.8,1.8-1.5,2.7-2.3.4-.3.2-.8-.1-1-1.3-1-2.7-2-4.1-2.9-.7-.5-1.4-1-2.1-1.5-.6-.4-1.2-1-1.9-1.3-.6-.4-1.3-.6-1.9-1-.7-.4-1.4-.8-2.1-1.2-.7-.3-1.4-.7-2.1-.9-.8-.3-1.6-.4-2.4-.8-.8-.3-1.4.8-.7,1.1h0Z"/>
      </g>
      <path class="cls-45" d="M405.7,210.4c0-.2-.1-.3-.2-.5s.3-.4.4-.5c0,0,.2,0,.3,0,.3,0,.7,0,.9.2.2.2.2.4.3.6,0,.1.2.2.2.3s0,.3,0,.4c-.7.2-1.4,0-2-.4"/>
      <path class="cls-45" d="M409,210.3c0-.1,0-.3,0-.5s.3-.1.5-.1c.7,0,1.4.6,1.4,1.4,0,.1,0,.2,0,.3s-.2,0-.3,0c-.7,0-1.4-.5-1.6-1.1"/>
      <path class="cls-45" d="M406.1,201.4c.2.2.4.4.6.6.2.1.4.2.6.3.4.2.7.4,1.1.5,0-.8-.5-1.6-1.1-2-.6-.5-1.5-.8-2.2-.8,0,.4.8,1.1,1.1,1.4h0Z"/>
      <path class="cls-45" d="M412.1,200.8c.6-.4,1.4-.6,2.1-.7,0,.2-.2.5-.4.7-.1.2-.3.3-.4.4-.2.2-.4.4-.6.6-.3.3-.7.6-1,.8-.1,0-.6.4-.8.2-.1-.1,0-.6,0-.7.1-.5.6-1,1-1.3h0Z"/>
      <path class="cls-45" d="M398.9,197.5c.3-.2.7-.4,1-.5,1.6-.8,3.3-1.6,5.1-1.9,1.9-.3,3.8-.2,5.7.3s3.6,1.2,5.4,1.9c1.3.6,1.9,1.1,2.8,2.2.4.5.9,1.3,1.2,2,.7,1.7.9,5,.9,5.8-.2-.5-1.6-4.4-2-4.9-.8-.9-1.1-2.2-1.8-3.2-.7-.9-1.7-1.6-2.8-2s-2.3-.5-3.4-.6c-1.8-.2-3.6-.2-5.4-.2-.3,0-.6,0-.9,0-.4,0-.8.2-1.1.4-.7.2-1.4.4-2.1.7-.9.3-1.7.8-2.4,1.4-.7.6-1.5,1.8-2.1,2.5,0-1.3,1-3.2,2.1-4h0Z"/>
      <path class="cls-48" d="M416.1,248.1l4.9-1.1,1,2.4s.7,1.8.3,3.1c0,0-.5,1.7-2.6,2.8,0,0-2.3-1.9-3-3,0,0,.7-1.7-.6-4.2h0Z"/>
      <path class="cls-45" d="M386.7,228.4c.3.6.7,1.1,1.1,1.6.2.3.4.5.5.8.2.3.4.5.6.7.4.5.8,1.1,1.2,1.6.4.5.8,1,1.3,1.2.4.2.8-.4.4-.7-.5-.3-.9-.7-1.2-1.2-.4-.5-.7-1.1-1.1-1.6-.4-.5-.7-.9-1-1.4-.4-.5-.8-1-1.1-1.5-.2-.4-.9,0-.7.4h0Z"/>
      <path class="cls-45" d="M392.2,227.6c.6.7,1.1,1.6,1.7,2.4.6.8,1.2,1.5,2,2.2.4.3.9-.2.5-.5-.7-.7-1.4-1.4-1.9-2.2-.6-.8-1-1.7-1.7-2.4-.3-.4-.9.2-.5.5h0Z"/>
      <path class="cls-23" d="M402.9,234.9c2.5,0,3.9-.7,6.2-1,.3,0-.1.5-.5,1-.2.2.9.7,1.3.7s1.1-.1,1.4.2c.4.4.2,1.1-.1,1.4s-.9.5-1.5.6c-1.4.3-2.8.6-4.2.7-5,.4-10.6-.9-14.1-4.5.3-1.3,2.3-2.1,2.6-2.2,1-.4,1.4-.5,2.2.2,1.6,1.4,4.3,2.8,6.6,2.8h0Z"/>
      <path class="cls-45" d="M362.8,222.9c.1.1.3.2.5.1,0,0,.1-.2.2-.3.2-.6,0-1.2-.2-1.7-.3-.5-1-.8-1.2-.1-.2.7.3,1.6.8,2h0Z"/>
      <path class="cls-45" d="M365.1,221.4c.1.2.3.3.4.4s.4.1.6,0c0,0,0,0,0,0,0,0,0,0,0-.1,0-.5-.5-2.1-1.2-2.2-1.3-.2-.2,1.6,0,1.9h0Z"/>
      <path class="cls-34" d="M371,237.2c3.9,2.4,8.5,3.5,13.1,3.2,1.4-.1,2.9-.4,3.9-1.4.7-.7,1.2-1.8,2.2-1.9.4-.2.2,1.5,0,2.2,1-.2,1.8,0,2.6.4s1.3,1.5.8,2.3c-.4.5-1.1.7-1.7.8-5.7,1-11.6,1.3-17.4.9-.3,0-.6,0-.9-.3-.4-.4-.3-1-.2-1.6.2-.8.5-2.1.7-3"/>
      <g>
        <path class="cls-38" d="M372.4,260.7c1.3,2.5,3.3,5.7,6,8.1.7.6,1.6,1.2,2.4,1.7.6.3,2.1.8,2.7.9,2,.2,2.8-.4,4.6-1.4-3.5-1.1-7.1-3-9.5-5.8-1.1-1.2-2.1-2.7-2.9-4.2,0-.1-.2.2-.3.3-.2.2-.2.2-.3.3-1.1.7-2.1.6-3.1-.3s-1.9-2.6-1.3-3.8c.1-.2.3-.5.5-.6.2-.1.4-.1.7-.1,1.3,0,1.7.3,2.5,1.3s1.8,2,1.1,3.1"/>
        <path class="cls-45" d="M372,260.9c1.7,3.4,4,6.9,7.2,9.1,1.3.9,2.8,1.6,4.4,1.8,1.8.2,3.2-.6,4.8-1.5.4-.2.3-.7-.1-.9-2.6-.8-5.1-2-7.3-3.8-1-.8-1.9-1.8-2.8-2.8-.5-.6-.9-1.3-1.4-1.9-.3-.4-.5-1.2-1-1.5-.1,0-.3,0-.5,0-.3.2-.5.6-.9.7-.6.3-1.2.3-1.8,0-1-.6-2-2-1.7-3.2.2-.7.7-.8,1.4-.8.4,0,.8.2,1.1.5.4.4.8,1,1.1,1.4.4.6.9,1.1.4,1.8-.3.5.5,1,.8.5.5-.8.4-1.5-.1-2.3-.5-.7-1-1.5-1.6-2.2-1-1-3-1.1-3.8.2-.8,1.5.3,3.5,1.4,4.5.6.6,1.4.9,2.3.8.4,0,.9-.2,1.3-.5.2-.2.4-.4.6-.6h-.5s.1.3.1.3c0,.2.2.3.3.5.2.3.4.6.6.9.4.6.8,1.2,1.3,1.7.9,1.1,1.9,2.1,3,2.9,2.2,1.7,4.7,2.9,7.3,3.7v-.9c-1.5.8-2.8,1.6-4.5,1.3-1.5-.2-3-1-4.2-1.9-2.8-2.1-4.9-5.3-6.5-8.5-.3-.5-1.1,0-.8.5h0Z"/>
      </g>
      <path class="cls-45" d="M366.5,254.8c2.3-.8,4.5-1.8,6.2-3.4.4-.3-.2-.9-.5-.5-1.7,1.6-3.8,2.5-5.9,3.2-.5.2-.3.9.2.7h0Z"/>
      <path class="cls-46" d="M371.4,256.2s1.2-.8,2.7,1.2c0,0,2,2.3,0,3,0,0-1.5.9-3-1.7,0,0-1.3-1.9.2-2.5h0Z"/>
      <path class="cls-45" d="M517.9,193c.4,0,1.7,2.5,1.5,2.8s-4.5-1.9-4.7-2.3"/>
      <path class="cls-26" d="M430.9,242.1c-.3,1.2-.9,2.9-1.4,4.1"/>
      <path class="cls-26" d="M433.1,242.4c-.2,1.7-.7,3.3-1.4,4.9"/>
      <path class="cls-26" d="M436.1,242.6c-.5,1.8-1.1,4.3-1.7,6.1"/>
      <path class="cls-26" d="M438.6,242.9c-.3,2.1-1.5,5.3-2,7.4"/>
      <path class="cls-26" d="M441.4,244c0,.3-.5,1.9-.6,2.1-.9,2.1-1.9,5.2-2.9,7.2"/>
      <path class="cls-26" d="M443.2,248.5c-1,3.1-2.1,6.1-3.3,9.2-.8,1.9-1.6,3.8-3,5.3"/>
      <path class="cls-26" d="M445.3,251.6c-.6.9-1.8,3.3-2.3,4.3-1.2,2.6-2.3,5.2-3.4,7.9"/>
      <path class="cls-26" d="M435.4,260.5c.8.3,1.6.6,2.5.7,1.6.2,3.2.7,4.7,1.1"/>
      <path class="cls-26" d="M436.2,258.6c2.2.1,5.1,1,7.3,1.1,0-.1.4-.6.3-.6"/>
      <path class="cls-26" d="M437.3,256.4c1,.1,2.2.3,3.1.3,1.6,0,3.2,0,4.7.3"/>
      <path class="cls-26" d="M438.1,253.9c2.6.1,5.2.2,7.8.3"/>
      <path class="cls-26" d="M437.3,251.4c2.5,0,5.4,0,7.8,0"/>
      <path class="cls-26" d="M434.1,248.5c3.2,0,6.4.1,9.6,0"/>
      <path class="cls-26" d="M426.5,243.9c4.4,1.2,11.4,1.4,15.8,2.5"/>
      <g>
        <path class="cls-46" d="M447.4,224.3s5.5,2.4,11.4,2.7l.6,2.9-6-.5s-4.6,0-7.2-.8c0,0,.6-2.7,1.2-4.3h0Z"/>
        <path class="cls-46" d="M449.6,219.2s1.7-2.9,2.6-3.4c0,0,2.5,2.9,6.1,2.2,0,0-.4,3.5-.4,3.8l-8.4-2.7Z"/>
        <g>
          <path class="cls-48" d="M449.7,207.8c-1.4-.2-2.7-1.1-3.6-2.3-.5-.7-.8-1.6-.4-2.4.3-.5.8-.8,1.3-.9s1.8,0,2.3,0"/>
          <path class="cls-45" d="M449.8,207.3c-.8-.1-1.6-.5-2.3-1-.6-.5-1.3-1.2-1.4-2-.2-.8.4-1.3,1.2-1.4-.1,0,.1,0,.2,0,0,0,.2,0,.3,0,.2,0,.4,0,.5,0,.4,0,.7,0,1.1,0,.3,0,.6-.3.6-.6s-.3-.5-.6-.6c-1.4,0-3.2-.2-4,1.1-.5.8-.4,1.8,0,2.6.4.8,1,1.4,1.7,1.9.7.6,1.6.9,2.5,1.1.3,0,.6,0,.7-.4,0-.3,0-.6-.4-.7h0Z"/>
        </g>
        <g>
          <path class="cls-48" d="M468.9,202.5c1.2-.2,2.9-.2,3.8.5.2.2.4.8.5,1.1,0,.2-.1.9-.2,1.1-1,2.2-3.4,3-5.8,2.7"/>
          <path class="cls-45" d="M469.1,203c.8-.1,1.6-.2,2.4,0,.2,0,.4,0,.6.2,0,0,.1,0,.2.1,0,0,.2.1.2,0,0,0,0,.1,0,.1,0,0,0,.1,0,.2,0,0,0,.2,0,.2,0,0,0,0,0,.1,0,0,0,.2,0,0s0,0,0,0c0,0,0,.1,0,.1,0,.2,0,.3-.1.5,0,.1,0,0,0,0,0,.1-.1.2-.2.3,0,.2-.2.3-.3.5-.5.6-1.2,1.1-1.9,1.3-.9.3-1.9.4-2.8.3-.3,0-.6.3-.6.6s.3.5.6.6c2,.2,4.2-.3,5.6-1.9.6-.7,1-1.5,1-2.4,0-.4-.2-.9-.4-1.2-.2-.4-.7-.7-1.2-.8-1.1-.4-2.3-.3-3.5-.2-.3,0-.5.4-.4.7,0,.3.4.4.7.4h0Z"/>
        </g>
        <path class="cls-46" d="M458,235.4c.1,0,3,.5,3,.5l-.2,3.6-2.8-4.1Z"/>
        <polygon class="cls-40" points="445.5 239 447.4 239 456 240.2 457.5 242.1 445.2 240.9 445.5 239"/>
        <polygon class="cls-46" points="445.5 237.6 445.7 234.8 452.5 235.1 455.1 239 445.5 237.6"/>
        <polygon class="cls-40" points="446.1 229.7 449.3 230.4 459.8 231.3 460.5 234.5 451.4 233.8 445.9 233.5 446.1 229.7"/>
        <g>
          <path class="cls-48" d="M452.2,215.1c-.4-.6-.6-1-1-1.6-.4-.6-.5-1.4-.5-2.1-.7-6.1-1.3-12.2-1.8-18.3-.1-1.6-.2-3.3.1-4.9.3-1.4,1.1-2.7,1.9-3.8.7-.9,1.5-1.7,2.4-2.2,1.7-.9,3.7-1,5.6-.8,2.9.4,5.8,1.5,7.9,3.6,3,3,4,7.6,3.5,11.9-.5,4.2-2.3,8.2-4,12.1-.4.9-.8,1.9-1.3,2.8-.3.7-.6,1.3-1,1.9-1.3,2.2-3.7,3.7-6.3,3.9-2.5.2-3.8-.6-5.6-2.5"/>
          <path class="cls-45" d="M452.7,214.8c-.3-.5-.7-1.1-1-1.6-.4-.8-.4-1.7-.5-2.5-.2-1.7-.4-3.5-.6-5.2-.3-3.4-.7-6.7-.9-10.1-.1-1.7-.3-3.4-.3-5,0-1.6.5-3,1.3-4.4.8-1.3,1.8-2.5,3.1-3.3,1.3-.8,2.9-.9,4.4-.8,2.8.2,5.7,1.2,7.9,3.1,2,1.8,3.2,4.3,3.6,6.9,1.1,6.1-1.7,12.1-4.1,17.5-.7,1.5-1.3,3.2-2.2,4.6-.9,1.2-2.1,2.1-3.5,2.7-1.2.5-2.7.7-4.1.4-1.3-.3-2.2-1.3-3.1-2.2-.5-.5-1.3.3-.8.8.8.9,1.8,1.8,2.9,2.3,1.2.5,2.5.5,3.7.3,2.9-.5,5.3-2.4,6.6-5,.8-1.6,1.5-3.2,2.2-4.9.7-1.6,1.4-3.2,2-4.8,1.1-3.1,1.9-6.3,1.7-9.6-.1-2.8-1-5.7-2.7-8-1.8-2.4-4.6-3.9-7.5-4.6-3-.7-6.5-.7-8.9,1.5-1.2,1.1-2.2,2.5-2.8,3.9-.7,1.6-.9,3.3-.8,5,.2,4.2.6,8.4,1.1,12.5.2,2.1.4,4.3.7,6.4.1.9.1,1.9.5,2.8.3.8.8,1.5,1.3,2.1.4.6,1.4,0,1-.6h0Z"/>
        </g>
        <g>
          <path class="cls-45" d="M454.4,181.3c-.3-.6-.6-1.2-.7-1.8s0-1.4.4-1.9c.7-.9,1.6-1.2,2.7-1.2.7,0,1.2.4,1.4.6.2.1.5.4.6.6.3.6.3,1,.4,1.7s0,1.4-.5,1.8"/>
          <path class="cls-45" d="M455,181c-.3-.7-.7-1.5-.6-2.3,0-.6.5-1.1,1.1-1.3,0,0,0,0,0,0,0,0,0,0,.1,0,0,0,.2,0,.3,0,0,0,.1,0,.2,0,0,0,.1,0,.2,0,0,0,.1,0,0,0,.2,0,.4,0,.6,0,0,0,0,0,.1,0,0,0,0,0,.1,0,0,0,.2,0,0,0,.2.1.5.3.7.4.3.2.4.4.4.8,0,.4.1.8.1,1.2,0,.3,0,.7-.3.9-.6.6.4,1.6,1,1,.4-.4.6-.9.7-1.4,0-.6,0-1.1,0-1.6,0-.5-.2-1.1-.5-1.5-.3-.4-.7-.7-1.1-.9-.9-.5-2-.5-2.9-.2-1,.3-1.8,1-2.2,2-.4,1.3.1,2.6.7,3.7.2.3.7.4,1,.3.4-.2.4-.6.3-1h0Z"/>
        </g>
        <g>
          <path class="cls-37" d="M452.9,198.1c-.4-1.2.5-2.2,1.7-2.6s2.6.3,3.1,1.5c.2.6.2,1.3.2,1.9,0,.4,0,.8-.3,1.1-.1.1-.3.2-.5.3-1.7.5-3.7-.5-4.2-2.2"/>
          <path class="cls-45" d="M453.4,197.9c-.1-.4-.1-.7.1-1,.2-.3.5-.6.9-.7.8-.3,1.7-.2,2.3.3.4.3.5.7.6,1.2,0,.3,0,.5,0,.8,0,.3,0,.5,0,.8,0,.2,0,.3-.2.4-.2,0-.4.1-.6.2-.5,0-.8,0-1.2-.1-.9-.3-1.6-.9-1.9-1.8,0-.3-.4-.5-.7-.4-.3,0-.5.4-.4.7.4,1.2,1.3,2.1,2.5,2.5.5.2,1.1.3,1.7.2.7,0,1.5-.3,1.8-.9.2-.3.2-.7.2-1,0-.4,0-.8,0-1.2,0-.7-.3-1.4-.8-1.9-.8-.9-2.2-1.3-3.3-1-1.4.4-2.6,1.7-2.1,3.2,0,.3.4.5.7.4.3,0,.5-.4.4-.7h0Z"/>
        </g>
        <g>
          <path class="cls-37" d="M462.4,197.5c.6-1.5,2.1-1.4,3.4-1,.3.1.6.3.8.5.5.5.5,1.3.2,2-.5,1-1.7,1.6-2.8,1.4s-2.1-1.8-1.7-2.9"/>
          <path class="cls-45" d="M463,197.7c0,0,0-.1,0,0,0,0,0,0,0-.1,0,0,0,0,0-.1,0,0,0,0,0,0,0,0,.1-.1.2-.2.1-.1,0,0,0,0,0,0,0,0,.1,0,0,0,0,0,.1,0,0,0-.1,0,0,0,0,0,.2,0,.3,0,0,0,0,0,.1,0,0,0-.1,0,0,0,.1,0,.2,0,.3,0,0,0,.2,0,.3,0,0,0,.1,0,0,0,0,0,.1,0,.2,0,.2,0,.4,0,.6.1.4.1.7.3.9.7.3.6,0,1.5-.7,1.9,0,0-.2.1-.3.2-.1,0,0,0-.2,0-.2,0-.4,0-.5.1-.2,0-.3,0-.5,0,0,0-.1,0-.2,0-.1,0,0,0,0,0-.1,0-.2-.1-.3-.2-.1,0-.3-.3-.5-.4,0,0-.2-.3-.3-.5,0-.2,0,0,0,0,0,0,0-.1,0-.2,0,0,0,0,0-.1,0,0,0,0,0,0,0,0,0,0,0,0,0,0,0,0,0-.1s0-.2,0-.1c0-.1,0-.2,0-.3.1-.3-.1-.6-.4-.7-.3,0-.6.1-.7.4-.4,1,.2,2.3,1,3,.5.4,1,.6,1.6.7.6,0,1.2,0,1.7-.4,1.1-.6,1.7-1.8,1.5-3-.3-1.3-1.6-1.8-2.8-1.9-.6,0-1.2,0-1.7.3-.6.3-1,.8-1.2,1.4-.1.3.1.6.4.7.3,0,.6-.1.7-.4h0Z"/>
        </g>
        <path class="cls-45" d="M459.5,207.1c.8-.2,1.6-.3,2.4-.5.3,0,.7-.2.8-.6.1-.4-.1-.8-.2-1.1-.5-1.6-.9-3.2-1.1-4.8,0-.3-.2-.5-.5-.5-.2,0-.5.2-.5.5.1,1,.3,2,.5,3,.1.5.2,1,.4,1.4.1.5.4.9.5,1.4v-.3c0,0,0,0,0,0,0,0-.1,0-.2,0-.1,0-.2,0-.4,0h-.7c0,.1-1.4.4-1.4.4-.6.1-.3,1,.3.9h0Z"/>
        <g>
          <path class="cls-37" d="M454.5,207.5c.9.4,1.9.7,2.8,1.1.4.2.9.3,1.3.4,1.3.4,2.8.4,4.1.3-.7.4-.9,1.2-1.5,1.7-.6.5-1.4.7-2.1.7-.8,0-1.7,0-2.4-.6-.5-.4-.8-.9-1.1-1.4-.4-.7-.8-1.4-1.2-2.2"/>
          <path class="cls-45" d="M454.2,207.9c.7.3,1.3.5,2,.8.7.3,1.4.6,2.1.8,1.5.5,2.9.5,4.5.4l-.3-1.1c-.7.4-1,1.2-1.5,1.7-.6.6-1.5.6-2.3.6-.9,0-1.6-.4-2.1-1.2-.6-.9-1-1.8-1.5-2.7-.4-.6-1.3,0-1,.6.6,1,1.1,2.1,1.7,3,.6.9,1.5,1.3,2.6,1.4.9,0,2.1,0,2.9-.5.4-.2.7-.6,1-1,.3-.4.5-.8.9-1,.5-.3.3-1.1-.3-1.1-1.4,0-2.8,0-4.2-.3-.6-.2-1.2-.4-1.9-.7-.7-.3-1.3-.5-2-.8-.7-.3-1.2.7-.6,1h0Z"/>
        </g>
        <path class="cls-45" d="M458.6,217.2c-1.1,3.4-.5,7.2.3,10.7.9,4,2.4,8,1.6,12.1-.2.9,1.2,1.3,1.4.4.8-4.1-.4-8.1-1.4-12.1-.8-3.4-1.6-7.2-.5-10.7.3-.9-1.1-1.2-1.4-.4h0Z"/>
        <path class="cls-45" d="M450.1,249.3c-1.6-1.5-3.6-3.2-4.3-5.4-.3-1-.3-2.1-.3-3.1,0-1.1,0-2.3,0-3.4.4-5,.7-10.1,2.5-14.8.9-2.5,2.3-4.8,4.2-6.7.6-.6-.4-1.6-1-1-3.6,3.6-5.4,8.5-6.2,13.5-.5,2.7-.6,5.5-.9,8.3-.2,2.3-.3,4.7,0,7,.5,2.7,2.8,4.8,4.8,6.6.7.6,1.7-.4,1-1h0Z"/>
        <path class="cls-45" d="M445.3,234.9c1.5,0,3,0,4.6.2,1.4,0,2.8,0,4.1.1,2.3,0,4.5.4,6.7.8.9.1,1.3-1.2.4-1.4-2.3-.3-4.6-.7-6.9-.8-1.4,0-2.7,0-4.1-.1-1.6,0-3.2-.2-4.8-.2-.9,0-.9,1.4,0,1.4h0Z"/>
        <path class="cls-45" d="M445,239.1c3.7,0,7.3.9,10.9,1.4.9.1,1.3-1.2.4-1.4-3.7-.6-7.5-1.6-11.3-1.5-.9,0-.9,1.4,0,1.4h0Z"/>
        <path class="cls-5" d="M456.8,242.5c.5,0,1.1.2,1.6.4.4.2.8.5,1.2.8,2,1.7,3.2,2.6,5.2,4.2-2,1.6-3.7,2.9-6.2,3.3-1.7.3-3.3.5-5,.2-3.6-.5-6.7-3.2-7.8-6.6-.2-.7-.3-1.3-.5-2,0-.4-.3-1.2-.3-1.7s2.7,0,3.5,0c2.8.4,5.6.8,8.4,1.2Z"/>
        <path class="cls-45" d="M465.3,200.1c1.2,0,1.2-1.9,0-1.9s-1.2,1.9,0,1.9h0Z"/>
        <path class="cls-45" d="M456.6,200.1c1.2,0,1.2-1.9,0-1.9s-1.2,1.9,0,1.9h0Z"/>
        <g>
          <path class="cls-48" d="M449.3,229.8c3.8,4.1,6.8,10.9,10.8,14.8,3.2,3.1,5.6,4,9.7,5.7.5.2,1.9.7,2.3.3.2-.2,1.3-.8,1.3-1,.2-1.1.3-1.5,0-2.6s-.8-1.4-1.9-1.7c-.6-.1-1.6-.2-2.2-.2-3.6,0-6.9-2.7-9.2-5.5-2.3-2.8-3.7-6.1-5.4-9.3"/>
          <path class="cls-45" d="M448.9,230.3c3,3.3,5,7.4,7.6,11,2.5,3.4,5.5,6.2,9.4,8,.9.4,1.9.8,2.9,1.2.8.3,1.6.7,2.5.9.9.1,1.3-.2,2-.7.3-.2.6-.4.8-.7.2-.4.2-1,.3-1.5,0-.9-.2-2-.8-2.8-.5-.7-1.3-1-2.1-1.1-1-.2-2.1,0-3.1-.2-1.2-.2-2.3-.6-3.3-1.2-5-2.9-7.2-8.4-9.8-13.2-.4-.8-1.5,0-1.1.7,2.2,4.1,4.1,8.4,7.5,11.6,1.6,1.5,3.4,2.7,5.6,3.2,1,.2,1.9.2,2.9.3.7,0,1.8,0,2.3.7.6.7.6,1.7.5,2.5,0,0,0,.4,0,.4.1-.2,0,0,0,0-.1.1-.3.2-.4.3-.1,0-.3.2-.4.3-.1.1-.2.1-.2.1-.7.1-1.6-.4-2.2-.7-1-.4-1.9-.8-2.9-1.2-3.6-1.7-6.5-4.2-8.8-7.3-2.8-3.8-4.9-8.1-8-11.6-.6-.6-1.5.3-.9.9h0Z"/>
        </g>
        <path class="cls-45" d="M449.7,194.5c.2-.3.9-.8,1.2-1.1.7-.7,1.4-.9,2.3-1.3,1.9-.7,4-1.2,6-1.3,3.7-.3,7.5.6,10.6,2.7.8.5,1.5-.7.7-1.2-3.4-2.3-7.7-3.2-11.7-2.8-2.3.2-4.5.8-6.6,1.6-.9.3-1.6.7-2.3,1.4-.5.5-1,.8-1.4,1.4-.5.7.7,1.4,1.2.7h0Z"/>
        <path class="cls-43" d="M449.3,192.9s-.5-4.4,1.2-6.9c0,0,1.8-4.1,6.5-4.2,0,0,3.9-.3,7.1,1.8,0,0,1.9.9,3.4,3.1,0,0,1.8,2.6,2,5.1,0,0-4.7-2.5-8.8-2.4,0,0-4.6,0-7.9,1.3,0,0-2.2,1-3.6,2.2h0Z"/>
        <path class="cls-45" d="M449.4,189.7c1.3-1,2.8-1.9,4.4-2.4,1.5-.5,3.2-.6,4.8-.6,3.3,0,6.7.4,9.9,1.4.7.2,1-.9.3-1.1-3.4-1.1-7-1.6-10.6-1.5-1.7,0-3.4.2-5,.8-1.6.6-3.1,1.5-4.5,2.6-.6.5.2,1.3.8.8h0Z"/>
        <path class="cls-16" d="M453.2,234.4c.8-.4,1.7-.8,2.6-1.1"/>
        <path class="cls-40" d="M447.8,223.1s.8-2.2,1.3-2.9c0,0,7.2,2.4,9,2.9,0,0,.3,2.5.4,2.6,0,0-6.1-.5-10.7-2.6h0Z"/>
        <path class="cls-45" d="M445.6,229.6c2.4.9,4.9,1,7.4,1.2,2.3.2,4.6.4,7,.6.9,0,.9-1.4,0-1.4-2.3-.2-4.5-.4-6.8-.6-2.5-.2-4.9-.3-7.3-1.1-.9-.3-1.2,1.1-.4,1.4h0Z"/>
        <path class="cls-45" d="M446.9,224.2c3.8,1.6,7.9,2.6,12,2.9.9,0,.9-1.3,0-1.4-3.9-.3-7.8-1.2-11.3-2.8-.4-.2-.8-.1-1,.3-.2.3,0,.8.3,1h0Z"/>
        <path class="cls-45" d="M448.4,219.8c.3.4,1,.6,1.5.7.8.3,1.6.5,2.4.8,1.9.6,3.8,1.2,5.7,1.7.9.2,1.3-1.1.4-1.4-1.8-.5-3.6-1-5.4-1.6-.8-.3-1.6-.6-2.5-.8-.2,0-.5-.1-.7-.2-.1,0-.2,0-.3-.1,0,0-.1,0-.2,0,0,0,0,0,0,0-.2-.3-.8-.2-1,0-.3.3-.2.7,0,1h0Z"/>
        <polygon class="cls-40" points="450.8 230.6 454.3 230.8 455.4 233 453.2 233.9 450.8 230.6"/>
      </g>
      <path class="cls-45" d="M519.6,190.6c-1.3-.8-2.7-1.5-4-2.1-1.6-.8-2.8-1.8-4.1-2.8-1.8-1.4-2.7-3.2-4.1-5.1-2.1-2.9-5.4-5.8-8.9-7.1-3.9-1.4-8.3-.3-12.4,2.1-3.2,1.9-5.2,4.4-6.9,7.7-1.8,3.6-1.8,9.3-1.8,13.4v.9c-1.7,15.2-4.5,29.5-13.4,44.7l1.4,1.4c9.1-15.5,13.8-30.7,13.9-46.1v-.9c0-4,0-9.4,1.7-12.7,1.5-3,3.2-5.4,5.9-7,3.5-2.1,8.1-3.3,11.4-2.1,3,1,5.3,3.3,7.3,6.1,1.5,2,3,4.5,5,6.1,1.5,1.1,2.8,1.9,4.4,2.7,1.3.6,2.6,1.2,3.7,2,2.4,1.6,4.3,4.5,3.4,7-.8,2.1-3.5,3.4-7.8,3.7-2.8.2-4.6,0-6.9,0-1,0-2-.1-3.2-.2-2.7-.1-5.6-.2-6.9.3-3.9,1.4-5.5,6.1-6.1,10.2-2.6,16.2-6.1,35.6-8.1,52.1-.7,5.6-.9,7.9-4.5,13.1l-.7,1c-1.6,2.3-3.1,4.3-4.6,5.9l-1.3,1.4c-.5.5-3.6,4.3-3.8,7.3,0,3.1-.2,6.1-.3,9-.1,2.9-.2,5.8-.3,9h1.9c0-3.1.2-6.1.3-8.9.1-2.9.2-5.8.3-9,.1-2.1,2.7-5.5,3.3-6.1l1.3-1.4c2.3-2.5,2.4-2.6,4.8-6.1l.7-1c3.8-5.6,4.2-10.2,4.8-15.1,1.4-11.9,5-33.3,8.4-50.3.7-3.5,1.6-8.2,4.6-9.3.8-.3,2.8-.3,6.2-.2,1.2,0,2.2.1,3.1.2,2.3.1,4.3.3,7.1,0,5.3-.4,7.4-2.3,8.5-5.2,1.3-3.5-.4-6.6-3.3-8.6h0Z"/>
      <path class="cls-45" d="M491.9,184.9c0,0,.2,0,.3,0,0,0,0,0,0,0,0,0,0,0,0,0,0,0,0,0,.1,0,0,0,.2,0,.3,0,0,0,0,0,.1,0,0,0,.2,0,0,0s0,0,0,0c0,0,0,0,.1,0,0,0,.2,0,.3,0,0,0,0,0,.1,0,0,0,0,0,0,0-.2,0-.2,0-.1,0,.1,0,.2,0,.3,0,.2,0,.4,0,.6,0,.1,0,.2-.1.2-.3,0-.1-.2-.2-.4-.3-.2-.1-.5-.2-.7-.2-.5,0-1,0-1.5,0-.5,0-1,.1-1.4.3-.1,0-.2.1-.2.3,0,.1.3.3.4.3.2.1.5.2.7.2.2,0,.4,0,.6,0h0Z"/>
      <path class="cls-45" d="M490.8,181.4c.8.4,1.6.9,2.4,1.3.3.2.8.2,1.2,0,.1,0,.3,0,.4-.2,0-.1,0-.2-.1-.3l-2.4-1.3c-.3-.2-.8-.2-1.2,0-.1,0-.3,0-.4.2,0,.1,0,.2.1.3h0Z"/>
      <path class="cls-45" d="M492.1,178.6s0,0,0,0c0,0,0,0,0,0,0,0,0,0,.1.1,0,0,.2.1.3.2.2.1.4.3.6.4.4.3.7.6,1.1.9.2.1.3.2.5.3.2,0,.5.1.7,0,.1,0,.4,0,.5-.2,0-.1,0-.2,0-.3-.8-.6-1.6-1.3-2.4-1.9-.2-.1-.4-.2-.6-.2-.2,0-.5,0-.7,0-.1,0-.3,0-.3.2,0,.1.1.2.2.3h0Z"/>
      <path class="cls-45" d="M495.3,176.1c.3,1,.5,2.1.8,3.1,0,.3.5.2.7.2.2,0,.3,0,.5-.1,0,0,.2-.1.2-.2-.3-1-.5-2.1-.8-3.1,0-.3-.5-.2-.7-.2-.2,0-.3,0-.5.1,0,0-.2.1-.2.2h0Z"/>
      <path class="cls-45" d="M500.2,179.6c.1-.5.2-1,.2-1.5,0-.5,0-1-.2-1.5,0-.1-.2-.2-.3-.2-.2,0-.4,0-.5,0-.1,0-.7,0-.5.3,0,.2.1.3.1.6,0,.3,0,.5,0,.8,0,.5-.1,1-.2,1.4,0,0,.1.2.2.2.1,0,.3.1.5.1.2,0,.3,0,.5,0,0,0,.2,0,.2-.2h0Z"/>
      <g>
        <path class="cls-37" d="M494.3,184c-.3-1.5,0-3.1,1.1-4.2,1.1-1,3-1.2,4.1-.2.5.5.8,1.1,1,1.7.5,1.4.9,2.9.9,4.4s-.5,3-1.5,4.2c-.2.3-.5.5-.8.6-.3.1-.6.2-.9.2-1.2,0-2.5-.7-3-1.8-.2-.5-.3-1-.4-1.6-.2-1.2-.3-2.3-.5-3.5"/>
        <path class="cls-45" d="M495,183.9c-.3-1.4.1-3.3,1.6-3.9.6-.3,1.4-.3,2,0,.8.4,1.2,1.3,1.4,2.1.6,1.8,1,3.8.4,5.6-.2.8-.7,1.7-1.4,2.2-.6.5-1.6.3-2.2,0-.9-.5-1.2-1.3-1.3-2.3-.2-1.2-.4-2.5-.5-3.7,0-.4-.5-.6-.9-.5-.4.1-.5.5-.5.9.2,1.4.3,2.9.6,4.3.2,1.1.9,2,1.8,2.5.9.5,2.1.7,3.1.4,1.1-.4,1.9-1.5,2.4-2.5,1-2.3.7-5-.1-7.3-.4-1.1-.9-2.2-1.9-2.8-.9-.5-1.9-.6-2.9-.3-2.5.7-3.4,3.5-2.9,5.8.2.9,1.5.5,1.4-.4h0Z"/>
      </g>
      <path class="cls-45" d="M499.5,182.7c0,0-.1,0-.2,0,0,0-.1,0-.2,0,0,0,.1,0,0,0,0,0,0,0,0,0,0,0-.2,0-.2,0,0,0,0,0,0,0-.1,0,0,0,0,0,0,0-.2,0-.2,0,0,0-.1,0-.2,0-.1,0,0,0,0,0,0,0-.1,0-.1,0,0,0-.1,0-.2,0-.2,0,.1,0,0,0,0,0-.1,0-.1,0,0,0,0,0,0,0,0,0,.1.1,0,0,0,0,0,0-.1-.1,0,0,0,0,0,0,0,0,0,0,0,0,0,0,0,0,0-.1,0,0,0,0,0,0,0-.1,0,.2,0,0,0,0,0-.1,0-.2,0,0,0,0,0,0,0,0,0,0,0,0,0,0,0,0,0,0,0-.1,0,0,0,0,0,0,0,0,0,0h0s0,0,0,0h0s0,0,0,0c0,0,0,0,0,0,0,0,0,0,0,0,0,0,0,0,0,0,0,0,.1,0,.2,0,.1,0,0,0,0,0,0,0,0,0,.1,0,0,0,.1,0,.2,0,0,0,0,0,0,0,0,0,0,0,0,0,0,0,.1,0,.2,0,0,0,0,0,0,0,0,0-.1,0,0,0,0,0,.1,0,.2,0,.2,0-.1,0,0,0,0,0,0,0,.1,0,0,0,0,0,0,0,0,0-.1-.1,0,0,0,0,.1,0,.1.1,0,0,0,0,0,0,0,0,0,0,0,0,0,0,0,.1,0,.2,0,.1,0,0,0,0,0,0,0,0,0,.1,0,0,0,0,0,0,0,0,0,.2,0,0,0-.1,0,0,0,.1,0,.1,0,0,0,0,0,0,0,0,0,.1,0,0,0-.2,0,0h0c-.1,0,0,0,.4-.2h.4c0,0,0,0,.1.2,0,.1.1.1,0,0,0,0,0,0,0,0,0,0-.1-.2-.2-.3-.4-.4-.8-.2-1.2,0,0,0,0,0,0,0,0,0,0,0,0,0,0,0-.1,0-.1,0,.1,0,.3,0,.4.1,0,0,0,.1,0,0s0,.1,0,0c0-.2,0,.1,0,0,0-.2,0,.1,0,0,0,0,0,0,0,0,0,0,0,0,0,0,.2-.3.3-.7,0-1-.3-.2-.7-.3-1,0-.2.3-.4.6-.3.9,0,.3.1.7.4.9.3.3.6.4,1,.3.1,0,.3-.1.4-.2,0,0,0,0,0,0,0,0-.1,0,0,0,.2,0,.2,0-.2-.1h-.3s0,0,0-.1c0-.1,0,0,0,0,0,0,0,0,0,0,0,.1.2.3.3.4.4.3.9,0,1.1-.4.3-.5.2-1.2,0-1.7-.5-1-1.7-1.5-2.8-1.1-.3.1-.6.3-.8.5-.3.3-.5.6-.5,1,0,.6.2,1.1.5,1.5.9,1,2.4.9,3.4.3.3-.2.5-.6.3-1-.2-.3-.6-.5-1-.3h0Z"/>
      <path class="cls-45" d="M498.8,195.8c.4.1.9.1,1.3.2,4.1.4,8.2.6,12.3.6,1.6,0,3.3,0,4.9.2s3.2.9,4.5,2c.2.2.3.3.4.6s-.1.5-.4.5c-.1,0-.2,0-.3-.1-2.2-1.5-5.1-1.6-7.8-1.6-4.6,0-9.2,0-13.8-.1-.6,0-1.2,0-1.8-.1-1.2-.3-2.2-1.1-2.8-2.1-.4-.7-.5-1.4-.5-2.2,0-.9.4-.9.8-.2.8,1.2,1.6,2.2,3.1,2.5h0Z"/>
      <path class="cls-45" d="M517.7,192.9c.4,0,1.7,2.5,1.5,2.8s-4.5-1.8-4.7-2.3"/>
    </g>
    <path class="cls-45" d="M505.1,103.1c-.3-1.5-1.5-2.9-3.3-2.7-4-2.7-8.8-6-12.8-8.3-13.3-7.8-37-7.2-40.3-7-7.1.4-12.2,4.3-19.3,4.1-26.5-.5-46.3,2.5-71.2,12.8-6.2,2.6-6.4,3.5-12.4,6.7-2.1,1.8-12.1,3.5-13.9,5.6,4.5.5,22-.3,23.3-.3,2.4,0,4-.8,7.7.2-1.9.6-13.5,8.4-15.5,9.1-.4.7,8.1-.8,8.9-.5,2.8.8,5-.8,7.8,0,.8.2,1.7.7,1.7,1.5,0,.7-.7,1.1-1.3,1.4-1.9.9-8.8,4.6-10.8,5,0,2.1,6.6,1,8.7,1.4,1.3.3,2.6,0,3.8.2s2.6,1,2.7,2.3c-2.2,2.2-9,4.1-9.7,4.5-3.6,1.6-6.9,3.8-10,6.3,5.7,1.1,11.4,1.5,17.2,1.2-6.5,3.6-12.9,7.3-19.4,10.9,8.5,3.1,19.1-2.3,19.2-.4s-10.3,8-17.6,11.8c-.9.5-9.3,5.6-11.9,10.2,3.1-1,20.6-7.5,32.5-10.2,10.1-2.4,41.2-10.8,60.4-9.3,10.1.8,8.8,2.8,19.1,6.5,5.5,2,10.1,2.3,15.9,3.1,4.3.6,9.2,1.6,13-1.3,2-1.6,2.1-4.9-.7-5.7-5.7-1.6-2.5-10.6-1.9-14.5.5-3.3,7.9-22.4,14.5-30.2,2.9-3.4,7.4-7.9,11.4-10,2.7,1.2,5.8-2,4.2-4.3h0Z"/>
    <g>
      <g>
        <path class="cls-37" d="M385.2,153.1c-.3,0-1.2-.1-1.4-.3-.1-.1-.5-1.5-.6-1.7-.5-3.1-.4-3.7-.4-6.5,0-.9.4-2.8.5-3.7.2-2,.4-3.2,0-5.1-.2-1-.3-2.8-.3-3.8,0-1.3-1.3-3.4-.8-4.6.3-.7,2.5-1.1,3-1.6.5-.6,2.1-.9,2.7,0,.6,2,.2,3.8.6,5.9.1.6.4,2,.8,2.5.4.5,1.1,0,1.7-.5.3-.2.5-.4.6-.7,1.9-2.8,5.2-5.4,8.4-6.8,1.4-.6,2.2-2.8,3.6-2.3,1.4.5,3.2,3,2.2,4.1-.8.9-3,2-4,2.7-1.7,1-5.9,3.3-5.6,5.1.2,1.1,3.7,1.6,4.1,2.7.2.6,1.6.7,1.9,1.4.3.6,1.3,1.2,2.3,2.5,1,2.2,1.9,3.2,3.1,5,.3.4.9.9.6,1.2,0,0-.2.1-.4.2-1.8.5-2.8,2.2-4.3,1.2-2.5-1.6-5.5-5.8-7.3-8-1.3-1.5-2.1-2-3.8-3.1-.4-.3-1.8-1.2-2.3-1.1-.7.1,0,.1-.1.8s-.4,2-.3,2.7c.2,1.2,0,1.8-.3,3-.4,1.2-.6,2.3-.8,3.5-.2,1.1.9,3.9,0,4.8-.7.8-2.4.6-3.4.7h0Z"/>
        <path class="cls-37" d="M411.3,126.9c-.3-.4-.6-.9-.4-1.5.1-.4.4-.6.7-.9,1-.9,2.1-1.8,3.2-2.5.9-.5,2-1,3-.6.3.1.6.3.9.5,1,.7,1.9,1.6,2.6,2.6.1.1.2.3.2.5,0,.2-.1.3-.2.4-.9,1.1-1.8,2.2-3,3-1,.7-2.7,1.4-3.9.8-1.1-.5-2.4-1.4-3.2-2.3h0Z"/>
        <path class="cls-37" d="M414.9,144.9c-.3-2.7-.5-5.4-.7-8.1,0-.6,0-1.3.1-1.9.3-1,1.1-1.8,2-2.3.7-.4,1.6-.6,2.2-.2.4.4.5,1,.5,1.5.2,4.4.5,8.9.7,13.3,0,.4,0,.8-.1,1.1-.3.6-1,.8-1.7,1-1.1.3-2.1.3-2.4-.9-.3-1.2-.6-2.4-.8-3.6h0Z"/>
        <path class="cls-37" d="M426.7,126.5c.4-1.2.5-2.6,1-3.6.2-.3,0-.9.4-1.1.3-.2.7,0,1,.1.3.2.5.5.6.8,1.5,2.6,1.6,5.6,1.8,8.5.2,2.9.9,7.7,2.6,10.4,1.6-1.4,1.7-2.6,3.3-4,.3-.3.9-4.3,1.2-4.6.8-.7.8-1.1,1.2-2.1.4-1.4.9-2.7,1.6-3.9.6-1.1,1.4-2.2,2.5-3,.8-.5,1.2-.9,1.8-1.6.3-.3,1-.6,1.3-.8.6-.3,1.3-.2,2.1-.1.3,0,.6.1.9.3.3.3.3.9.1,1.2-.2.3-.6.5-.9.8-.6.5-1.1,1.3-1.5,2-.6,1.1-1.3,2.2-1.6,3.4-.1.6-.2,1.2-.4,1.7-.4.9-1.1,2.3-1.6,3.1-.9,1.5-.7,1.4-1.4,3-.2.5-.8,2.3-1,2.9-.5,1.2-1.6,2.8-2.5,3.7-1.1,1.1-1.2,1.8-2.3,2.9-.8.8-1.6,1.6-2.2,2.6-.2.5-1.2,1.2-1.8,1-.2-.1-.6-.8-.7-.9-.5-.8-1.1-1.6-1.6-2.5-.5-.7-1-1.5-1.3-2.2-.5-1.1-.8-2.2-1.1-3.3-.6-2.5-1-5.1-1.3-7.6-.1-1.2-.1-2.4-.5-3.5-.4-1.2-.2-2.3.1-3.5h0Z"/>
        <path class="cls-37" d="M453.8,124.5c-.2-.2-.4-.5-.4-.8,0-.5.4-.8.8-1,.9-.6,1.8-1.1,2.7-1.7.7-.4,1.4-.8,2.3-.8,1,0,1.8.7,2.6,1.3,1,.9,2,2.1,1.9,3.4,0,.2,0,.4-.2.6-.1.1-.3.2-.4.3-.9.5-1.9.9-2.8,1.4-.7.3-1.8,1.1-2.6,1-.7-.1-1.3-1-1.8-1.5-.7-.7-1.4-1.5-2.1-2.3h0Z"/>
        <path class="cls-37" d="M455.5,145c0-2.9,0-5.9.5-8.7.2-1.1.5-2.2,1.2-3.1.6-.9,1.7-1.5,2.8-1.5.1,0,.2,0,.3,0,.3.1.6,1,.6,1.1.8,2.5-.2,4.4-.4,6.8-.2,2.5,0,5,.1,7.5,0,.7,0,1.4,0,2,0,.1,0,.2-.1.3-.2.4-1.1.5-1.3.5-1.1,0-2.1-.2-2.8-1.2-.8-1.1-.9-2.6-.9-3.9h0Z"/>
      </g>
      <g>
        <path class="cls-37" d="M378.3,113.6c.2,2,.4,4.1.6,6.1-1.3.3-2.5.6-3.8,1-.6-4.9-1.1-9.9-1.7-14.8,1.9-.5,3.8-1.1,5.8-1.5,3.3-.8,5.2.2,5.4,3,.2,2.1-.9,3.3-1.9,3.9,1.4.2,2.1,1,2.3,3.2,0,.2,0,.3,0,.5.2,1.7.3,2.6.5,3.2-1.2.3-2.5.5-3.7.8-.3-.5-.5-1.8-.6-3.3,0-.2,0-.3,0-.5-.2-1.8-.6-2.1-2.1-1.8-.3,0-.6.1-.8.2h0ZM378,111c.3,0,.6-.2.9-.2,1.5-.4,2-1,1.8-2.4-.1-1.2-.7-1.7-2-1.3-.4,0-.8.2-1.2.3.1,1.2.3,2.5.4,3.7Z"/>
        <path class="cls-37" d="M391.1,111.9c.1,1.5.4,2.7,1.6,2.5,1.1-.2,1.2-1,1.2-1.6,1.2-.2,2.5-.4,3.7-.6,0,.8-.2,4-4.8,4.8-4.4.8-5.3-2-5.6-5.2-.4-3.9,1.3-6.4,4.8-7,4-.7,5.3,1.5,5.5,4.8,0,.4,0,1.1,0,1.3-2.1.3-4.3.7-6.4,1.1h0ZM393.5,109.2c0-1.2-.2-2.2-1.4-2-1.2.2-1.3,1.4-1.2,2.5.9-.2,1.7-.3,2.6-.5h0Z"/>
        <path class="cls-37" d="M398.5,103.7c.5,0,1.1-.2,1.6-.2,0-.9-.1-1.9-.2-2.8,1.3-.2,2.6-.4,3.9-.6,0,.9.1,1.9.2,2.8.6,0,1.3-.2,1.9-.2,0,.9,0,1.8.1,2.8-.6,0-1.2.2-1.9.2.1,1.9.2,3.8.3,5.8,0,.6.2.9,1.1.8.2,0,.4,0,.6-.1,0,.8,0,1.7.1,2.5-.7.3-1.6.4-2.1.5-2.5.3-3.4-.4-3.5-2.6-.1-2.1-.3-4.2-.4-6.3-.5,0-1.1.2-1.6.2,0-.9-.1-1.8-.2-2.7h0Z"/>
        <path class="cls-37" d="M406.3,102.7c.5,0,1.1-.1,1.6-.2,0-1,0-1.9-.1-2.9,1.3-.2,2.6-.3,3.9-.4,0,1,0,1.9.1,2.9.6,0,1.3-.1,1.9-.2,0,.9,0,1.9,0,2.8-.6,0-1.2.1-1.9.2,0,1.9.1,3.9.2,5.8,0,.6.2,1,1.1.9.2,0,.4,0,.6,0,0,.8,0,1.7,0,2.5-.7.3-1.6.4-2.2.4-2.5.2-3.4-.6-3.5-2.8,0-2.1-.2-4.3-.3-6.4-.5,0-1.1.1-1.6.2,0-.9,0-1.8-.1-2.8h0Z"/>
        <path class="cls-37" d="M419.5,108.5c0,1.6.2,2.8,1.5,2.8,1.1,0,1.2-.9,1.3-1.4,1.3,0,2.5,0,3.8-.1,0,.8-.5,4.1-5,4.2-4.4.2-5.3-2.8-5.4-6.2-.1-4.1,1.6-6.4,5.2-6.6,4.1-.2,5.3,2.3,5.3,5.7,0,.4,0,1.1,0,1.4-2.2,0-4.3.1-6.5.2h0ZM422.2,106.1c0-1.2-.1-2.3-1.3-2.3-1.3,0-1.3,1.2-1.3,2.4.9,0,1.8,0,2.7-.1h0Z"/>
        <path class="cls-37" d="M427.5,101.2c.5,0,1.1,0,1.6,0,0-1,0-2,0-2.9,1.3,0,2.6,0,4,0,0,1,0,2,0,3,.6,0,1.3,0,1.9,0,0,1,0,1.9,0,2.9-.6,0-1.3,0-1.9,0,0,2,0,4,0,6,0,.7.2,1,1,1,.2,0,.4,0,.6,0,0,.9,0,1.7,0,2.6-.7.2-1.6.2-2.2.2-2.5,0-3.4-.9-3.4-3.2,0-2.2,0-4.4,0-6.6-.5,0-1.1,0-1.6,0,0-.9,0-1.9,0-2.9h0Z"/>
        <path class="cls-37" d="M452.6,97.7c-.2,4.5-.3,8.9-.5,13.4,0,1.7-.1,3.1-.1,3.8-1.2-.1-2.5-.3-3.7-.4,0-.3,0-.9,0-1.3-.5.9-1.4,1.3-2.9,1.2-2.6-.2-3.8-2.3-3.7-6.9,0-4.2,1.6-6.3,4.5-6.2,1.4,0,2.1.6,2.3,1.1,0-1.7.1-3.4.2-5.1,1.3,0,2.7.2,4,.3h0ZM445.6,107.9c0,2.8.3,3.8,1.2,3.8,1.2.1,1.4-.7,1.5-3.7,0-2.7,0-3.5-1.2-3.6-.9,0-1.5.5-1.6,3.5h0Z"/>
        <path class="cls-37" d="M455.6,98c1.3.1,2.7.3,4,.5,0,1-.1,2-.2,3-1.3-.2-2.6-.3-4-.5,0-1,0-2,.1-3h0ZM455.4,102.4c1.3.1,2.6.3,3.9.5-.2,4.3-.4,8.6-.7,12.9-1.3-.2-2.6-.4-3.8-.5.2-4.3.4-8.6.6-12.8h0Z"/>
        <path class="cls-37" d="M465.3,111.3c-.1,1.7,0,3,1.2,3.2,1.1.2,1.3-.6,1.4-1.2,1.2.2,2.4.5,3.7.7-.2.9-.8,4.2-5.3,3.3-4.4-.8-4.9-4.2-4.7-7.7.2-4.4,2.2-6.3,5.7-5.7,4,.7,4.9,3.6,4.6,7.2,0,.4-.1,1.2-.1,1.4-2.1-.4-4.2-.9-6.4-1.2h0ZM468.1,109.4c0-1.3.1-2.5-1.1-2.7-1.2-.2-1.4,1-1.5,2.2.9.2,1.7.3,2.6.5h0Z"/>
      </g>
    </g>
  </g>
</svg>