<?xml version="1.0" encoding="UTF-8"?><svg id="Layer_1" xmlns="http://www.w3.org/2000/svg" width="841.89" height="595.276" viewBox="0 0 841.89 595.276"><defs><style>.cls-1{fill:none;stroke:#000;stroke-linecap:round;stroke-miterlimit:10;stroke-width:12px;}.cls-2{fill:#e4007d;}</style></defs><g><line class="cls-1" x1="132.945" y1="357.317" x2="222.945" y2="357.317"/><line class="cls-1" x1="254.445" y1="357.317" x2="344.445" y2="357.317"/><line class="cls-1" x1="375.945" y1="357.317" x2="465.945" y2="357.317"/><line class="cls-1" x1="497.445" y1="357.317" x2="587.445" y2="357.317"/><line class="cls-1" x1="618.945" y1="357.317" x2="708.945" y2="357.317"/></g><path class="cls-2" d="M59.795,357.764c41.065-33.113,77.413-73.068,106.834-116.841,13.065-19.437,24.949-39.925,33.767-61.662,7.993-19.704,15.027-41.461,15.508-62.913,.217-9.669-1.059-22.29-9.711-28.402-6.187-4.371-14.203-3.445-20.598-.046-3.61,1.919-6.732,4.64-9.322,7.786-5.09,6.183-9.788,12.99-13.637,20.02-4.524,8.264-8.186,17.049-12.294,25.522-5.899,12.166-11.004,24.693-14.837,37.669-10.05,34.023-10.72,71.357,4.575,103.929,6.901,14.697,15.939,28.812,33.126,32.123,16.52,3.182,31.883-5.586,43.239-16.933,9.119-9.111,16.256-20.007,23.415-30.664,6.788-10.104,13.368-20.571,17.97-31.881,1.979-4.864,3.645-9.921,4.528-15.107,.483-2.835,1.909-7.552-.91-9.634-4.667-3.446-12.971,1.611-16.704,4.328-8.166,5.942-12.742,14.865-17.155,23.689-4.46,8.918-8.613,18.283-10.803,28.048-1.475,6.58-2.589,15.341,2.931,20.434,2.46,2.269,5.632,3.581,8.98,3.62,2.365,.027,4.773-.53,6.995-1.292,1.207-.414,5.362-3.053,6.275-2.609,1.614,.785,1.234,8.076,1.467,9.864,.648,4.963,2.275,10.068,7.158,12.341,6.836,3.182,16.201,.152,22.368-3.274,4.248-2.36,7.913-5.623,11.388-8.983,4.34-4.195,9.018-8.285,13.035-12.782,4.868-5.45,7.668-12.634,10.289-19.35,3.393-8.696,6.314-17.6,10.315-26.047,3.134-6.616,7.292-14.483,14.549-17.237l-2.594-1.915c-.066,30.572-14.276,58.84-19.392,88.59l5.04-.798c-.152-4.004-2.926-7.868-5.124-11.03-3.363-4.836-7.243-9.327-11.346-13.546-4.011-4.124-15.417-16.915-22.065-10.848-3.435,3.135-2.406,8.859-1.4,12.801,1.169,4.581,4.773,7.275,8.667,9.681,13.825,8.542,31.485,12.552,47.628,11.075,21.506-1.967,38.652-15.572,51.781-31.987,5.349-6.688,9.885-14.057,13.434-21.852,1.271-2.793,2.356-5.652,3.48-8.505,.473-1.2,1.922-3.371,1.985-4.675,.031-.647,.019,.587-.114,.171-.272-.85-3.27-1.273-3.974-.496-.246,.272,.022,.455-.029,.58-.506,1.234-.473,2.995-.709,4.318-.814,4.563-1.68,9.115-2.427,13.69-1.676,10.263-3.468,21.156-2.172,31.561,1.157,9.284,6.051,14.42,15.687,11.089,14.524-5.021,23.892-19.936,34.04-30.547,2.078-2.173,4.267-4.505,6.835-6.103,.961-.598,1.903-1.084,3.014-1.331,1.361-.303,.636-.472,.956,.132,.827,1.562,.597,4.488,.772,6.214,.341,3.361,.72,6.719,1.271,10.052,1.2,7.249,3.227,14.92,7.812,20.824,4.29,5.524,10.968,8.669,17.443,10.932,28.534,9.973,60.016-2.274,84.655-16.791,25.58-15.071,49.075-35.084,68-57.974,5.667-6.854,12.055-14.621,14.789-23.243,3.237-10.208,4.563-24.11,.067-34.126-5.723-12.75-20.564-14.422-32.952-13.167-7.57,.767-15.521,1.942-22.375,5.409-6.813,3.446-13.004,8.373-18.354,13.782-7.173,7.251-12.927,15.644-17.323,24.837l4.707-.737c-4.182-10.469-12.232-25.697-25.353-25.847-13.464-.154-22.812,15.529-28.324,25.981-8.598,16.302-9.861,34.953,.223,50.882,10.402,16.431,28.496,26.994,45.812,34.745,21.106,9.448,43.802,15.418,66.565,19.227,21.427,3.586,44.057,6.021,65.714,3.048,2.79-.383,4.606-5.999,1.225-5.535-17.033,2.338-34.641,1.123-51.628-1.001-20.918-2.615-41.726-7.213-61.654-14.118-29.104-10.084-74.818-31.831-67.554-70.04,2.188-11.509,8.724-23.479,16.898-31.828,14.606-14.919,27.835,3.989,33.146,17.287,.981,2.457,3.841,1.073,4.707-.737,7.044-14.727,19.275-29.944,34.88-36.257,7.408-2.997,16.557-3.963,24.503-3.936,6.118,.02,12.705,.994,17.601,4.964,9.057,7.344,7.61,21.398,5.78,31.558-1.424,7.907-5.472,14.096-10.27,20.457-16.166,21.433-37.245,40.01-59.508,54.87-22.964,15.328-51.724,29.733-80.197,25.675-6.562-.935-13.042-2.947-18.905-6.051-6.675-3.534-10.539-8.885-12.873-16.009-2.063-6.297-2.834-12.88-3.498-19.443-.272-2.688,.105-7.914-2.813-9.311-3.848-1.842-9.057,2.112-11.74,4.355-4.879,4.079-8.954,9.159-13.143,13.914-5.094,5.781-10.327,11.827-16.7,16.251-3.162,2.195-9.786,6.361-13.671,3.666-5.574-3.866-3.594-16.93-3.127-22.446,.809-9.558,2.634-18.992,4.331-28.421,.365-2.03,1.282-4.782,.974-6.866-.463-3.128-3.3-2.634-4.894-.506-2.038,2.721-2.916,6.654-4.158,9.752-2.9,7.23-6.588,14.101-11.116,20.445-11.986,16.792-29.066,31.718-50.309,33.682-15.492,1.432-32.831-2.333-45.998-10.812-4.008-2.581-6.301-4.651-7.073-9.446-.185-1.151-.321-2.314-.258-3.483,.067-1.237,.462-.59-.309-.325,.635-.218,2.389,.683,3.135,1.054,9.103,4.533,16.909,14.293,22.71,22.371,1.82,2.535,4.969,6.233,5.094,9.541,.132,3.488,4.61,1.704,5.04-.798,5.203-30.254,19.473-58.881,19.54-89.99,.003-1.325-1.266-2.419-2.594-1.915-13.702,5.199-19.563,21.617-24.335,34.167-2.802,7.367-5.313,14.89-8.712,22.013-3.957,8.294-10.623,13.831-17.137,20.166-6.67,6.486-14.733,12.699-24.603,12.331-5.566-.208-8.128-3.745-9.027-8.899-.651-3.731,.013-8.168-1.537-11.688-2.371-5.386-7.79-1.28-11.493-.013-8.464,2.895-15.113-1.512-14.87-10.472,.252-9.298,4.352-18.66,8.133-26.992,3.873-8.533,8.019-18.479,14.968-24.97,2.777-2.594,6.115-4.908,9.808-5.962,.859-.245,2.629-.87,3.561-.472,1.384,.591,.653,1.83,.395,3.691-3.121,22.542-19.206,43.023-32.081,61.021-10.22,14.286-25.037,30.11-44.058,30.047-9.104-.03-18.85-4.137-24.892-11.076-3.511-4.032-6.31-9.124-8.858-13.778-13.964-25.503-17.109-55.577-12.439-84.003,4.032-24.541,13.921-46.537,24.418-68.859,5.799-12.332,11.78-25.26,21.337-35.25,4.234-4.426,10.728-7.706,16.968-6.392,8.08,1.702,11.323,10.345,12.331,17.646,2.419,17.518-3.027,36.221-8.347,52.695-6.76,20.934-16.448,40.731-27.811,59.537-24.713,40.898-56.048,78.16-90.984,110.688-8.398,7.819-17.063,15.341-25.995,22.543-2.689,2.168-.46,6.354,2.59,3.895h0Z"/><g id="Icon-Pencil"><path id="Fill-168" class="cls-2" d="M684.75,313.567l10.278-41.389,63.056-63.056,31.111,31.111-63.056,63.056-41.389,10.278h0Zm17.5-37.5l-6.667,26.667,26.667-6.667,56.111-56.111-20-20-56.111,56.111h0Z"/><path id="Fill-169" class="cls-2" d="M719.472,300.789c-2.778-10.833-11.111-19.167-21.944-21.944l1.944-7.778c13.611,3.333,24.167,13.889,27.5,27.5l-7.5,2.222"/><polyline id="Fill-170" class="cls-2" points="718.639 285.511 713.083 279.678 768.361 224.4 773.917 229.956 718.639 285.511"/><path id="Fill-171" class="cls-2" d="M690.306,308.011l12.222-3.056c-1.111-4.444-4.722-8.056-9.167-9.167l-3.056,12.222"/><path id="Fill-172" class="cls-2" d="M792.25,237.178l-31.111-31.111,12.5-12.5,1.944,.278c15,1.944,26.944,13.889,28.889,28.889l.278,1.944-12.5,12.5h0Zm-19.722-31.111l20,20,3.889-3.889c-2.222-10-10-17.778-20-20l-3.889,3.889h0Z"/></g></svg>