<?xml version="1.0" encoding="UTF-8"?><svg id="Layer_1" xmlns="http://www.w3.org/2000/svg" viewBox="0 0 50 50"><defs><style>.cls-1{fill:#fff;}</style></defs><g id="Twitterbird"><path id="Path_1274" class="cls-1" d="M47.5,11.04c-1.68,.75-3.47,1.24-5.3,1.45,1.93-1.15,3.37-2.97,4.06-5.11-1.81,1.08-3.8,1.83-5.87,2.24-3.5-3.72-9.34-3.9-13.06-.4-2.4,2.25-3.41,5.61-2.67,8.82-7.42-.37-14.34-3.88-19.03-9.65-2.45,4.22-1.2,9.62,2.86,12.33-1.47-.05-2.9-.44-4.18-1.15v.12c0,4.4,3.1,8.18,7.41,9.05-1.36,.37-2.79,.42-4.17,.16,1.21,3.76,4.67,6.34,8.62,6.41-3.27,2.57-7.31,3.96-11.47,3.95-.74,0-1.47-.05-2.2-.13,4.22,2.71,9.13,4.15,14.15,4.15,16.98,0,26.26-14.07,26.26-26.26,0-.4,0-.8-.03-1.2,1.81-1.3,3.37-2.92,4.61-4.77Z"/></g></svg>